<?xml version="1.0" encoding="UTF-8"?>
<svg width="206px" height="139px" viewBox="0 0 206 139" version="1.1" xmlns="http://www.w3.org/2000/svg" xmlns:xlink="http://www.w3.org/1999/xlink">
    <!-- Generator: Sketch 52.4 (67378) - http://www.bohemiancoding.com/sketch -->
    <title>Group 9</title>
    <desc>Created with Sketch.</desc>
    <g id="Page-1" stroke="none" stroke-width="1" fill="none" fill-rule="evenodd">
        <g id="Group-9">
            <g id="music-postcard">
                <g id="postcard-(1)">
                    <rect id="Rectangle" fill="#FFFBEB" x="0" y="0" width="206" height="139" rx="6"></rect>
                    <path d="M90.6695671,87.9816627 L20.1737406,95.9214863 C18.7901424,96.0774968 17.5450207,95.0562644 17.3929299,93.6406277 L9.3597361,18.9772337 C9.20725634,17.5615969 10.2057654,16.2876433 11.5889746,16.1320307 L82.0848012,8.19220722 C83.4683994,8.03619665 84.7135211,9.05782707 84.8656119,10.4730658 L92.8988056,85.1364598 C93.0512854,86.5520965 92.0531654,87.8260502 90.6695671,87.9816627 Z" id="Path" fill="#FFD830"></path>
                    <path d="M190.499569,49.6053098 L161.448161,52.8841262 C160.014395,53.0461247 158.724126,51.9852826 158.56652,50.5157248 L154.515938,12.7907396 C154.35793,11.3207686 155.392644,9.99791871 156.826007,9.83633348 L185.877415,6.55751709 C187.311182,6.3955186 188.601451,7.45636076 188.759056,8.92591849 L192.809638,46.6509037 C192.967647,48.1204614 191.933335,49.4433114 190.499569,49.6053098 Z" id="Path" fill="#50E3C2"></path>
                    <g id="Group" transform="translate(122.312500, 14.717647)" fill="#4A90E2">
                        <path d="M54.9512577,10.9268669 C51.0791845,11.3626085 48.75757,9.45967569 47.2209619,8.2003574 C45.9051495,7.1218344 45.4354493,6.78648832 44.3249525,6.91146201 C43.2140484,7.03643571 42.8274521,7.46842812 41.7727654,8.8131451 C40.5408717,10.384481 38.6795879,12.7585647 34.8075146,13.1943063 C30.9358488,13.630048 28.6142343,11.7271151 27.0776262,10.4673803 C25.7622212,9.38927384 25.2933357,9.05392775 24.1828389,9.17890145 C23.0727496,9.30387515 22.6861533,9.7350344 21.6318739,11.0805845 C20.3999802,12.6519205 18.5391038,15.0255876 14.6674379,15.4617458 C10.7953647,15.8974874 8.4737502,13.9945546 6.93714207,12.7348197 C5.62173707,11.6562967 5.15285161,11.3213672 4.04276222,11.4459243 C2.23688103,11.6492149 0.611873121,10.3169952 0.413075463,8.47030059 C0.214277804,6.62360593 1.51705426,4.96187234 3.32293545,4.75858179 C7.19460133,4.32284017 9.51621579,6.225773 11.0528239,7.48550786 C12.3682289,8.56361428 12.8371144,8.89896037 13.9476111,8.77398667 C15.0577005,8.64901298 15.4442968,8.21785372 16.4985762,6.87230359 C17.7304699,5.30096764 19.5913463,2.92730056 23.4630122,2.49114236 C27.3350854,2.05540073 29.6566999,3.95875014 31.193308,5.21806842 C32.508713,6.29659142 32.9775985,6.63152093 34.0876879,6.50696381 C35.198592,6.38199012 35.5855956,5.9499977 36.6402824,4.60444757 C37.8721761,3.0335282 39.7330525,0.659861119 43.6055331,0.223702917 C47.4780138,-0.212038706 49.7996282,1.69089412 51.3362364,2.95062898 C52.6520487,4.02873541 53.1209342,4.36408149 54.2318383,4.2391078 C56.0377195,4.03581725 57.6627274,5.36803686 57.8615251,7.21473152 C58.0599154,9.06184275 56.7571389,10.7235763 54.9512577,10.9268669 Z" id="Path"></path>
                        <path d="M56.9310869,29.3192458 C53.0590136,29.7549875 50.7373991,27.8520546 49.200791,26.5927364 C47.8849786,25.5142134 47.4152784,25.1788673 46.3047817,25.303841 C45.1938776,25.4288147 44.8072813,25.8608071 43.7525945,27.2055241 C42.5207008,28.77686 40.659417,31.1509437 36.7873438,31.5866853 C32.9156779,32.0224269 30.5940634,30.1194941 29.0574553,28.8597592 C27.7420503,27.7816528 27.2731648,27.4463067 26.1626681,27.5712804 C25.0525787,27.6962541 24.6659824,28.1274134 23.6117031,29.4729635 C22.3798094,31.0442994 20.5189329,33.4179665 16.647267,33.8541247 C12.7751938,34.2898663 10.4535793,32.3869335 8.91697121,31.1271987 C7.60156621,30.0486757 7.13268075,29.7137462 6.02259136,29.8383033 C4.21671017,30.0415938 2.59170226,28.7093742 2.3929046,26.8626795 C2.19410695,25.0159849 3.4968834,23.3542513 5.30276459,23.1509608 C9.17443047,22.7152191 11.4960449,24.618152 13.0326531,25.8778868 C14.3480581,26.9559932 14.8169435,27.2913393 15.9274403,27.1663656 C17.0375297,27.0413919 17.4241259,26.6102327 18.4784053,25.2646825 C19.710299,23.6933466 21.5711754,21.3196795 25.4428413,20.8835213 C29.3149146,20.4477797 31.636529,22.3511291 33.1731372,23.6104474 C34.4885422,24.6889704 34.9574276,25.0238999 36.067517,24.8993428 C37.1784211,24.7743691 37.5654248,24.3423767 38.6201115,22.9968265 C39.8520052,21.4259072 41.7128817,19.0522401 45.5853623,18.6160819 C49.4578429,18.1803403 51.7794574,20.0832731 53.3160655,21.3430079 C54.6318779,22.4211144 55.1007633,22.7564604 56.2116675,22.6314868 C58.0175486,22.4281962 59.6425566,23.7604158 59.8413542,25.6071105 C60.0401519,27.4538051 58.7373754,29.1159553 56.9310869,29.3192458 Z" id="Path"></path>
                    </g>
                    <rect id="Rectangle" fill="#D8E0C9" x="110" y="104" width="81" height="5" rx="2.5"></rect>
                    <rect id="Rectangle" fill="#D8E0C9" x="153" y="91" width="38" height="5" rx="2.5"></rect>
                    <rect id="Rectangle" fill="#D8E0C9" x="110" y="119" width="81" height="5" rx="2.5"></rect>
                    <rect id="Rectangle" fill="#D8E0C9" x="15" y="104" width="81" height="5" rx="2.5"></rect>
                    <rect id="Rectangle" fill="#D8E0C9" x="15" y="119" width="81" height="5" rx="2.5"></rect>
                </g>
            </g>
            <g id="music" transform="translate(50.000000, 52.000000) rotate(-6.000000) translate(-50.000000, -52.000000) translate(19.000000, 21.000000)">
                <g id="XMLID_1308_" fill="#FFE780">
                    <g id="XMLID_1315_">
                        <g id="XMLID_1316_">
                            <g id="XMLID_1317_">
                                <g id="XMLID_1318_">
                                    <g id="XMLID_1319_">
                                        <g id="XMLID_1320_">
                                            <g id="XMLID_1321_">
                                                <g id="XMLID_1322_">
                                                    <g id="XMLID_1323_">
                                                        <g id="XMLID_1324_">
                                                            <g id="XMLID_1325_">
                                                                <g id="XMLID_1326_">
                                                                    <g id="XMLID_1327_">
                                                                        <g id="XMLID_1328_">
                                                                            <circle id="Oval" cx="31" cy="31" r="31"></circle>
                                                                        </g>
                                                                    </g>
                                                                </g>
                                                            </g>
                                                        </g>
                                                    </g>
                                                </g>
                                            </g>
                                        </g>
                                    </g>
                                </g>
                            </g>
                        </g>
                    </g>
                </g>
                <g id="Group" transform="translate(8.000000, 8.000000)">
                    <path d="M17.0470948,12.126 L11.484893,12.126 L11.484893,29.6839689 C9.82984709,29.5397853 7.97174312,29.8211073 6.15180428,30.5811384 C1.66470948,32.455161 -0.89088685,36.5289859 0.443792049,39.6802542 C1.77847095,42.8315226 6.49798165,43.8670452 10.9850765,41.9930226 C14.6444037,40.4647006 17.0182263,37.4735282 17.0458716,34.712661 L17.0469725,34.712661 L17.0470948,12.126 Z" id="Path" fill="#FC445F"></path>
                    <path d="M39.9184098,5.06914124 L34.356208,5.06914124 L34.356208,23.6356667 C32.7011621,23.4914831 30.8430581,23.7726836 29.0231193,24.5328362 C24.5360245,26.4068588 21.9804281,30.4806836 23.315107,33.631952 C24.6497859,36.7832203 29.3692966,37.8187429 33.8563914,35.9447203 C37.5157187,34.4163983 39.8895413,31.425226 39.9173089,28.6643588 L39.9184098,28.6643588 L39.9184098,5.06914124 Z" id="Path" fill="#E00F5A"></path>
                    <polygon id="Path" fill="#E00F5A" points="39.9184098 9.27220904 11.484893 16.3561554 11.484893 7.15330508 39.9184098 0.0693587571"></polygon>
                    <polygon id="Path" fill="#B70042" points="39.9180428 0.0692372881 39.9180428 9.27172316 22.9614679 13.4964124 22.9614679 4.29392655"></polygon>
                </g>
            </g>
        </g>
    </g>
</svg>