<?xml version="1.0" encoding="UTF-8"?>
<svg width="206px" height="139px" viewBox="0 0 206 139" version="1.1" xmlns="http://www.w3.org/2000/svg" xmlns:xlink="http://www.w3.org/1999/xlink">
    <!-- Generator: Sketch 52.4 (67378) - http://www.bohemiancoding.com/sketch -->
    <title>Postcard</title>
    <desc>Created with Sketch.</desc>
    <g id="Page-1" stroke="none" stroke-width="1" fill="none" fill-rule="evenodd">
        <g id="Backpack-NEW-Screen-Postcards" transform="translate(-77.000000, -192.000000)">
            <g id="Postcard" transform="translate(77.000000, 192.000000)">
                <g id="postcard-(1)">
                    <rect id="Rectangle" fill="#FFFBEB" x="0" y="0" width="206" height="139" rx="6"></rect>
                    <path d="M90.6695671,87.9816627 L20.1737406,95.9214863 C18.7901424,96.0774968 17.5450207,95.0562644 17.3929299,93.6406277 L9.3597361,18.9772337 C9.20725634,17.5615969 10.2057654,16.2876433 11.5889746,16.1320307 L82.0848012,8.19220722 C83.4683994,8.03619665 84.7135211,9.05782707 84.8656119,10.4730658 L92.8988056,85.1364598 C93.0512854,86.5520965 92.0531654,87.8260502 90.6695671,87.9816627 Z" id="Path" fill="#31A7AB"></path>
                    <path d="M190.499569,49.6053098 L161.448161,52.8841262 C160.014395,53.0461247 158.724126,51.9852826 158.56652,50.5157248 L154.515938,12.7907396 C154.35793,11.3207686 155.392644,9.99791871 156.826007,9.83633348 L185.877415,6.55751709 C187.311182,6.3955186 188.601451,7.45636076 188.759056,8.92591849 L192.809638,46.6509037 C192.967647,48.1204614 191.933335,49.4433114 190.499569,49.6053098 Z" id="Path" fill="#DD544C"></path>
                    <g id="Group" transform="translate(122.312500, 14.717647)" fill="#C63B38">
                        <path d="M54.9512577,10.9268669 C51.0791845,11.3626085 48.75757,9.45967569 47.2209619,8.2003574 C45.9051495,7.1218344 45.4354493,6.78648832 44.3249525,6.91146201 C43.2140484,7.03643571 42.8274521,7.46842812 41.7727654,8.8131451 C40.5408717,10.384481 38.6795879,12.7585647 34.8075146,13.1943063 C30.9358488,13.630048 28.6142343,11.7271151 27.0776262,10.4673803 C25.7622212,9.38927384 25.2933357,9.05392775 24.1828389,9.17890145 C23.0727496,9.30387515 22.6861533,9.7350344 21.6318739,11.0805845 C20.3999802,12.6519205 18.5391038,15.0255876 14.6674379,15.4617458 C10.7953647,15.8974874 8.4737502,13.9945546 6.93714207,12.7348197 C5.62173707,11.6562967 5.15285161,11.3213672 4.04276222,11.4459243 C2.23688103,11.6492149 0.611873121,10.3169952 0.413075463,8.47030059 C0.214277804,6.62360593 1.51705426,4.96187234 3.32293545,4.75858179 C7.19460133,4.32284017 9.51621579,6.225773 11.0528239,7.48550786 C12.3682289,8.56361428 12.8371144,8.89896037 13.9476111,8.77398667 C15.0577005,8.64901298 15.4442968,8.21785372 16.4985762,6.87230359 C17.7304699,5.30096764 19.5913463,2.92730056 23.4630122,2.49114236 C27.3350854,2.05540073 29.6566999,3.95875014 31.193308,5.21806842 C32.508713,6.29659142 32.9775985,6.63152093 34.0876879,6.50696381 C35.198592,6.38199012 35.5855956,5.9499977 36.6402824,4.60444757 C37.8721761,3.0335282 39.7330525,0.659861119 43.6055331,0.223702917 C47.4780138,-0.212038706 49.7996282,1.69089412 51.3362364,2.95062898 C52.6520487,4.02873541 53.1209342,4.36408149 54.2318383,4.2391078 C56.0377195,4.03581725 57.6627274,5.36803686 57.8615251,7.21473152 C58.0599154,9.06184275 56.7571389,10.7235763 54.9512577,10.9268669 Z" id="Path"></path>
                        <path d="M56.9310869,29.3192458 C53.0590136,29.7549875 50.7373991,27.8520546 49.200791,26.5927364 C47.8849786,25.5142134 47.4152784,25.1788673 46.3047817,25.303841 C45.1938776,25.4288147 44.8072813,25.8608071 43.7525945,27.2055241 C42.5207008,28.77686 40.659417,31.1509437 36.7873438,31.5866853 C32.9156779,32.0224269 30.5940634,30.1194941 29.0574553,28.8597592 C27.7420503,27.7816528 27.2731648,27.4463067 26.1626681,27.5712804 C25.0525787,27.6962541 24.6659824,28.1274134 23.6117031,29.4729635 C22.3798094,31.0442994 20.5189329,33.4179665 16.647267,33.8541247 C12.7751938,34.2898663 10.4535793,32.3869335 8.91697121,31.1271987 C7.60156621,30.0486757 7.13268075,29.7137462 6.02259136,29.8383033 C4.21671017,30.0415938 2.59170226,28.7093742 2.3929046,26.8626795 C2.19410695,25.0159849 3.4968834,23.3542513 5.30276459,23.1509608 C9.17443047,22.7152191 11.4960449,24.618152 13.0326531,25.8778868 C14.3480581,26.9559932 14.8169435,27.2913393 15.9274403,27.1663656 C17.0375297,27.0413919 17.4241259,26.6102327 18.4784053,25.2646825 C19.710299,23.6933466 21.5711754,21.3196795 25.4428413,20.8835213 C29.3149146,20.4477797 31.636529,22.3511291 33.1731372,23.6104474 C34.4885422,24.6889704 34.9574276,25.0238999 36.067517,24.8993428 C37.1784211,24.7743691 37.5654248,24.3423767 38.6201115,22.9968265 C39.8520052,21.4259072 41.7128817,19.0522401 45.5853623,18.6160819 C49.4578429,18.1803403 51.7794574,20.0832731 53.3160655,21.3430079 C54.6318779,22.4211144 55.1007633,22.7564604 56.2116675,22.6314868 C58.0175486,22.4281962 59.6425566,23.7604158 59.8413542,25.6071105 C60.0401519,27.4538051 58.7373754,29.1159553 56.9310869,29.3192458 Z" id="Path"></path>
                    </g>
                </g>
                <g id="bake" transform="translate(51.582057, 50.389046) rotate(-8.000000) translate(-51.582057, -50.389046) translate(21.082057, 18.889046)">
                    <path d="M45.5581253,37.8209855 L45.5581253,47.7725309 C45.5579709,50.7391932 43.2270338,53.1441083 40.3516296,53.1442676 L6.03221944,53.1442676 C3.15681753,53.1441025 0.825883723,50.7391908 0.825723719,47.7725309 L0.825723719,46.4954815 C0.825599215,31.5222231 3.93290216,16.7225014 9.93867973,3.09153414 L10.9921786,0.698705366 L35.5759374,0.698705366 C37.8684185,0.698657928 39.8772043,2.2819299 40.4799811,4.5639433 L41.9757207,10.2228195 C44.3533424,19.2170633 45.5580907,28.498216 45.5581253,37.8209855 Z" id="Path" fill="#EEDC9A"></path>
                    <path d="M42.042846,10.19475 L40.5240949,4.5358738 C39.993724,2.55905274 38.3790218,1.07703946 36.3897888,0.741306263 L36.3897888,0.670635868 L27.099213,0.670635868 L27.099213,9.06192583 L31.8242269,9.06192583 C27.3362925,21.0057337 25.0352656,33.6826519 25.0346407,46.467412 L25.0346407,47.7444614 C25.0346806,50.7111729 27.4015467,53.1161576 30.3212363,53.1161981 L40.3937688,53.1161981 C43.3134584,53.1161576 45.6803246,50.7111729 45.6803645,47.7444614 L45.6803645,37.792916 C45.6803294,28.4701465 44.4570465,19.1889938 42.042846,10.19475 Z" id="Path" fill="#E88604"></path>
                    <path d="M29.2761526,10.7086512 C29.2761526,12.3982695 30.6482206,13.7679757 32.3407523,13.7679757 L4.75935563,13.7679757 C3.06682399,13.7679757 1.694756,12.3982695 1.694756,10.7086512 L1.694756,6.62955196 C1.694756,3.81352155 3.98153598,1.53067786 6.80242204,1.53067786 L34.3838187,1.53067786 C31.5629326,1.53067786 29.2761526,3.81352155 29.2761526,6.62955196 L29.2761526,10.7086512 Z" id="Path" fill="#ECE9C0"></path>
                    <path d="M30.5527285,8.94792432 L35.7141595,8.94792432 L35.7141595,11.5702024 C35.7141595,13.0184466 34.5587338,14.1924805 33.133444,14.1924805 C31.7081542,14.1924805 30.5527285,13.0184466 30.5527285,11.5702024 L30.5527285,8.94792432 Z" id="Path" fill="#EEBE33"></path>
                    <path d="M12.1641284,34.1941206 C12.1641281,36.3398228 12.5341738,38.4668148 13.2553929,40.4666193 L16.70108,50.0208603 C18.2012562,54.1805665 21.9157553,56.9205307 26.0547863,56.9205309 L46.4468261,56.9205309 C50.5858571,56.9205307 54.3003561,54.1805665 55.8005324,50.0208603 L59.2462182,40.466622 C59.9674381,38.4668167 60.3374841,36.3398238 60.3374839,34.1941206 L12.1641284,34.1941206 Z" id="Path" fill="#379EC3"></path>
                    <path d="M59.9506932,35.7925783 C59.9506932,37.5919493 57.6085147,39.2327637 53.7596643,40.4727204 C49.3513004,41.8924967 42.9670763,42.7853199 35.8640154,42.7853199 C28.7609545,42.7853199 22.3767304,41.8924967 17.9683665,40.4727204 C14.1195161,39.2327637 11.7773376,37.5919493 11.7773376,35.7925783 C11.7773376,31.9303373 22.561144,28.7998367 35.8640154,28.7998367 C49.1668868,28.7998367 59.9506932,31.9303373 59.9506932,35.7925783 Z" id="Path" fill="#8ACCE7"></path>
                    <path d="M52.7179908,39.3603023 C52.7159803,39.6207557 52.657979,39.8770783 52.5486314,40.1087442 C48.1402675,41.6616245 41.7560434,42.6381499 34.6529825,42.6381499 C27.5499216,42.6381499 21.1656975,41.6616245 16.7573336,40.1087442 C16.647986,39.8770783 16.5899847,39.6207557 16.5879742,39.3603023 C16.5879742,36.3433044 24.675829,33.8972229 34.6529825,33.8972229 C44.6301361,33.8972229 52.7179908,36.3433044 52.7179908,39.3603023 Z" id="Path" fill="#EEDC9A"></path>
                    <path d="M48.5993546,25.1287253 L48.2678846,22.2127986 L47.6366289,22.2813452 L47.5912546,21.8821196 L46.9600522,21.9506649 L46.9146854,21.5514406 L45.3190078,21.7247193 L45.0091796,20.3617563 C38.9266769,21.6709636 33.7772797,25.6011163 31.002742,31.0518307 L28.0829413,36.7601541 L29.8984394,37.6474962 L32.8182414,31.9391728 C35.1133243,27.4304565 39.2224903,24.0572548 44.1622024,22.6269503 C40.7619282,24.9694636 37.6492593,28.5738078 35.4748403,32.7302961 L32.4863324,38.4031359 L34.290929,39.3115514 L37.2807284,33.6362289 C39.3643823,29.6532773 42.3476241,26.2299788 45.576998,24.0816949 C44.9039824,25.32543 44.1509419,26.6994897 43.3591939,28.1440243 C42.255016,30.1584988 41.1176344,32.2467673 39.9470489,34.4088297 L37.6459596,38.6520151 L39.4394061,39.5813812 L41.7419823,35.3353498 C42.9060621,33.1719761 44.0415235,31.0872197 45.1483663,29.0810805 C45.6740582,28.1220134 46.1821437,27.194903 46.6624067,26.3140617 C46.8687379,29.7131208 46.0914018,33.1002535 44.419453,36.0874167 L42.9942113,38.6416005 L44.7761348,39.5917958 L46.2013777,37.0375537 C48.2361973,33.4040522 49.0736678,29.2450078 48.5993546,25.1287253 Z" id="Path" fill="#C4D4E0"></path>
                    <path d="M44.5676642,19.2158977 L52.511875,5.93308206 C53.3450494,4.54000278 55.1217195,4.09399166 56.4918247,4.93396476 C57.1570896,5.34181871 57.6354053,6.00424416 57.8205096,6.77407737 C58.0056139,7.54391058 57.8821776,8.35739861 57.4776231,9.03381782 L49.5334174,22.3166309 C48.700243,23.7097101 46.9235729,24.1557213 45.5534677,23.3157482 C44.8882026,22.9078951 44.4098864,22.2454705 44.2247812,21.4756378 C44.039676,20.7058051 44.163111,19.8923173 44.5676642,19.2158977 Z" id="Path" fill="#A6B2BC"></path>
                    <path d="M38.40245,53.6370256 L47.1747345,52.9398395 C48.0140131,52.8731367 48.8466726,53.1181752 49.4689703,53.6149969 C50.0912679,54.1118185 50.44579,54.8145861 50.4457888,55.55134 C50.4457892,56.2880935 50.0912668,56.9908604 49.4689692,57.4876815 C48.8466717,57.9845026 48.0140127,58.2295409 47.1747345,58.1628381 L38.40245,57.4656544 L38.40245,53.6370256 Z" id="Path" fill="#966342"></path>
                    <rect id="Rectangle" fill="#723024" x="3.70657303" y="50.0970798" width="41.2914476" height="12.2372979" rx="6.11864893"></rect>
                    <ellipse id="Oval" fill="#984E3C" cx="11.3348521" cy="56.122148" rx="6.02166944" ry="6.11864893"></ellipse>
                    <path d="M10.0646175,57.4798737 L3.47303669,58.0037462 C2.63375806,58.070449 1.8010986,57.8254105 1.17880096,57.3285888 C0.55650331,56.8317672 0.201981224,56.1289996 0.201982367,55.3922457 C0.201981993,54.6554922 0.556504413,53.9527253 1.17880197,53.4559042 C1.80109952,52.959083 2.63375854,52.7140448 3.47303669,52.7807476 L10.0646175,53.30462 C11.2996687,53.4027763 12.2453214,54.3080661 12.2453213,55.3922457 C12.2453228,56.4764262 11.2996698,57.3817174 10.0646175,57.4798737 Z" id="Path" fill="#AD7D4D"></path>
                </g>
                <rect id="Rectangle" fill="#D8E0C9" x="110" y="104" width="81" height="5" rx="2.5"></rect>
                <rect id="Rectangle" fill="#D8E0C9" x="153" y="91" width="38" height="5" rx="2.5"></rect>
                <rect id="Rectangle" fill="#D8E0C9" x="110" y="119" width="81" height="5" rx="2.5"></rect>
                <rect id="Rectangle" fill="#D8E0C9" x="15" y="104" width="81" height="5" rx="2.5"></rect>
                <rect id="Rectangle" fill="#D8E0C9" x="15" y="119" width="81" height="5" rx="2.5"></rect>
            </g>
        </g>
    </g>
</svg>