<?xml version="1.0" encoding="UTF-8"?>
<svg width="206px" height="139px" viewBox="0 0 206 139" version="1.1" xmlns="http://www.w3.org/2000/svg" xmlns:xlink="http://www.w3.org/1999/xlink">
    <!-- Generator: Sketch 52.4 (67378) - http://www.bohemiancoding.com/sketch -->
    <title>Postcard</title>
    <desc>Created with Sketch.</desc>
    <g id="Page-1" stroke="none" stroke-width="1" fill="none" fill-rule="evenodd">
        <g id="Postcard">
            <g id="postcard-(1)">
                <rect id="Rectangle" fill="#FFFBEB" x="0" y="0" width="206" height="139" rx="6"></rect>
                <path d="M90.6695671,87.9816627 L20.1737406,95.9214863 C18.7901424,96.0774968 17.5450207,95.0562644 17.3929299,93.6406277 L9.3597361,18.9772337 C9.20725634,17.5615969 10.2057654,16.2876433 11.5889746,16.1320307 L82.0848012,8.19220722 C83.4683994,8.03619665 84.7135211,9.05782707 84.8656119,10.4730658 L92.8988056,85.1364598 C93.0512854,86.5520965 92.0531654,87.8260502 90.6695671,87.9816627 Z" id="Path" fill="#88B55B"></path>
                <path d="M190.499569,49.6053098 L161.448161,52.8841262 C160.014395,53.0461247 158.724126,51.9852826 158.56652,50.5157248 L154.515938,12.7907396 C154.35793,11.3207686 155.392644,9.99791871 156.826007,9.83633348 L185.877415,6.55751709 C187.311182,6.3955186 188.601451,7.45636076 188.759056,8.92591849 L192.809638,46.6509037 C192.967647,48.1204614 191.933335,49.4433114 190.499569,49.6053098 Z" id="Path" fill="#E15522"></path>
                <g id="Group" transform="translate(122.312500, 14.717647)" fill="#F5A623">
                    <path d="M54.9512577,10.9268669 C51.0791845,11.3626085 48.75757,9.45967569 47.2209619,8.2003574 C45.9051495,7.1218344 45.4354493,6.78648832 44.3249525,6.91146201 C43.2140484,7.03643571 42.8274521,7.46842812 41.7727654,8.8131451 C40.5408717,10.384481 38.6795879,12.7585647 34.8075146,13.1943063 C30.9358488,13.630048 28.6142343,11.7271151 27.0776262,10.4673803 C25.7622212,9.38927384 25.2933357,9.05392775 24.1828389,9.17890145 C23.0727496,9.30387515 22.6861533,9.7350344 21.6318739,11.0805845 C20.3999802,12.6519205 18.5391038,15.0255876 14.6674379,15.4617458 C10.7953647,15.8974874 8.4737502,13.9945546 6.93714207,12.7348197 C5.62173707,11.6562967 5.15285161,11.3213672 4.04276222,11.4459243 C2.23688103,11.6492149 0.611873121,10.3169952 0.413075463,8.47030059 C0.214277804,6.62360593 1.51705426,4.96187234 3.32293545,4.75858179 C7.19460133,4.32284017 9.51621579,6.225773 11.0528239,7.48550786 C12.3682289,8.56361428 12.8371144,8.89896037 13.9476111,8.77398667 C15.0577005,8.64901298 15.4442968,8.21785372 16.4985762,6.87230359 C17.7304699,5.30096764 19.5913463,2.92730056 23.4630122,2.49114236 C27.3350854,2.05540073 29.6566999,3.95875014 31.193308,5.21806842 C32.508713,6.29659142 32.9775985,6.63152093 34.0876879,6.50696381 C35.198592,6.38199012 35.5855956,5.9499977 36.6402824,4.60444757 C37.8721761,3.0335282 39.7330525,0.659861119 43.6055331,0.223702917 C47.4780138,-0.212038706 49.7996282,1.69089412 51.3362364,2.95062898 C52.6520487,4.02873541 53.1209342,4.36408149 54.2318383,4.2391078 C56.0377195,4.03581725 57.6627274,5.36803686 57.8615251,7.21473152 C58.0599154,9.06184275 56.7571389,10.7235763 54.9512577,10.9268669 Z" id="Path"></path>
                    <path d="M56.9310869,29.3192458 C53.0590136,29.7549875 50.7373991,27.8520546 49.200791,26.5927364 C47.8849786,25.5142134 47.4152784,25.1788673 46.3047817,25.303841 C45.1938776,25.4288147 44.8072813,25.8608071 43.7525945,27.2055241 C42.5207008,28.77686 40.659417,31.1509437 36.7873438,31.5866853 C32.9156779,32.0224269 30.5940634,30.1194941 29.0574553,28.8597592 C27.7420503,27.7816528 27.2731648,27.4463067 26.1626681,27.5712804 C25.0525787,27.6962541 24.6659824,28.1274134 23.6117031,29.4729635 C22.3798094,31.0442994 20.5189329,33.4179665 16.647267,33.8541247 C12.7751938,34.2898663 10.4535793,32.3869335 8.91697121,31.1271987 C7.60156621,30.0486757 7.13268075,29.7137462 6.02259136,29.8383033 C4.21671017,30.0415938 2.59170226,28.7093742 2.3929046,26.8626795 C2.19410695,25.0159849 3.4968834,23.3542513 5.30276459,23.1509608 C9.17443047,22.7152191 11.4960449,24.618152 13.0326531,25.8778868 C14.3480581,26.9559932 14.8169435,27.2913393 15.9274403,27.1663656 C17.0375297,27.0413919 17.4241259,26.6102327 18.4784053,25.2646825 C19.710299,23.6933466 21.5711754,21.3196795 25.4428413,20.8835213 C29.3149146,20.4477797 31.636529,22.3511291 33.1731372,23.6104474 C34.4885422,24.6889704 34.9574276,25.0238999 36.067517,24.8993428 C37.1784211,24.7743691 37.5654248,24.3423767 38.6201115,22.9968265 C39.8520052,21.4259072 41.7128817,19.0522401 45.5853623,18.6160819 C49.4578429,18.1803403 51.7794574,20.0832731 53.3160655,21.3430079 C54.6318779,22.4211144 55.1007633,22.7564604 56.2116675,22.6314868 C58.0175486,22.4281962 59.6425566,23.7604158 59.8413542,25.6071105 C60.0401519,27.4538051 58.7373754,29.1159553 56.9310869,29.3192458 Z" id="Path"></path>
                </g>
                <rect id="Rectangle" fill="#D8E0C9" x="110" y="104" width="81" height="5" rx="2.5"></rect>
                <rect id="Rectangle" fill="#D8E0C9" x="153" y="91" width="38" height="5" rx="2.5"></rect>
                <rect id="Rectangle" fill="#D8E0C9" x="110" y="119" width="81" height="5" rx="2.5"></rect>
                <rect id="Rectangle" fill="#D8E0C9" x="15" y="104" width="81" height="5" rx="2.5"></rect>
                <rect id="Rectangle" fill="#D8E0C9" x="15" y="119" width="81" height="5" rx="2.5"></rect>
                <g id="idea" transform="translate(49.814718, 52.479728) rotate(-8.000000) translate(-49.814718, -52.479728) translate(19.814718, 23.979728)">
                    <path d="M49.5351192,16.9245017 C49.5351192,12.9769639 46.5791486,9.67260981 42.5931192,8.75431792 C42.1684781,5.63610981 39.2790369,3.221799 35.7704134,3.221799 C33.3752398,3.221799 31.2677486,4.34731792 30.0351192,6.05298819 C28.8024898,4.34731792 26.6949986,3.221799 24.2998251,3.221799 C20.7912016,3.221799 17.9017604,5.63610981 17.4771192,8.75431792 C13.4910898,9.67260981 10.5351192,12.9769639 10.5351192,16.9245017 C10.5351192,19.1726936 11.4986486,21.2100747 13.0593369,22.721799 C11.4986486,24.2335233 10.5351192,26.2709044 10.5351192,28.5190963 C10.5351192,32.4666341 13.4910898,35.7709882 17.4771192,36.6892801 C17.9017604,39.8074882 20.7912016,42.221799 24.2998251,42.221799 L35.7704134,42.221799 C39.2790369,42.221799 42.1684781,39.8074882 42.5931192,36.6892801 C46.5791486,35.7709882 49.5351192,32.4666341 49.5351192,28.5190963 C49.5351192,26.2709044 48.5715898,24.2335233 47.0109016,22.721799 C48.5715898,21.2100747 49.5351192,19.1726936 49.5351192,16.9245017 Z" id="Path" fill="#FFDE55"></path>
                    <path d="M36.1731019,42.2725617 C39.5917608,42.2725617 42.4071137,39.8582509 42.8208667,36.7400428 C46.7046902,35.8217509 49.5848667,32.5173969 49.5848667,28.569859 C49.5848667,26.3216671 48.6460431,24.2842861 47.1253725,22.7725617 C48.6460431,21.2608374 49.5848667,19.2234563 49.5848667,16.9752644 C49.5848667,13.0277266 46.7046902,9.72337255 42.8208667,8.80508066 C42.4071137,5.68687255 39.5917608,3.27256174 36.1731019,3.27256174 C33.8393431,3.27256174 31.7858902,4.39808066 30.5848667,6.10375093 L30.5848667,42.2725617 L36.1731019,42.2725617 Z" id="Path" fill="#FFCD00"></path>
                    <path d="M31.5755295,56.4287836 L29.3937113,56.4287836 C26.682475,56.4287836 24.4846204,54.2175275 24.4846204,51.4897592 L24.4846204,49.0751251 C24.4846204,48.1659055 25.217275,47.4287836 26.1209841,47.4287836 L34.8482568,47.4287836 C35.7519659,47.4287836 36.4846204,48.1659055 36.4846204,49.0751251 L36.4846204,51.4897592 C36.4846204,54.2175275 34.2867659,56.4287836 31.5755295,56.4287836 Z" id="Path" fill="#5F55AF"></path>
                    <path d="M36.4709252,51.7510804 L36.4709252,49.3364462 C36.4709252,48.4272267 35.6161615,47.6901047 34.5618343,47.6901047 L29.4709252,47.6901047 L29.4709252,56.6901047 L30.7436524,56.6901047 C33.9067615,56.6901047 36.4709252,54.4788487 36.4709252,51.7510804 Z" id="Path" fill="#453D83"></path>
                    <path d="M20.9082124,44.3461675 L20.9082124,47.5363772 C20.9082124,49.64047 22.7886124,51.3461675 25.1082124,51.3461675 L34.7082124,51.3461675 C37.0278124,51.3461675 38.9082124,49.64047 38.9082124,47.5363772 L38.9082124,44.3462764 L20.9082124,44.3461675 Z" id="Path" fill="#BEEBFA"></path>
                    <path d="M38.9880894,47.0121741 L38.9880894,43.8220237 L29.9880894,43.8220237 L29.9880894,50.8220237 L34.7880894,50.8220237 C37.1076894,50.8220237 38.9880894,49.1162996 38.9880894,47.0121741 Z" id="Path" fill="#9EE2F8"></path>
                    <path d="M51.5846444,16.2268023 C51.5846444,11.7922623 48.7159309,7.89738229 44.4853958,6.41348229 C43.5136066,2.84794229 40.1571255,0.276802287 36.2603201,0.276802287 C34.1369363,0.276802287 32.1271795,1.03877229 30.5846444,2.37846229 C29.0421093,1.03877229 27.0323525,0.276802287 24.9089687,0.276802287 C21.0122768,0.276802287 17.6557958,2.84794229 16.6838931,6.41348229 C12.4533579,7.89749229 9.58464441,11.7922623 9.58464441,16.2268023 C9.58464441,18.4142623 10.2859309,20.5159223 11.5832768,22.2768023 C10.2859309,24.0376823 9.58464441,26.1393423 9.58464441,28.3268023 C9.58464441,32.7613423 12.4533579,36.6561123 16.6838931,38.1401223 C17.6557958,41.7056623 21.0122768,44.2768023 24.9089687,44.2768023 L36.2603201,44.2768023 C40.1571255,44.2768023 43.5136066,41.7056623 44.4853958,38.1401223 C48.7159309,36.6562223 51.5846444,32.7613423 51.5846444,28.3268023 C51.5846444,26.1393423 50.8833579,24.0376823 49.586012,22.2768023 C50.8833579,20.5159223 51.5846444,18.4142623 51.5846444,16.2268023 Z M24.9089687,40.9768023 C22.3417471,40.9768023 20.1653525,39.1159323 19.8467201,36.6480823 C19.8467201,36.6479723 19.8467201,36.6477523 19.8466066,36.6476423 L19.8467201,36.6476423 C19.6551093,35.1645123 20.1557039,33.6319923 21.2969687,32.5259423 C21.9619309,31.8816723 21.9619309,30.8368923 21.2969687,30.1925123 C20.6321201,29.5482423 19.5539687,29.5482423 18.8890066,30.1925123 C17.6599958,31.3833723 16.8732336,32.8715623 16.5563039,34.4425823 C14.3847904,33.1771423 12.9900498,30.8832023 12.9900498,28.3268023 C12.9900498,26.4953023 13.7112012,24.7499323 15.0205795,23.4123323 C15.6437687,22.7757623 15.6437687,21.7778423 15.0205795,21.1412723 C13.7112012,19.8036723 12.9900498,18.0583023 12.9900498,16.2268023 C12.9900498,13.6704023 14.3847904,11.3764623 16.5563039,10.1109123 C16.8783417,11.7008523 17.6789525,13.1878323 18.8891201,14.3604323 C19.2216012,14.6826223 19.6573795,14.8437723 20.0930444,14.8437723 C20.5287093,14.8437723 20.9646012,14.6826223 21.2969687,14.3604323 C21.9619309,13.7161623 21.9619309,12.6713823 21.2969687,12.0270023 C20.1811309,10.9457023 19.6510228,9.41846229 19.8466066,7.90563229 L19.8466066,7.90552229 C20.1653525,5.43767229 22.3417471,3.57680229 24.9089687,3.57680229 C26.4633093,3.57680229 27.9150336,4.26001229 28.8819417,5.42216229 L28.8819417,26.4560323 C26.9001093,25.9262723 25.4765363,24.4997923 25.4765363,22.8268023 C25.4765363,21.9155623 24.7141795,21.1768023 23.7738336,21.1768023 C22.8334877,21.1768023 22.0711309,21.9155623 22.0711309,22.8268023 C22.0711309,26.2797023 25.0006877,29.1686323 28.8819417,29.8329223 L28.8819417,40.9768023 L24.9089687,40.9768023 Z M46.1487093,23.4123323 C47.4580877,24.7499323 48.179239,26.4953023 48.179239,28.3268023 C48.179239,30.8832023 46.7844985,33.1771423 44.612985,34.4426923 C44.2960552,32.8716723 43.5092931,31.3834823 42.2802823,30.1926223 C41.6154336,29.5483523 40.5372823,29.5483523 39.8723201,30.1926223 C39.2073579,30.8368923 39.2073579,31.8816723 39.8723201,32.5260523 C41.0136985,33.6321023 41.5141795,35.1646223 41.3225687,36.6477523 C41.0039363,39.1153823 38.8276552,40.9768023 36.2603201,40.9768023 L32.2873471,40.9768023 L32.2873471,18.0975723 C34.2691795,18.6273323 35.6927525,20.0538123 35.6927525,21.7268023 C35.6927525,22.6380423 36.4551093,23.3768023 37.3954552,23.3768023 C38.3358012,23.3768023 39.0981579,22.6380423 39.0981579,21.7268023 C39.0981579,18.2739023 36.1686012,15.3849723 32.2873471,14.7206823 L32.2873471,5.42216229 C33.2542552,4.26001229 34.7059795,3.57680229 36.2603201,3.57680229 C38.8276552,3.57680229 41.0039363,5.43767229 41.3225687,7.90541229 C41.5183795,9.41835229 40.9881579,10.9457023 39.8723201,12.0271123 C39.2073579,12.6713823 39.2073579,13.7161623 39.8723201,14.3605423 C40.2048012,14.6827323 40.6405795,14.8438823 41.0762444,14.8438823 C41.5119093,14.8438823 41.9478012,14.6827323 42.2801687,14.3605423 C43.4902228,13.1879423 44.2909471,11.7009623 44.612985,10.1110223 C46.7844985,11.3764623 48.179239,13.6704023 48.179239,16.2268023 C48.179239,18.0583023 47.4580877,19.8036723 46.1487093,21.1412723 C45.5255201,21.7778423 45.5255201,22.7757623 46.1487093,23.4123323 Z" id="Shape" fill="#FFF79F" fill-rule="nonzero"></path>
                    <path d="M36.2028,45.3743512 C40.0996054,45.3743512 43.4560865,42.8032112 44.4278757,39.2376712 C48.6584108,37.7537712 51.5271243,33.8588912 51.5271243,29.4243512 C51.5271243,27.2368912 50.8258378,25.1352312 49.5284919,23.3743512 C50.8258378,21.6134712 51.5271243,19.5118112 51.5271243,17.3243512 C51.5271243,12.8898112 48.6584108,8.99493115 44.4278757,7.51103115 C43.4560865,3.94549115 40.0996054,1.37435115 36.2028,1.37435115 C34.0794162,1.37435115 32.0696594,2.13632115 30.5271243,3.47601115 L30.5271243,45.3743512 L36.2028,45.3743512 Z M32.229827,19.1951212 C34.2116594,19.7248812 35.6352324,21.1513612 35.6352324,22.8243512 C35.6352324,23.7355912 36.3975892,24.4743512 37.3379351,24.4743512 C38.2782811,24.4743512 39.0406378,23.7355912 39.0406378,22.8243512 C39.0406378,19.3714512 36.1110811,16.4825212 32.229827,15.8182312 L32.229827,6.51971115 C33.1967351,5.35756115 34.6484594,4.67435115 36.2028,4.67435115 C38.7701351,4.67435115 40.9464162,6.53522115 41.2650486,9.00296115 C41.4608594,10.5159012 40.9306378,12.0432512 39.8148,13.1246612 C39.1498378,13.7689312 39.1498378,14.8137112 39.8148,15.4580912 C40.1472811,15.7802812 40.5830594,15.9414312 41.0187243,15.9414312 C41.4543892,15.9414312 41.8902811,15.7802812 42.2226486,15.4580912 C43.4327027,14.2854912 44.233427,12.7985112 44.5554649,11.2085712 C46.7269784,12.4740112 48.1217189,14.7679512 48.1217189,17.3243512 C48.1217189,19.1558512 47.4005676,20.9012212 46.0911892,22.2388212 C45.468,22.8753912 45.468,23.8733112 46.0911892,24.5098812 C47.4005676,25.8474812 48.1217189,27.5928512 48.1217189,29.4243512 C48.1217189,31.9807512 46.7269784,34.2746912 44.5554649,35.5402412 C44.2385351,33.9692212 43.451773,32.4810312 42.2227622,31.2901712 C41.5579135,30.6459012 40.4797622,30.6459012 39.8148,31.2901712 C39.1498378,31.9344412 39.1498378,32.9792212 39.8148,33.6236012 C40.9561784,34.7296512 41.4566594,36.2621712 41.2650486,37.7453012 C40.9464162,40.2129312 38.7701351,42.0743512 36.2028,42.0743512 L32.229827,42.0743512 L32.229827,19.1951212 Z" id="Shape" fill="#FFDE55" fill-rule="nonzero"></path>
                    <g id="Group" transform="translate(52.810802, 4.961451)" fill="#FFDE55">
                        <path d="M1.83744262,5.57306623 C1.28122951,5.57306623 0.735344262,5.31671523 0.403590164,4.84291391 C-0.123704918,4.0897053 0.0900819672,3.0720596 0.881081967,2.56995695 L4.32370492,0.38452649 C5.11459016,-0.117794702 6.18340984,0.0858874172 6.71070492,0.839096026 C7.238,1.59230464 7.02421311,2.60995033 6.23321311,3.11205298 L2.79059016,5.29748344 C2.49727869,5.48390066 2.16552459,5.57306623 1.83744262,5.57306623 Z" id="Path"></path>
                        <path d="M5.27696721,32.890947 C4.94888525,32.890947 4.61713115,32.8017815 4.32370492,32.6154735 L0.881081967,30.430043 C0.0900819672,29.9279404 -0.123704918,28.9102947 0.403590164,28.1570861 C0.931,27.4037682 1.99981967,27.2004139 2.79059016,27.7025166 L6.23321311,29.887947 C7.02421311,30.3900497 7.238,31.4076954 6.71070492,32.160904 C6.37906557,32.634596 5.83306557,32.890947 5.27696721,32.890947 Z" id="Path"></path>
                    </g>
                    <g id="Group" transform="translate(0.468493, 5.493103)" fill="#FFF79F">
                        <path d="M5.16255738,5.57306623 C4.83447541,5.57306623 4.50272131,5.48390066 4.20929508,5.29759272 L0.766672131,3.11216225 C-0.0243278689,2.6100596 -0.238114754,1.59241391 0.289180328,0.839205298 C0.816590164,0.0858874172 1.88540984,-0.117576159 2.67618033,0.384635762 L6.11880328,2.57006623 C6.90980328,3.07216887 7.12359016,4.08981457 6.59629508,4.84302318 C6.26465574,5.31671523 5.71877049,5.57306623 5.16255738,5.57306623 Z" id="Path"></path>
                        <path d="M1.72303279,32.890947 C1.16681967,32.890947 0.620934426,32.634596 0.289180328,32.1607947 C-0.238114754,31.4075861 -0.0243278689,30.3899404 0.766672131,29.8878377 L4.20929508,27.7024073 C5.00018033,27.2000861 6.069,27.4037682 6.59629508,28.1569768 C7.12359016,28.9101854 6.90980328,29.9278311 6.11880328,30.4299338 L2.67618033,32.6153642 C2.38286885,32.8017815 2.05111475,32.890947 1.72303279,32.890947 Z" id="Path"></path>
                    </g>
                    <path d="M5.77075726,23.4958418 L2.27075726,23.4958418 C1.30429059,23.4958418 0.52075726,22.6003751 0.52075726,21.4958418 C0.52075726,20.3913085 1.30429059,19.4958418 2.27075726,19.4958418 L5.77075726,19.4958418 C6.73722393,19.4958418 7.52075726,20.3913085 7.52075726,21.4958418 C7.52075726,22.6003751 6.73722393,23.4958418 5.77075726,23.4958418 Z" id="Path" fill="#FFF79F"></path>
                    <path d="M58.0085381,23.9587124 L54.5085381,23.9587124 C53.5420715,23.9587124 52.7585381,23.0632457 52.7585381,21.9587124 C52.7585381,20.8541791 53.5420715,19.9587124 54.5085381,19.9587124 L58.0085381,19.9587124 C58.9750048,19.9587124 59.7585381,20.8541791 59.7585381,21.9587124 C59.7585381,23.0632457 58.9750048,23.9587124 58.0085381,23.9587124 Z" id="Path" fill="#FFDE55"></path>
                </g>
            </g>
        </g>
    </g>
</svg>