<svg height="512" viewBox="0 0 128 128" width="512" xmlns="http://www.w3.org/2000/svg"><g><path d="m106.434 37.742h-85.634a4.741 4.741 0 0 0 -4.74 4.741v53.9a4.74 4.74 0 0 0 4.74 4.74h86.4a4.74 4.74 0 0 0 4.74-4.74v-53.134a5.507 5.507 0 0 0 -5.506-5.507z" fill="#bfcddb"/><path d="m50.02 84.113a4.553 4.553 0 1 1 -4.553-4.553 4.552 4.552 0 0 1 4.553 4.553z" fill="#fd5c70"/><path d="m65.474 26.879h-26.22l-6.547 10.863h39.314z" fill="#899bb0"/><circle cx="64" cy="69.432" fill="#899bb0" r="22.702" transform="matrix(.897 -.443 .443 .897 -24.12 35.496)"/><circle cx="64" cy="69.432" fill="#2fcffc" r="15"/><path d="m100.729 85.538h-1.929a4.086 4.086 0 0 0 0 8.171h1.931a4.086 4.086 0 0 0 0-8.171z" fill="#938ed9"/><path d="m95.527 31.379a5.7 5.7 0 0 0 -5.7 5.7v.667h11.393v-.667a5.7 5.7 0 0 0 -5.693-5.7z" fill="#423e4f"/><path d="m30.248 48.886a3.433 3.433 0 1 1 -3.433-3.433 3.433 3.433 0 0 1 3.433 3.433z" fill="#fff5eb"/><path d="m22.562 57.325h-6.5v34.809h6.5a4.253 4.253 0 0 0 4.253-4.253v-26.3a4.254 4.254 0 0 0 -4.253-4.256z" fill="#938ed9"/></g><path d="m106.434 35.992h-3.548a7.437 7.437 0 0 0 -14.718 0h-15.158l-6.037-10.016a1.752 1.752 0 0 0 -1.5-.847h-26.219a1.749 1.749 0 0 0 -1.5.847l-6.036 10.016h-10.918a6.5 6.5 0 0 0 -6.49 6.49v53.9a6.5 6.5 0 0 0 6.49 6.49h72.115a1.75 1.75 0 0 0 0-3.5h-72.115a2.994 2.994 0 0 1 -2.99-2.99v-2.5h4.752a6.011 6.011 0 0 0 6-6 1.75 1.75 0 0 0 -3.5 0 2.506 2.506 0 0 1 -2.5 2.5h-4.752v-31.307h4.752a2.506 2.506 0 0 1 2.5 2.5v11.382a1.75 1.75 0 0 0 3.5 0v-11.378a6.011 6.011 0 0 0 -6-6h-4.752v-13.097a2.994 2.994 0 0 1 2.99-2.99h85.634a3.761 3.761 0 0 1 3.756 3.757v53.132a2.994 2.994 0 0 1 -2.99 2.99 1.75 1.75 0 0 0 0 3.5 6.5 6.5 0 0 0 6.49-6.49v-53.132a7.265 7.265 0 0 0 -7.256-7.257zm-70.629 0 4.437-7.363h24.243l4.439 7.363zm55.926 0a3.947 3.947 0 0 1 7.591 0zm10.469 65.129a1.749 1.749 0 0 1 -1.75 1.75h-.862a1.75 1.75 0 0 1 0-3.5h.862a1.749 1.749 0 0 1 1.75 1.75zm-63.035-17.009a6.289 6.289 0 0 0 10.227 4.917 24.454 24.454 0 1 0 -7.818-9.864 6.235 6.235 0 0 0 -2.409 4.947zm24.835-35.633a20.953 20.953 0 1 1 -20.952 20.953 20.977 20.977 0 0 1 20.952-20.953zm-17.354 38.16a2.777 2.777 0 0 1 -1.179.276 2.805 2.805 0 0 1 -2.8-2.8 2.76 2.76 0 0 1 .609-1.727 24.607 24.607 0 0 0 3.37 4.251zm23.076-31.185a1.749 1.749 0 0 1 2.378-.686q.44.243.86.509a1.75 1.75 0 1 1 -1.875 2.955c-.221-.139-.446-.273-.677-.4a1.751 1.751 0 0 1 -.686-2.378zm-22.472 13.978a16.768 16.768 0 0 1 16.75-16.75 1.75 1.75 0 0 1 0 3.5 13.25 13.25 0 1 0 13.25 13.25 13.1 13.1 0 0 0 -1.457-6.047 1.75 1.75 0 1 1 3.113-1.6 16.751 16.751 0 1 1 -31.656 7.647zm53.479 14.356h-1.929a5.836 5.836 0 0 0 0 11.671h1.931a5.836 5.836 0 0 0 0-11.671zm0 8.171h-1.929a2.336 2.336 0 0 1 0-4.671h1.931a2.336 2.336 0 0 1 0 4.671zm-6.016-41.323a1.75 1.75 0 0 1 0-3.5h10.1a1.75 1.75 0 0 1 0 3.5zm-66.213-1.75a1.685 1.685 0 0 0 -1.685-1.686 1.75 1.75 0 1 1 0-3.5 5.183 5.183 0 1 1 -5.182 5.183 1.75 1.75 0 0 1 3.5 0 1.683 1.683 0 0 0 3.365 0zm.067 30.986v.841a1.75 1.75 0 0 1 -3.5 0v-.841a1.75 1.75 0 0 1 3.5 0z" fill="#211f1b"/></svg>