<svg height="512" viewBox="0 0 43 58" width="512" xmlns="http://www.w3.org/2000/svg"><g id="Page-1" fill="none" fill-rule="evenodd"><g id="030---Mermaid" fill-rule="nonzero" transform="translate(0 -1)"><path id="Shape" d="m19.91 7.44c-4.59-5.59-13.91-6.44-13.91-6.44l.01.01-.01-.01s4 5 5 9c-2.3548573.1743212-4.5536495 1.2434816-6.145 2.988-.57105966.6106356-1.45952006.805906-2.234.491-.94881128-.346041-1.83428394-.845703-2.621-1.479 0 0 .877 6 5 6 7 0 11.5-4 14.5 0z" fill="#802f34"/><path id="Shape" d="m19.2 15.66.3 2.34c-3-4-7.5 0-14.5 0-4.12 0-5-6-5-6 .78594173.6341455 1.67117542 1.1342012 2.62 1.48.77645471.3120301 1.66474012.1177177 2.24-.49 1.58892412-1.745277 3.7862467-2.8153087 6.14-2.99 3.7978188-.56913481 7.3853934 1.9071667 8.2 5.66z" fill="#cc4b4c"/><path id="Shape" d="m38.96 17.99v-.01c.1073386-1.6572707.3991416-3.2974046.87-4.89.95-2.97 2.87-5.93 1.91-8.89-.992-3.063-.961-5.079-6.255-.552 0 0-2.485 7.185-2.541 11.908 0 0 2.723 3.222 5.778 3.444z" fill="#f9c795"/><path id="Shape" d="m42 46c-2 8-7 13-18 13-5.19 0-10.81-1.26-14.11-5.71l20.63-6.89-.26-1.79-.42-2.83c-1.7226935-2.1899439-2.0704646-5.161455-.9-7.69l.01-.01c.4951865-1.1581019 1.1889562-2.220754 2.05-3.14 3-3.01 0-4.02-2-7.04s-1-4.02-6-7.03-6-2.69-6-5.87c.0018941-.1650445.0220162-.3293746.06-.49.65-3.24 4.68-3.87 7.99-3.6l3.26 2.56 5.52 4.34c.07.11.14.22.22.33 1.2151855 1.7428213 2.9257135 3.0805865 4.91 3.84v.01c.014096-.0014964.0282665.0020463.04.01 5 2 1 5 2 10 .4973153 2.3068345.4973153 4.6931655 0 7 0 0 3 3 1 11z" fill="#fdd7ad"/><path id="Shape" d="m1 49c-1-2 0-6 6-7l17 .88c.3862323 1.4334203.0627927 2.9651117-.87 4.12l-18.186 2.963z" fill="#f18d46"/><path id="Shape" d="m39.56 34.82-3.36-.42c-2.822-.389-5.423-2.147-7.26-.31-1.1704646 2.528545-.8226935 5.5000561.9 7.69-.781 3.446-2.522 5.22-6.84 5.22-2.56 0-4.14-.92-5-2.35l-.71-6.42c.5858594-3.2998962 1.8490762-6.4426161 3.71-9.23 2.3827672-3.3041032 3.4260462-7.3878972 2.92-11.43-.316-.369-.093-.184-.92-.7-1.96-1.18-3.31-1.85-4.22-2.42.607856 2.8634646.335966 5.8437963-.78 8.55-1.0414236 2.1788476-2.5506051 4.1011761-4.42 5.63l-5.22 6.62c-1.537 3.586-1.66 8.66-.94 12.26l2.47 5.78c3.3 4.45 8.92 5.71 14.11 5.71 11 0 16-5 18-13 .956-3.825 1.466-10.683-2.44-11.18z" fill="#cc4b4c"/><path id="Shape" d="m36.037 26.393c-.3546137-.0019265-.7053443-.0739758-1.032-.212-1.2512526-.5559934-2.0431159-1.8123112-2.005-3.181.0335534-.3501208-.031206-.7026611-.187-1.018-.5059061-.0973027-.8550985-.5630331-.8067068-1.0759337.0483917-.5129007.4785293-.905102.9937068-.9060663.082 0 2 .034 2 3-.037851.559746.266934 1.0866958.771 1.333.1664252.0918755.3715162.0761597.522-.04.3923789-.3789722 1.0160848-.3735524 1.4018186.0121814s.3911536 1.0094397.0121814 1.4018186c-.442427.4429469-1.043959.6900433-1.67.686z" fill="#f9c795"/><g fill="#802f34"><path id="Shape" d="m35.037 42c-1.183 0-1.833-1.328-1.951-1.594-.2253322-.504236.000764-1.0956678.505-1.321.504236-.2253321 1.0956678.000764 1.321.505.0280751.0593783.0594577.1171356.094.173.024-.049.052-.1.08-.169.1450498-.3265408.4532888-.5508937.8086063-.5885473.3553175-.0376535.7037324.1171128.914.4060001.2102677.2888872.2504435.6680064.1053937.9945472-.471 1.058-1.101 1.594-1.877 1.594z"/><path id="Shape" d="m38.037 46c-1.183 0-1.833-1.328-1.951-1.594-.2253322-.504236.000764-1.0956678.505-1.321.504236-.2253321 1.0956678.000764 1.321.505.0280751.0593783.0594577.1171356.094.173.024-.049.052-.1.08-.169.1450498-.3265408.4532888-.5508937.8086063-.5885473.3553175-.0376535.7037324.1171128.914.4060001.2102677.2888872.2504435.6680064.1053937.9945472-.471 1.058-1.101 1.594-1.877 1.594z"/><path id="Shape" d="m33.037 48c-1.183 0-1.833-1.328-1.951-1.594-.2253322-.504236.000764-1.0956678.505-1.321.504236-.2253321 1.0956678.000764 1.321.505.0280751.0593783.0594577.1171356.094.173.024-.049.052-.1.08-.169.1450498-.3265407.4532888-.5508937.8086063-.5885472.3553175-.0376536.7037323.1171128.914.406s.2504435.6680065.1053937.9945472c-.471 1.058-1.101 1.594-1.877 1.594z"/><path id="Shape" d="m34.037 53c-1.183 0-1.833-1.328-1.951-1.594-.2253322-.504236.000764-1.0956678.505-1.321.504236-.2253321 1.0956678.000764 1.321.505.0280751.0593783.0594577.1171356.094.173.024-.049.052-.1.08-.169.2242276-.5047883.8152117-.7322276 1.32-.508s.7322276.8152117.508 1.32c-.471 1.058-1.101 1.594-1.877 1.594z"/><path id="Shape" d="m28.037 52c-1.183 0-1.833-1.328-1.951-1.594-.2253322-.504236.000764-1.0956678.505-1.321s1.0956678.000764 1.321.505c.0280751.0593783.0594577.1171356.094.173.024-.049.052-.1.08-.169.1450498-.3265408.4532888-.5508937.8086063-.5885473.3553175-.0376535.7037324.1171128.914.4060001.2102677.2888872.2504435.6680064.1053937.9945472-.471 1.058-1.101 1.594-1.877 1.594z"/><path id="Shape" d="m25.037 56c-1.183 0-1.833-1.328-1.951-1.594-.2253322-.504236.000764-1.0956678.505-1.321.504236-.2253321 1.0956678.000764 1.321.505.0280751.0593783.0594577.1171356.094.173.024-.049.052-.1.08-.169.1450498-.3265408.4532888-.5508937.8086063-.5885473.3553175-.0376535.7037324.1171128.914.4060001.2102677.2888872.2504435.6680064.1053937.9945472-.471 1.058-1.101 1.594-1.877 1.594z"/><path id="Shape" d="m21.037 52c-1.183 0-1.833-1.328-1.951-1.594-.2253322-.504236.000764-1.0956678.505-1.321s1.0956678.000764 1.321.505c.0280751.0593783.0594577.1171356.094.173.024-.049.052-.1.08-.169.1450498-.3265408.4532888-.5508937.8086063-.5885473.3553175-.0376535.7037324.1171128.914.4060001.2102677.2888872.2504435.6680064.1053937.9945472-.471 1.058-1.101 1.594-1.877 1.594z"/><path id="Shape" d="m17.037 55c-1.183 0-1.833-1.328-1.951-1.594-.1457644-.3261835-.1064394-.7053538.1031616-.9946812s.5576347-.4448561.913-.408c.3553654.0368561.664074.2604977.8098384.5866812.0280751.0593783.0594577.1171356.094.173.024-.049.052-.1.08-.169.2242276-.5047883.8152117-.7322276 1.32-.508s.7322276.8152117.508 1.32c-.471 1.058-1.101 1.594-1.877 1.594z"/><path id="Shape" d="m10 38s-3-2-1-6 3-4 3-6c1.2505617 1.3692257 1.9612856 3.1460354 2 5 0 0-4 3-4 7z"/></g><path id="Shape" d="m24 42.882c-9.952 1.4-9.744 6.478-12.187 9.126s-7.773 1.892-7.773 1.892l-3.04-4.9s5.007.3 7.45-2.349 2.235-7.728 12.187-9.126z" fill="#fac176"/><path id="Shape" d="m34.05 14.14c-1.79 1.53-3.39.38-4.49-1.33-.3967107-.610396-.7285145-1.2605973-.99-1.94-.1657192-.4484666-.2536494-.92193639-.26-1.4l5.52 4.34c.07.11.14.22.22.33z" fill="#f9c795"/><path id="Shape" d="m37.12 6.53c-.3533234-.88972226-1.0129964-1.62387447-1.86-2.07-5-1.97-7.02 2.91-6 5.52.2614855.6794027.5932893 1.329604.99 1.94.0517533 1.2665631-.2568601 2.5218222-.89 3.62-.9363816-1.1072548-2.0771315-2.0239288-3.36-2.7-1.05-.53-2.17-1.05-3.24-1.5.24-2.9 1.75-3.85 3.24-5.34 2-2-1-5 6-5 2.5 0 3.85.77 4.56 1.76.6894258 1.12900527.8914924 2.4893464.56 3.77z" fill="#5f5346"/><path id="Shape" d="m31 18.871c-.3724063.0004336-.7142036-.206109-.887-.536-1.0740234-1.9200247-2.6517116-3.5105058-4.563-4.6-1.5829886-.8083234-3.2128976-1.5212625-4.881-2.135-.5124619-.1888745-.7785951-.7539752-.5977938-1.2693408.1808012-.51536548.7416518-.79034264 1.2597938-.6176592 1.7493267.6442457 3.4584008 1.3929257 5.118 2.242 2.289301 1.2729449 4.1738881 3.1648097 5.438 5.459.1590792.3096159.1457084.6796777-.0353005.9770058-.1810089.297328-.5036083.4791361-.8516995.4799942z" fill="#f9c795"/><path id="Shape" d="m37.26 7.41c.1505865 2.1123965-.6836335 4.1757991-2.26 5.59-1.89 1.89-3.6.71-4.75-1.08-.3967107-.610396-.7285145-1.2605973-.99-1.94-1.02-2.61 1-7.49 6-5.52.8470036.44612553 1.5066766 1.18027774 1.86 2.07v.01c.0949855.28013159.1423088.57421185.14.87z" fill="#fdd7ad"/></g></g></svg>