<svg id="Capa_1" enable-background="new 0 0 512 512" height="512" viewBox="0 0 512 512" width="512" xmlns="http://www.w3.org/2000/svg" xmlns:xlink="http://www.w3.org/1999/xlink"><linearGradient id="SVGID_1_" gradientUnits="userSpaceOnUse" x1="256" x2="256" y1="512" y2="0"><stop offset="0" stop-color="#ffbef9"/><stop offset="1" stop-color="#fff1ff"/></linearGradient><linearGradient id="SVGID_2_" gradientUnits="userSpaceOnUse" x1="256" x2="256" y1="407" y2="105"><stop offset="0" stop-color="#ff81ff"/><stop offset="1" stop-color="#a93aff"/></linearGradient><g><circle cx="256" cy="256" fill="url(#SVGID_1_)" r="256"/><g><g><path d="m291.755 176.511c-63.546 0-115.245 51.698-115.245 115.245 0 64.037 52.003 115.245 115.245 115.245 63.547-.001 115.245-51.699 115.245-115.246 0-63.277-51.245-115.244-115.245-115.244zm0 159.569c-24.441 0-44.325-19.884-44.325-44.325s19.884-44.325 44.325-44.325 44.325 19.884 44.325 44.325-19.884 44.325-44.325 44.325zm-132.974-44.325c0-73.323 59.652-132.975 132.975-132.975 14.939 0 29.607 2.464 43.596 7.323.046.016.092.033.138.049v-52.289c0-4.896-3.969-8.865-8.865-8.865h-70.92c-4.896 0-8.865 3.969-8.865 8.865 0 14.664-11.931 26.595-26.595 26.595s-26.595-11.931-26.595-26.595c0-4.896-3.969-8.865-8.865-8.865h-70.92c-4.896 0-8.865 3.969-8.865 8.865v212.759c0 4.896 3.969 8.865 8.865 8.865h52.289c-.018-.051-.037-.102-.055-.153-4.855-13.973-7.318-28.639-7.318-43.579zm132.974-26.595c-14.665 0-26.595 11.93-26.595 26.595s11.93 26.595 26.595 26.595 26.595-11.93 26.595-26.595-11.93-26.595-26.595-26.595zm0 35.46c-4.896 0-8.865-3.969-8.865-8.865s3.969-8.865 8.865-8.865 8.865 3.969 8.865 8.865-3.969 8.865-8.865 8.865z" fill="url(#SVGID_2_)"/></g></g></g></svg>