<svg id="Capa_1" enable-background="new 0 0 511 511" height="512" viewBox="0 0 511 511" width="512" xmlns="http://www.w3.org/2000/svg" xmlns:xlink="http://www.w3.org/1999/xlink"><linearGradient id="SVGID_1_" gradientUnits="userSpaceOnUse" x1="203" x2="203" y1="406" y2="0"><stop offset="0" stop-color="#a93aff"/><stop offset="1" stop-color="#ff81ff"/></linearGradient><linearGradient id="SVGID_2_" gradientUnits="userSpaceOnUse" x1="316" x2="316" y1="511" y2="121"><stop offset="0" stop-color="#ffbef9"/><stop offset="1" stop-color="#fff1ff"/></linearGradient><g><g><g><path d="m316 151c18.561 0 36.755 3.051 54.078 9.069 4.586 1.593 9.659.868 13.615-1.946 3.957-2.813 6.307-7.368 6.307-12.223v-130.9c0-8.284-6.716-15-15-15h-120c-8.284 0-15 6.716-15 15 0 24.813-20.187 45-45 45s-45-20.187-45-45c0-8.284-6.716-15-15-15h-120c-8.284 0-15 6.716-15 15v360c0 8.284 6.716 15 15 15h130.9c4.855 0 9.41-2.35 12.224-6.306s3.539-9.03 1.946-13.616c-6.019-17.323-9.07-35.517-9.07-54.078 0-90.981 74.019-165 165-165zm0 75c-49.626 0-90 40.374-90 90s40.374 90 90 90 90-40.374 90-90-40.374-90-90-90z" fill="url(#SVGID_1_)"/></g></g><g><g><path d="m379.922 131.73c-20.496-7.12-42.003-10.73-63.922-10.73-107.523 0-195 87.477-195 195 0 21.92 3.61 43.426 10.728 63.914 27.182 78.406 101.235 131.086 184.272 131.086 107.523 0 195-87.477 195-195 0-83.037-52.68-157.09-131.078-184.27zm-63.922 259.27c-41.355 0-75-33.645-75-75s33.645-75 75-75 75 33.645 75 75-33.645 75-75 75zm0-90c-8.284 0-15 6.716-15 15s6.716 15 15 15 15-6.716 15-15-6.716-15-15-15z" fill="url(#SVGID_2_)"/></g></g></g></svg>