<svg id="Capa_1" enable-background="new 0 0 512 512" height="512" viewBox="0 0 512 512" width="512" xmlns="http://www.w3.org/2000/svg"><g><ellipse cx="341.333" cy="183.887" fill="#9c9c9c" rx="167.747" ry="169.189"/><circle cx="342.793" cy="183.888" fill="#bfbfbf" r="85.209"/><circle cx="342.793" cy="183.888" fill="#e2e2e2" r="37.606"/><path d="m342.793 14.68c-5.418 0-10.773.266-16.061.764 85.916 8.091 153.146 80.411 153.146 168.444s-67.23 160.353-153.146 168.444c5.288.498 10.643.764 16.061.764 93.451 0 169.207-75.757 169.207-169.207s-75.757-169.209-169.207-169.209z" fill="#838383"/><path d="m369.507 478.086v-131.777c0-5.101-1.954-9.993-5.431-13.601l-21.488-22.289c-1.739-1.804-2.716-4.25-2.716-6.8v-138.104c0-10.623-8.302-19.234-18.543-19.234h-302.786c-10.241 0-18.543 8.612-18.543 19.234v312.57c0 10.623 8.302 19.234 18.543 19.234h229.386 2.92 89.023 2.92 8.172c10.241.001 18.543-8.611 18.543-19.233z" fill="#eb5569"/><path d="m265.254 218.346-151.194 24.668c-3.738.61-6.482 3.839-6.482 7.626v133.67c-8.92-3.456-20.677-3.508-32.458.659-21.061 7.448-34.219 25.545-29.39 40.421s25.817 20.898 46.878 13.45c17.61-6.227 29.686-19.9 30.35-32.91.112-.863.072 6.283.072-105.695l135.741-22.147v83.679c-8.92-3.456-20.677-3.508-32.458.658-21.061 7.448-34.219 25.545-29.39 40.421s25.817 20.898 46.878 13.45c18.585-6.572 31.007-21.436 30.355-35.062.105-.838.068 5.108.068-105.668v-49.595c0-4.754-4.261-8.388-8.97-7.625z" fill="#f8a5af"/><path d="m366.997 332.708-21.488-22.289c-1.739-1.804-2.716-4.25-2.716-6.8v-138.104c0-10.623-8.302-19.234-18.543-19.234h-32.122c10.241 0 18.543 8.611 18.543 19.234v138.104c0 2.551.977 4.997 2.716 6.8l21.488 22.289c3.478 3.607 5.431 8.499 5.431 13.601v131.777c0 10.623-8.302 19.234-18.543 19.234h21.03 11.092c10.241 0 18.543-8.611 18.543-19.234v-131.777c0-5.101-1.954-9.994-5.431-13.601z" fill="#e53950"/></g></svg>