<svg xmlns="http://www.w3.org/2000/svg" xmlns:xlink="http://www.w3.org/1999/xlink" width="73px" height="73px" viewBox="0 0 73 73" version="1.1" style="     width: 100%;     height:  100%; ">
    <!-- Generator: Sketch 52.4 (67378) - http://www.bohemiancoding.com/sketch -->
    <title>Inventory</title>
    <desc>Created with Sketch.</desc>
    <defs>
        <circle id="path-1" cx="36.5" cy="36.5" r="36.5"/>
    </defs>
    <g id="Page-1" stroke="none" stroke-width="1" fill="none" fill-rule="evenodd">
        <g id="Backpack-Screen-Items" transform="translate(-34.000000, -194.000000)">
            <g id="Inventory" transform="translate(34.000000, 194.000000)">
                <mask id="mask-2" fill="white">
                    <use xlink:href="#path-1"/>
                </mask>
                <use id="Oval" xlink:href="#path-1"/>
                <g id="message-in-a-bottle" mask="url(#mask-2)">
                    <g transform="translate(6.083333, 13.687500)">
                        <path d="M60.519487,49.8764205 C57.6422701,49.8765148 56.1379453,50.4573055 54.8106574,50.969779 C53.6613845,51.4135578 52.7534589,51.7640138 50.7421092,51.7640138 C48.7299035,51.7640138 47.8217334,51.4134635 46.6720938,50.9696846 C45.3443168,50.4572112 43.8393806,49.8764205 40.9611857,49.8764205 C38.0822571,49.8764205 36.5770764,50.4572112 35.2489327,50.9695903 C34.0986817,51.4134635 33.1901448,51.7640138 31.1769611,51.7640138 C29.1637773,51.7640138 28.2553627,51.4134635 27.1049895,50.9695903 C25.7770902,50.4572112 24.2719096,49.8764205 21.392981,49.8764205 C18.514786,49.8764205 17.0098499,50.4572112 15.6821952,50.9696846 C14.5325555,51.4134635 13.6243854,51.7640138 11.6121798,51.7640138 C9.60082998,51.7640138 8.69290441,51.4135578 7.54363154,50.969779 C6.21646589,50.4573055 4.71201879,49.8765148 1.83480192,49.8764205 C0.821974632,49.8764205 0,50.5102419 0,51.2918324 L0,57.8970881 C0,58.6787729 0.821118791,59.3125 1.83394608,59.3125 L60.5202206,59.3125 C61.5330479,59.3125 62.3541667,58.6787729 62.3541667,57.8970881 L62.3541667,51.2918324 C62.3541667,50.5102419 61.532192,49.8764205 60.519487,49.8764205 Z" id="Path" fill="#54C2AA"/>
                        <g id="Group" stroke-width="1" fill="none" transform="translate(11.085185, 0.000000)">
                            <ellipse id="Oval" fill="#F8E71C" cx="22.6798435" cy="31.5637355" rx="3.09296462" ry="2.99471864"/>
                            <path d="M40.4663695,3.24687395 L33.6503416,0.169501075 C32.5561744,-0.324507712 31.2737075,0.308575808 31.0442096,1.45627178 L30.5866982,3.74267957 L39.6086286,7.81609586 L41.1235627,6.00704622 C41.8839371,5.09904753 41.5606604,3.74100252 40.4663695,3.24687395 Z" id="Path" fill="#F5A623"/>
                            <g transform="translate(0.000000, 6.708170)" id="Path">
                                <path d="M18.1283605,41.3922823 L22.9228268,31.436999 C21.8798791,31.4747325 20.8131775,31.2822319 19.8041287,30.8265556 C18.7950799,30.370999 17.9570103,29.7035361 17.3165191,28.905743 L12.3004728,39.3208953 C14.2287507,39.6747512 15.5427658,40.3102305 16.5920231,40.8181348 C17.2607221,41.1419238 17.6174027,41.3137009 18.1283605,41.3922823 Z" fill="#F8E71C"/>
                                <path d="M8.32675562,39.0686202 L16.5128432,22.0711962 C18.0985443,18.7786827 22.1550293,17.3491238 25.5555583,18.8844562 C28.9560873,20.4197885 30.4325449,24.3474219 28.8468438,27.6399354 L22.7824062,40.2321283 C24.2046751,39.6286326 26.1042502,39.0512508 28.9533655,39.0512508 C29.4993356,39.0512508 30.0093036,39.0730524 30.4888368,39.1116244 L35.2959225,29.1303469 C36.4368552,26.7612849 36.8060315,24.0971832 36.2593191,21.5374175 C35.7724864,19.2586762 34.6357601,17.2082522 32.9551668,15.5667871 L36.7261093,7.7369155 C37.6549884,8.15629589 38.7591768,7.76722205 39.1923156,6.86784815 C39.6254543,5.96847425 39.2236164,4.89935969 38.2947372,4.47997929 L28.7639523,0.176808188 C27.8350732,-0.24257221 26.7308848,0.146501636 26.2977461,1.04587554 C25.8646073,1.94524944 26.2664453,3.01436399 27.1953244,3.43374439 L23.4243819,11.263616 C21.0282004,11.0708759 18.6583709,11.5539839 16.5306587,12.6748472 C14.1998006,13.9029214 12.3748277,15.782886 11.2533187,18.1114594 L0.0316719577,41.4119276 C0.625273727,41.3446064 0.983191592,41.1722304 1.71313124,40.8187338 C3.13762703,40.1287506 5.05019263,39.2038617 8.32675562,39.0686202 Z" fill="#FFFFFF"/>
                            </g>
                        </g>
                    </g>
                </g>
            </g>
        </g>
    </g>
</svg>