<svg id="Capa_1" enable-background="new 0 0 512 512" height="512" viewBox="0 0 512 512" width="512" xmlns="http://www.w3.org/2000/svg"><g><g><path d="m114.144 400.396h282.846v104.104h-282.846z" fill="#e4f6ff"/></g><g><path d="m114.144 400.396h282.846v22.224h-282.846z" fill="#e4f6ff"/></g><g><path d="m219.677 327.188h71.779v218.195h-71.779z" fill="#f6e781" transform="matrix(0 1 -1 0 691.852 180.718)"/></g><g><path d="m146.469 400.396h218.195v22.224h-218.195z" fill="#f1cb86"/></g><g><path d="m440.088 80.232h-368.176c-22.316 0-40.407 18.091-40.407 40.407v239.351c0 22.316 18.091 40.407 40.407 40.407h368.176c22.316 0 40.406-18.091 40.406-40.407v-239.352c0-22.316-18.09-40.406-40.406-40.406z" fill="#9d66d5"/></g><g><path d="m440.088 80.232h-34.108c22.316 0 40.407 18.091 40.407 40.407v239.351c0 22.316-18.091 40.406-40.407 40.406h34.107c22.316 0 40.406-18.09 40.406-40.406v-239.352c.001-22.316-18.089-40.406-40.405-40.406z" fill="#8659b9"/></g><g><path d="m182.858 80.232v-32.325c0-22.316 18.091-40.407 40.407-40.407h65.471c22.316 0 40.406 18.091 40.406 40.407v32.325z" fill="#3d4fc3"/></g><g><path d="m286.716 39.825h-61.431c-5.579 0-10.102 4.523-10.102 10.102v30.305h81.634v-30.305c0-5.579-4.523-10.102-10.101-10.102z" fill="#e4f6ff"/></g><g><path d="m423.864 47.907h-31.126c-5.579 0-10.102 4.523-10.102 10.102v22.224h51.329v-22.225c.001-5.579-4.522-10.101-10.101-10.101z" fill="#3d4fc3"/></g><g><g><circle cx="256" cy="245.619" fill="#3d4fc3" r="115.642"/></g><g><path d="m330.951 157.562c17.198 20.186 27.584 46.354 27.584 74.951 0 63.867-51.774 115.642-115.642 115.642-28.597 0-54.765-10.386-74.951-27.584 21.211 24.896 52.788 40.69 88.057 40.69 63.867 0 115.642-51.774 115.642-115.642.001-35.27-15.794-66.846-40.69-88.057z" fill="#3342aa"/></g><g><circle cx="256" cy="245.619" fill="#2b3890" r="83.316"/></g><g><circle cx="256" cy="245.619" fill="#e4f6ff" r="51.021"/></g><g><path d="m280.072 200.629c3.845 7.171 6.031 15.365 6.031 24.072 0 28.178-22.843 51.021-51.021 51.021-8.706 0-16.9-2.186-24.072-6.031 8.6 16.039 25.519 26.95 44.991 26.95 28.178 0 51.021-22.843 51.021-51.021-.001-19.473-10.912-36.392-26.95-44.991z" fill="#e4f6ff"/></g></g><g><circle cx="89.67" cy="155.488" fill="#e4f6ff" r="25.511"/></g><g><circle cx="89.67" cy="229.487" fill="#dd5790" r="16.163"/></g><g><path d="m351.661 180.189c3.259-2.558 3.826-7.272 1.269-10.53-23.537-29.982-58.867-47.179-96.93-47.179-67.899 0-123.14 55.24-123.14 123.14s55.241 123.14 123.14 123.14 123.14-55.24 123.14-123.14c0-14.999-2.663-29.637-7.916-43.507-1.467-3.874-5.799-5.822-9.67-4.357-3.874 1.467-5.824 5.796-4.357 9.67 4.607 12.166 6.943 25.017 6.943 38.194 0 59.628-48.512 108.14-108.14 108.14s-108.14-48.512-108.14-108.14 48.512-108.14 108.14-108.14c33.427 0 64.456 15.104 85.131 41.44 2.557 3.258 7.271 3.826 10.53 1.269z"/><path d="m256 154.803c-50.076 0-90.816 40.74-90.816 90.816s40.74 90.816 90.816 90.816 90.816-40.74 90.816-90.816-40.74-90.816-90.816-90.816zm0 166.633c-41.806 0-75.816-34.011-75.816-75.816s34.011-75.816 75.816-75.816 75.816 34.011 75.816 75.816-34.01 75.816-75.816 75.816z"/><path d="m256 187.098c-32.269 0-58.521 26.253-58.521 58.521s26.253 58.521 58.521 58.521 58.521-26.253 58.521-58.521-26.252-58.521-58.521-58.521zm0 102.043c-23.998 0-43.521-19.523-43.521-43.521s19.523-43.521 43.521-43.521 43.521 19.523 43.521 43.521-19.523 43.521-43.521 43.521z"/><path d="m89.67 122.478c-18.202 0-33.011 14.809-33.011 33.011s14.809 33.011 33.011 33.011 33.011-14.809 33.011-33.011-14.809-33.011-33.011-33.011zm0 51.021c-9.931 0-18.011-8.08-18.011-18.011s8.08-18.011 18.011-18.011 18.011 8.08 18.011 18.011-8.08 18.011-18.011 18.011z"/><path d="m89.67 205.824c-13.047 0-23.662 10.615-23.662 23.662 0 13.048 10.615 23.663 23.662 23.663 13.048 0 23.663-10.615 23.663-23.663 0-13.047-10.615-23.662-23.663-23.662zm0 32.325c-4.776 0-8.662-3.887-8.662-8.663s3.886-8.662 8.662-8.662 8.663 3.886 8.663 8.662-3.887 8.663-8.663 8.663z"/><path d="m441.466 72.765v-14.757c0-9.705-7.896-17.602-17.602-17.602h-31.127c-9.705 0-17.602 7.896-17.602 17.602v14.722h-38.494v-24.824c.001-26.416-21.49-47.906-47.906-47.906h-65.471c-26.416 0-47.906 21.49-47.906 47.906v24.824h-57.578c-4.143 0-7.5 3.357-7.5 7.5s3.357 7.5 7.5 7.5h322.31c18.142 0 32.9 14.763 32.9 32.909v239.351c0 18.146-14.759 32.91-32.9 32.91h-91.68c-4.143 0-7.5 3.357-7.5 7.5s3.357 7.5 7.5 7.5h8.754v56.774h-203.194v-56.774h159.34c4.143 0 7.5-3.357 7.5-7.5s-3.357-7.5-7.5-7.5h-241.4c-18.142 0-32.9-14.764-32.9-32.91v-239.35c0-18.146 14.759-32.909 32.9-32.909h10.77c4.143 0 7.5-3.357 7.5-7.5s-3.357-7.5-7.5-7.5h-10.77c-26.412 0-47.9 21.492-47.9 47.909v239.35c0 26.418 21.488 47.91 47.9 47.91h34.734v96.6c0 4.143 3.357 7.5 7.5 7.5h282.846c4.143 0 7.5-3.357 7.5-7.5v-96.6h35.6c26.412 0 47.9-21.492 47.9-47.91v-239.35c0-25.956-20.748-47.142-46.524-47.875zm-51.33-14.757c0-1.435 1.167-2.602 2.602-2.602h31.127c1.435 0 2.602 1.167 2.602 2.602v14.722h-36.33v-14.722zm-199.778-10.102c0-18.144 14.762-32.906 32.907-32.906h65.471c18.145 0 32.906 14.762 32.906 32.906v24.824h-17.324v-22.803c0-9.705-7.896-17.602-17.602-17.602h-61.432c-9.705 0-17.602 7.896-17.602 17.602v22.803h-17.324zm98.959 24.824h-66.635v-22.803c0-1.435 1.167-2.602 2.602-2.602h61.432c1.435 0 2.602 1.167 2.602 2.602v22.803zm100.173 424.27h-267.845v-89.1h17.325v64.274c0 4.143 3.357 7.5 7.5 7.5h218.194c4.143 0 7.5-3.357 7.5-7.5v-64.274h17.326z"/><path d="m396.99 343.246h32.325c4.143 0 7.5-3.357 7.5-7.5s-3.357-7.5-7.5-7.5h-32.325c-4.143 0-7.5 3.357-7.5 7.5s3.358 7.5 7.5 7.5z"/><path d="m396.99 375.571h32.325c4.143 0 7.5-3.357 7.5-7.5s-3.357-7.5-7.5-7.5h-32.325c-4.143 0-7.5 3.357-7.5 7.5s3.358 7.5 7.5 7.5z"/></g></g></svg>