<?xml version="1.0" encoding="UTF-8"?>
<svg width="311px" height="155px" viewBox="0 0 311 155" version="1.1" xmlns="http://www.w3.org/2000/svg" xmlns:xlink="http://www.w3.org/1999/xlink">
    <!-- Generator: Sketch 52.4 (67378) - http://www.bohemiancoding.com/sketch -->
    <title>widget</title>
    <desc>Created with Sketch.</desc>
    <defs>
        <rect id="path-1" x="0" y="0" width="311" height="155" rx="17"></rect>
    </defs>
    <g id="Page-1" stroke="none" stroke-width="1" fill="none" fill-rule="evenodd">
        <g id="Widget-homescreen" transform="translate(-25.000000, -309.000000)">
            <g id="widget" transform="translate(25.000000, 309.000000)">
                <mask id="mask-2" fill="white">
                    <use xlink:href="#path-1"></use>
                </mask>
                <use id="Rectangle" fill="#1B4678" fill-rule="evenodd" xlink:href="#path-1"></use>
                <g id="boat2" mask="url(#mask-2)" fill-rule="evenodd">
                    <g transform="translate(-2.000000, 8.000000)">
                        <g id="boat" transform="translate(0.000000, 18.892655)">
                            <g id="Group-2" stroke-width="1" transform="translate(153.250865, 97.579861)">
                                <path d="M60.0181939,10.7924318 C50.2253878,10.7924318 50.2253878,4.63368056 40.4325816,4.63368056 C30.6403875,4.63368056 30.6403875,10.7924318 20.8478873,10.7924318 C11.0556932,10.7924318 11.0556932,4.63368056 1.26380506,4.63368056 C0.821014277,4.63368056 0.40454002,4.65030918 0,4.67432831 L0,38.4322917 L79.6038062,38.4322917 L79.6038062,4.63368056 C69.8110001,4.63368056 69.8110001,10.7924318 60.0181939,10.7924318 Z" id="XMLID_3598_" fill="#33BBFF"></path>
                                <g id="Group" transform="translate(0.000000, 0.272569)" fill="#008ADF">
                                    <path d="M67.6988803,26.1306716 C65.5023702,27.5126252 63.9153212,28.5115422 60.3323635,28.5115422 C56.7494059,28.5115422 55.1623569,27.5129336 52.9658467,26.1306716 C50.2848303,24.4430908 46.9484135,22.3434837 40.7303787,22.3434837 C34.512344,22.3434837 31.1759272,24.4433992 28.4949107,26.1306716 C26.2987069,27.5126252 24.7116578,28.5115422 21.1290065,28.5115422 C17.5466614,28.5115422 15.9599186,27.5129336 13.7637147,26.1306716 C11.0826983,24.4430908 7.7462815,22.3434837 1.528553,22.3434837 C1.09182357,22.3434837 0.67285733,22.3561282 0.263691471,22.3761744 L0.263691471,31.6421404 C0.657237975,31.6116085 1.07681674,31.5955715 1.528553,31.5955715 C5.11120436,31.5955715 6.69794712,32.5941802 8.89415099,33.9764421 C11.5751674,35.6640229 14.911278,37.7636301 21.1290065,37.7636301 C27.3470412,37.7636301 30.6834581,35.6637145 33.3644745,33.9764421 C35.5606784,32.5944886 37.1477274,31.5955715 40.7303787,31.5955715 C44.3133364,31.5955715 45.9003854,32.5941802 48.0968955,33.9764421 C50.7779119,35.6640229 54.1143288,37.7636301 60.3323635,37.7636301 C66.5503983,37.7636301 69.8868151,35.6637145 72.5678315,33.9764421 C74.7643417,32.5944886 76.3513907,31.5955715 79.9343483,31.5955715 L79.9343483,22.3434837 C73.7163136,22.3431753 70.3798967,24.4430908 67.6988803,26.1306716 Z" id="XMLID_3600_"></path>
                                    <path d="M67.6988803,3.88001723 C65.5023702,5.26197075 63.9153212,6.26088783 60.3323635,6.26088783 C56.7494059,6.26088783 55.1623569,5.26227915 52.9658467,3.88001723 C50.2848303,2.19243641 46.9484135,0.0928292812 40.7303787,0.0928292812 C34.512344,0.0928292812 31.1759272,2.19274481 28.4949107,3.88001723 C26.2987069,5.26197075 24.7116578,6.26088783 21.1290065,6.26088783 C17.5466614,6.26088783 15.9599186,5.26227915 13.7637147,3.88001723 C11.0826983,2.19243641 7.7462815,0.0928292812 1.528553,0.0928292812 C1.09182357,0.0928292812 0.67285733,0.105473801 0.263691471,0.125519991 L0.263691471,9.39148595 C0.657237975,9.36095406 1.07681674,9.3449171 1.528553,9.3449171 C5.11120436,9.3449171 6.69794712,10.3435258 8.89415099,11.7257877 C11.5751674,13.4133685 14.911278,15.5129757 21.1290065,15.5129757 C27.3470412,15.5129757 30.6834581,13.4130601 33.3644745,11.7257877 C35.5606784,10.3438342 37.1477274,9.3449171 40.7303787,9.3449171 C44.3133364,9.3449171 45.9003854,10.3435258 48.0968955,11.7257877 C50.7779119,13.4133685 54.1143288,15.5129757 60.3323635,15.5129757 C66.5503983,15.5129757 69.8868151,13.4130601 72.5678315,11.7257877 C74.7643417,10.3438342 76.3513907,9.3449171 79.9343483,9.3449171 L79.9343483,0.0928292812 C73.7163136,0.0928292812 70.3798967,2.19243641 67.6988803,3.88001723 Z" id="XMLID_3626_"></path>
                                </g>
                            </g>
                            <g id="Group-2" stroke-width="1" transform="translate(74.730104, 97.579861)">
                                <path d="M60.0181939,10.7924318 C50.2253878,10.7924318 50.2253878,4.63368056 40.4325816,4.63368056 C30.6403875,4.63368056 30.6403875,10.7924318 20.8478873,10.7924318 C11.0556932,10.7924318 11.0556932,4.63368056 1.26380506,4.63368056 C0.821014277,4.63368056 0.40454002,4.65030918 0,4.67432831 L0,38.4322917 L79.6038062,38.4322917 L79.6038062,4.63368056 C69.8110001,4.63368056 69.8110001,10.7924318 60.0181939,10.7924318 Z" id="XMLID_3598_" fill="#33BBFF"></path>
                                <g id="Group" transform="translate(0.000000, 0.272569)" fill="#008ADF">
                                    <path d="M67.6988803,26.1306716 C65.5023702,27.5126252 63.9153212,28.5115422 60.3323635,28.5115422 C56.7494059,28.5115422 55.1623569,27.5129336 52.9658467,26.1306716 C50.2848303,24.4430908 46.9484135,22.3434837 40.7303787,22.3434837 C34.512344,22.3434837 31.1759272,24.4433992 28.4949107,26.1306716 C26.2987069,27.5126252 24.7116578,28.5115422 21.1290065,28.5115422 C17.5466614,28.5115422 15.9599186,27.5129336 13.7637147,26.1306716 C11.0826983,24.4430908 7.7462815,22.3434837 1.528553,22.3434837 C1.09182357,22.3434837 0.67285733,22.3561282 0.263691471,22.3761744 L0.263691471,31.6421404 C0.657237975,31.6116085 1.07681674,31.5955715 1.528553,31.5955715 C5.11120436,31.5955715 6.69794712,32.5941802 8.89415099,33.9764421 C11.5751674,35.6640229 14.911278,37.7636301 21.1290065,37.7636301 C27.3470412,37.7636301 30.6834581,35.6637145 33.3644745,33.9764421 C35.5606784,32.5944886 37.1477274,31.5955715 40.7303787,31.5955715 C44.3133364,31.5955715 45.9003854,32.5941802 48.0968955,33.9764421 C50.7779119,35.6640229 54.1143288,37.7636301 60.3323635,37.7636301 C66.5503983,37.7636301 69.8868151,35.6637145 72.5678315,33.9764421 C74.7643417,32.5944886 76.3513907,31.5955715 79.9343483,31.5955715 L79.9343483,22.3434837 C73.7163136,22.3431753 70.3798967,24.4430908 67.6988803,26.1306716 Z" id="XMLID_3600_"></path>
                                    <path d="M67.6988803,3.88001723 C65.5023702,5.26197075 63.9153212,6.26088783 60.3323635,6.26088783 C56.7494059,6.26088783 55.1623569,5.26227915 52.9658467,3.88001723 C50.2848303,2.19243641 46.9484135,0.0928292812 40.7303787,0.0928292812 C34.512344,0.0928292812 31.1759272,2.19274481 28.4949107,3.88001723 C26.2987069,5.26197075 24.7116578,6.26088783 21.1290065,6.26088783 C17.5466614,6.26088783 15.9599186,5.26227915 13.7637147,3.88001723 C11.0826983,2.19243641 7.7462815,0.0928292812 1.528553,0.0928292812 C1.09182357,0.0928292812 0.67285733,0.105473801 0.263691471,0.125519991 L0.263691471,9.39148595 C0.657237975,9.36095406 1.07681674,9.3449171 1.528553,9.3449171 C5.11120436,9.3449171 6.69794712,10.3435258 8.89415099,11.7257877 C11.5751674,13.4133685 14.911278,15.5129757 21.1290065,15.5129757 C27.3470412,15.5129757 30.6834581,13.4130601 33.3644745,11.7257877 C35.5606784,10.3438342 37.1477274,9.3449171 40.7303787,9.3449171 C44.3133364,9.3449171 45.9003854,10.3435258 48.0968955,11.7257877 C50.7779119,13.4133685 54.1143288,15.5129757 60.3323635,15.5129757 C66.5503983,15.5129757 69.8868151,13.4130601 72.5678315,11.7257877 C74.7643417,10.3438342 76.3513907,9.3449171 79.9343483,9.3449171 L79.9343483,0.0928292812 C73.7163136,0.0928292812 70.3798967,2.19243641 67.6988803,3.88001723 Z" id="XMLID_3626_"></path>
                                </g>
                            </g>
                            <g id="Group-2" stroke-width="1" transform="translate(0.000000, 97.579861)">
                                <path d="M60.0181939,10.7924318 C50.2253878,10.7924318 50.2253878,4.63368056 40.4325816,4.63368056 C30.6403875,4.63368056 30.6403875,10.7924318 20.8478873,10.7924318 C11.0556932,10.7924318 11.0556932,4.63368056 1.26380506,4.63368056 C0.821014277,4.63368056 0.40454002,4.65030918 0,4.67432831 L0,38.4322917 L79.6038062,38.4322917 L79.6038062,4.63368056 C69.8110001,4.63368056 69.8110001,10.7924318 60.0181939,10.7924318 Z" id="XMLID_3598_" fill="#33BBFF"></path>
                                <g id="Group" transform="translate(0.000000, 0.272569)" fill="#008ADF">
                                    <path d="M67.6988803,26.1306716 C65.5023702,27.5126252 63.9153212,28.5115422 60.3323635,28.5115422 C56.7494059,28.5115422 55.1623569,27.5129336 52.9658467,26.1306716 C50.2848303,24.4430908 46.9484135,22.3434837 40.7303787,22.3434837 C34.512344,22.3434837 31.1759272,24.4433992 28.4949107,26.1306716 C26.2987069,27.5126252 24.7116578,28.5115422 21.1290065,28.5115422 C17.5466614,28.5115422 15.9599186,27.5129336 13.7637147,26.1306716 C11.0826983,24.4430908 7.7462815,22.3434837 1.528553,22.3434837 C1.09182357,22.3434837 0.67285733,22.3561282 0.263691471,22.3761744 L0.263691471,31.6421404 C0.657237975,31.6116085 1.07681674,31.5955715 1.528553,31.5955715 C5.11120436,31.5955715 6.69794712,32.5941802 8.89415099,33.9764421 C11.5751674,35.6640229 14.911278,37.7636301 21.1290065,37.7636301 C27.3470412,37.7636301 30.6834581,35.6637145 33.3644745,33.9764421 C35.5606784,32.5944886 37.1477274,31.5955715 40.7303787,31.5955715 C44.3133364,31.5955715 45.9003854,32.5941802 48.0968955,33.9764421 C50.7779119,35.6640229 54.1143288,37.7636301 60.3323635,37.7636301 C66.5503983,37.7636301 69.8868151,35.6637145 72.5678315,33.9764421 C74.7643417,32.5944886 76.3513907,31.5955715 79.9343483,31.5955715 L79.9343483,22.3434837 C73.7163136,22.3431753 70.3798967,24.4430908 67.6988803,26.1306716 Z" id="XMLID_3600_"></path>
                                    <path d="M67.6988803,3.88001723 C65.5023702,5.26197075 63.9153212,6.26088783 60.3323635,6.26088783 C56.7494059,6.26088783 55.1623569,5.26227915 52.9658467,3.88001723 C50.2848303,2.19243641 46.9484135,0.0928292812 40.7303787,0.0928292812 C34.512344,0.0928292812 31.1759272,2.19274481 28.4949107,3.88001723 C26.2987069,5.26197075 24.7116578,6.26088783 21.1290065,6.26088783 C17.5466614,6.26088783 15.9599186,5.26227915 13.7637147,3.88001723 C11.0826983,2.19243641 7.7462815,0.0928292812 1.528553,0.0928292812 C1.09182357,0.0928292812 0.67285733,0.105473801 0.263691471,0.125519991 L0.263691471,9.39148595 C0.657237975,9.36095406 1.07681674,9.3449171 1.528553,9.3449171 C5.11120436,9.3449171 6.69794712,10.3435258 8.89415099,11.7257877 C11.5751674,13.4133685 14.911278,15.5129757 21.1290065,15.5129757 C27.3470412,15.5129757 30.6834581,13.4130601 33.3644745,11.7257877 C35.5606784,10.3438342 37.1477274,9.3449171 40.7303787,9.3449171 C44.3133364,9.3449171 45.9003854,10.3435258 48.0968955,11.7257877 C50.7779119,13.4133685 54.1143288,15.5129757 60.3323635,15.5129757 C66.5503983,15.5129757 69.8868151,13.4130601 72.5678315,11.7257877 C74.7643417,10.3438342 76.3513907,9.3449171 79.9343483,9.3449171 L79.9343483,0.0928292812 C73.7163136,0.0928292812 70.3798967,2.19243641 67.6988803,3.88001723 Z" id="XMLID_3626_"></path>
                                </g>
                            </g>
                            <g id="sailboat-(2)" stroke-width="1" transform="translate(78.250000, 78.772569) scale(-1, 1) translate(-78.250000, -78.772569) translate(0.000000, 0.272569)">
                                <polygon id="XMLID_551_" fill="#FFC34D" points="75.2716263 8.99479167 75.2716263 107.119792 121.301038 107.119792"></polygon>
                                <path d="M69.9945271,9.8225992 C47.6423456,29.9766929 34.9411149,57.2447889 34.2300627,86.6041394 L34.115917,91.3107639 L78.5207612,91.3107639 L78.5207612,2.453125 L69.9945271,9.8225992 Z" id="XMLID_416_" fill="#FFEA80"></path>
                                <polygon id="XMLID_565_" fill="#B36B24" points="72.0224913 0.272569444 81.2283737 0.272569444 81.2283737 104.939236 72.0224913 104.939236"></polygon>
                                <polygon id="XMLID_3602_" fill="#804D19" points="76.3546713 0.272569444 81.2283737 0.272569444 81.2283737 104.939236 76.3546713 104.939236"></polygon>
                                <polygon id="XMLID_580_" fill="#FF9933" points="19.4948097 100.578125 28.8980043 124.564236 126.585072 124.564236 133.214533 100.578125"></polygon>
                                <polygon id="XMLID_3599_" fill="#FF7733" points="76.8961938 100.578125 76.8961938 124.564236 127.121668 124.564236 133.756055 100.578125"></polygon>
                                <path d="M0,122.928819 C9.74681467,122.928819 9.74681467,129.087571 19.4939339,129.087571 C29.2413578,129.087571 29.2413578,122.928819 38.9884771,122.928819 C48.7355964,122.928819 48.7355964,129.087571 58.4830203,129.087571 C68.2298349,129.087571 68.2298349,122.928819 77.9766496,122.928819 C87.7240735,122.928819 87.7240735,129.087571 97.4711928,129.087571 C107.218921,129.087571 107.218921,122.928819 116.966345,122.928819 C126.714378,122.928819 126.714378,129.087571 136.462411,129.087571 C146.210444,129.087571 146.210444,122.928819 155.958478,122.928819 L155.958478,156.727431 L0,156.727431 L0,122.928819 Z" id="XMLID_2_" fill="#66E6FF"></path>
                                <path d="M136.372865,128.542432 C126.580059,128.542432 126.580059,122.383681 116.787253,122.383681 C106.995059,122.383681 106.995059,128.542432 97.2025586,128.542432 C87.4103645,128.542432 87.4103645,122.383681 77.6184763,122.383681 C77.1756856,122.383681 76.7592113,122.400309 76.3546713,122.424328 L76.3546713,156.182292 L155.958478,156.182292 L155.958478,122.383681 C146.165671,122.383681 146.165671,128.542432 136.372865,128.542432 Z" id="XMLID_3598_" fill="#66E6FF"></path>
                                <path d="M136.462449,133.286458 C130.278026,133.286458 126.959643,131.133585 124.293119,129.403761 C122.108482,127.986956 120.530012,126.962847 116.966421,126.962847 C113.403136,126.962847 111.824665,127.98664 109.640333,129.403761 C106.973808,131.133901 103.655426,133.286458 97.4710024,133.286458 C91.2868832,133.286458 87.9688057,131.133585 85.3022812,129.403761 C83.1179487,127.986956 81.539783,126.962847 77.9764973,126.962847 C74.4135162,126.962847 72.8353505,127.98664 70.6513226,129.403761 C67.9851027,131.133585 64.6667206,133.286458 58.482906,133.286458 C52.2987869,133.286458 48.9807093,131.133585 46.3141849,129.403761 C44.1298524,127.986956 42.5516866,126.962847 38.988401,126.962847 C35.4251153,126.962847 33.8469495,127.98664 31.662617,129.403761 C28.9960926,131.133901 25.678015,133.286458 19.4938959,133.286458 C13.3097767,133.286458 9.99169918,131.133269 7.32517474,129.403761 C5.14084224,127.986956 3.56298108,126.962847 0,126.962847 L0,117.477431 C6.18381455,117.477431 9.50219669,119.630304 12.1684165,121.360128 C14.352749,122.776933 15.9309148,123.801042 19.4938959,123.801042 C23.0568769,123.801042 24.6350427,122.777249 26.8193752,121.360128 C29.4858997,119.629988 32.8042818,117.477431 38.988401,117.477431 C45.1725201,117.477431 48.4909022,119.630304 51.1574267,121.360128 C53.3417592,122.776933 54.919925,123.801042 58.482906,123.801042 C62.0458871,123.801042 63.6240529,122.777249 65.8080808,121.360128 C68.4743006,119.630304 71.7926827,117.477431 77.9764973,117.477431 C84.1606165,117.477431 87.4789986,119.630304 90.145523,121.360128 C92.3298555,122.776933 93.9080213,123.801042 97.4710024,123.801042 C101.034288,123.801042 102.612758,122.777249 104.797091,121.360128 C107.463615,119.629988 110.781998,117.477431 116.966421,117.477431 C123.150845,117.477431 126.469227,119.630304 129.135752,121.360128 C131.320389,122.776933 132.898859,123.801042 136.462449,123.801042 C140.02604,123.801042 141.60451,122.777249 143.789147,121.360128 C146.455672,119.629988 149.774054,117.477431 155.958478,117.477431 L155.958478,126.962847 C152.394887,126.962847 150.816417,127.98664 148.63178,129.403761 C145.965255,131.133585 142.646873,133.286458 136.462449,133.286458 Z" id="XMLID_330_" fill="#33BBFF"></path>
                                <path d="M136.462449,155.637153 C130.278026,155.637153 126.959643,153.484279 124.293119,151.754456 C122.108482,150.33765 120.530012,149.313542 116.966421,149.313542 C113.403136,149.313542 111.824665,150.337334 109.640333,151.754456 C106.973808,153.484596 103.655426,155.637153 97.4710024,155.637153 C91.2868832,155.637153 87.9688057,153.484279 85.3022812,151.754456 C83.1179487,150.33765 81.539783,149.313542 77.9764973,149.313542 C74.4135162,149.313542 72.8353505,150.337334 70.6513226,151.754456 C67.9851027,153.484279 64.6667206,155.637153 58.482906,155.637153 C52.2987869,155.637153 48.9807093,153.484279 46.3141849,151.754456 C44.1298524,150.33765 42.5516866,149.313542 38.988401,149.313542 C35.4251153,149.313542 33.8469495,150.337334 31.662617,151.754456 C28.9960926,153.484596 25.678015,155.637153 19.4938959,155.637153 C13.3097767,155.637153 9.99169918,153.483963 7.32517474,151.754456 C5.14084224,150.33765 3.56298108,149.313542 0,149.313542 L0,139.828125 C6.18381455,139.828125 9.50219669,141.980998 12.1684165,143.710822 C14.352749,145.127627 15.9309148,146.151736 19.4938959,146.151736 C23.0568769,146.151736 24.6350427,145.127943 26.8193752,143.710822 C29.4858997,141.980682 32.8042818,139.828125 38.988401,139.828125 C45.1725201,139.828125 48.4909022,141.980998 51.1574267,143.710822 C53.3417592,145.127627 54.919925,146.151736 58.482906,146.151736 C62.0458871,146.151736 63.6240529,145.127943 65.8080808,143.710822 C68.4743006,141.980998 71.7926827,139.828125 77.9764973,139.828125 C84.1606165,139.828125 87.4789986,141.980998 90.145523,143.710822 C92.3298555,145.127627 93.9080213,146.151736 97.4710024,146.151736 C101.034288,146.151736 102.612758,145.127943 104.797091,143.710822 C107.463615,141.980682 110.781998,139.828125 116.966421,139.828125 C123.150845,139.828125 126.469227,141.980998 129.135752,143.710822 C131.320389,145.127627 132.898859,146.151736 136.462449,146.151736 C140.02604,146.151736 141.60451,145.127943 143.789147,143.710822 C146.455672,141.980682 149.774054,139.828125 155.958478,139.828125 L155.958478,149.313542 C152.394887,149.313542 150.816417,150.337334 148.63178,151.754456 C145.965255,153.484596 142.646873,155.637153 136.462449,155.637153 Z" id="XMLID_186_" fill="#33BBFF"></path>
                                <g id="Group" transform="translate(76.354671, 118.022569)" fill="#33BBFF">
                                    <path d="M67.6988803,26.1306716 C65.5023702,27.5126252 63.9153212,28.5115422 60.3323635,28.5115422 C56.7494059,28.5115422 55.1623569,27.5129336 52.9658467,26.1306716 C50.2848303,24.4430908 46.9484135,22.3434837 40.7303787,22.3434837 C34.512344,22.3434837 31.1759272,24.4433992 28.4949107,26.1306716 C26.2987069,27.5126252 24.7116578,28.5115422 21.1290065,28.5115422 C17.5466614,28.5115422 15.9599186,27.5129336 13.7637147,26.1306716 C11.0826983,24.4430908 7.7462815,22.3434837 1.528553,22.3434837 C1.09182357,22.3434837 0.67285733,22.3561282 0.263691471,22.3761744 L0.263691471,31.6421404 C0.657237975,31.6116085 1.07681674,31.5955715 1.528553,31.5955715 C5.11120436,31.5955715 6.69794712,32.5941802 8.89415099,33.9764421 C11.5751674,35.6640229 14.911278,37.7636301 21.1290065,37.7636301 C27.3470412,37.7636301 30.6834581,35.6637145 33.3644745,33.9764421 C35.5606784,32.5944886 37.1477274,31.5955715 40.7303787,31.5955715 C44.3133364,31.5955715 45.9003854,32.5941802 48.0968955,33.9764421 C50.7779119,35.6640229 54.1143288,37.7636301 60.3323635,37.7636301 C66.5503983,37.7636301 69.8868151,35.6637145 72.5678315,33.9764421 C74.7643417,32.5944886 76.3513907,31.5955715 79.9343483,31.5955715 L79.9343483,22.3434837 C73.7163136,22.3431753 70.3798967,24.4430908 67.6988803,26.1306716 Z" id="XMLID_3600_"></path>
                                    <path d="M67.6988803,3.88001723 C65.5023702,5.26197075 63.9153212,6.26088783 60.3323635,6.26088783 C56.7494059,6.26088783 55.1623569,5.26227915 52.9658467,3.88001723 C50.2848303,2.19243641 46.9484135,0.0928292812 40.7303787,0.0928292812 C34.512344,0.0928292812 31.1759272,2.19274481 28.4949107,3.88001723 C26.2987069,5.26197075 24.7116578,6.26088783 21.1290065,6.26088783 C17.5466614,6.26088783 15.9599186,5.26227915 13.7637147,3.88001723 C11.0826983,2.19243641 7.7462815,0.0928292812 1.528553,0.0928292812 C1.09182357,0.0928292812 0.67285733,0.105473801 0.263691471,0.125519991 L0.263691471,9.39148595 C0.657237975,9.36095406 1.07681674,9.3449171 1.528553,9.3449171 C5.11120436,9.3449171 6.69794712,10.3435258 8.89415099,11.7257877 C11.5751674,13.4133685 14.911278,15.5129757 21.1290065,15.5129757 C27.3470412,15.5129757 30.6834581,13.4130601 33.3644745,11.7257877 C35.5606784,10.3438342 37.1477274,9.3449171 40.7303787,9.3449171 C44.3133364,9.3449171 45.9003854,10.3435258 48.0968955,11.7257877 C50.7779119,13.4133685 54.1143288,15.5129757 60.3323635,15.5129757 C66.5503983,15.5129757 69.8868151,13.4130601 72.5678315,11.7257877 C74.7643417,10.3438342 76.3513907,9.3449171 79.9343483,9.3449171 L79.9343483,0.0928292812 C73.7163136,0.0928292812 70.3798967,2.19243641 67.6988803,3.88001723 Z" id="XMLID_3626_"></path>
                                </g>
                            </g>
                            <path d="M293.281152,106.464307 C283.421728,106.464307 283.421728,100.305556 273.562304,100.305556 C263.703497,100.305556 263.703497,106.464307 253.844381,106.464307 C243.985573,106.464307 243.985573,100.305556 234.127074,100.305556 C233.681271,100.305556 233.261963,100.322184 232.854671,100.346203 L232.854671,134.104167 L313,134.104167 L313,100.305556 C303.140576,100.305556 303.140576,106.464307 293.281152,106.464307 Z" id="XMLID_3598_" fill="#33BBFF"></path>
                            <path d="M156.5,122.928819 C166.280658,122.928819 166.280658,129.087571 176.061621,129.087571 C185.84289,129.087571 185.84289,122.928819 195.623854,122.928819 C205.404817,122.928819 205.404817,129.087571 215.186086,129.087571 C224.966744,129.087571 224.966744,122.928819 234.747402,122.928819 C244.528671,122.928819 244.528671,129.087571 254.309634,129.087571 C264.091209,129.087571 264.091209,122.928819 273.872478,122.928819 C283.654359,122.928819 283.654359,129.087571 293.436239,129.087571 C303.21812,129.087571 303.21812,122.928819 313,122.928819 L313,156.727431 L156.5,156.727431 L156.5,122.928819 Z" id="XMLID_2_" fill="#66E6FF"></path>
                            <path d="M292.962449,133.831597 C286.778026,133.831597 283.459643,131.678724 280.793119,129.9489 C278.608482,128.532095 277.030012,127.507986 273.466421,127.507986 C269.903136,127.507986 268.324665,128.531779 266.140333,129.9489 C263.473808,131.67904 260.155426,133.831597 253.971002,133.831597 C247.786883,133.831597 244.468806,131.678724 241.802281,129.9489 C239.617949,128.532095 238.039783,127.507986 234.476497,127.507986 C230.913516,127.507986 229.33535,128.531779 227.151323,129.9489 C224.485103,131.678724 221.166721,133.831597 214.982906,133.831597 C208.798787,133.831597 205.480709,131.678724 202.814185,129.9489 C200.629852,128.532095 199.051687,127.507986 195.488401,127.507986 C191.925115,127.507986 190.34695,128.531779 188.162617,129.9489 C185.496093,131.67904 182.178015,133.831597 175.993896,133.831597 C169.809777,133.831597 166.491699,131.678408 163.825175,129.9489 C161.640842,128.532095 160.062981,127.507986 156.5,127.507986 L156.5,118.022569 C162.683815,118.022569 166.002197,120.175443 168.668417,121.905267 C170.852749,123.322072 172.430915,124.346181 175.993896,124.346181 C179.556877,124.346181 181.135043,123.322388 183.319375,121.905267 C185.9859,120.175127 189.304282,118.022569 195.488401,118.022569 C201.67252,118.022569 204.990902,120.175443 207.657427,121.905267 C209.841759,123.322072 211.419925,124.346181 214.982906,124.346181 C218.545887,124.346181 220.124053,123.322388 222.308081,121.905267 C224.974301,120.175443 228.292683,118.022569 234.476497,118.022569 C240.660616,118.022569 243.978999,120.175443 246.645523,121.905267 C248.829856,123.322072 250.408021,124.346181 253.971002,124.346181 C257.534288,124.346181 259.112758,123.322388 261.297091,121.905267 C263.963615,120.175127 267.281998,118.022569 273.466421,118.022569 C279.650845,118.022569 282.969227,120.175443 285.635752,121.905267 C287.820389,123.322072 289.398859,124.346181 292.962449,124.346181 C296.52604,124.346181 298.10451,123.322388 300.289147,121.905267 C302.955672,120.175127 306.274054,118.022569 312.458478,118.022569 L312.458478,127.507986 C308.894887,127.507986 307.316417,128.531779 305.13178,129.9489 C302.465255,131.678724 299.146873,133.831597 292.962449,133.831597 Z" id="XMLID_330_" fill="#33BBFF"></path>
                            <path d="M292.962449,133.831597 C286.778026,133.831597 283.459643,131.678724 280.793119,129.9489 C278.608482,128.532095 277.030012,127.507986 273.466421,127.507986 C269.903136,127.507986 268.324665,128.531779 266.140333,129.9489 C263.473808,131.67904 260.155426,133.831597 253.971002,133.831597 C247.786883,133.831597 244.468806,131.678724 241.802281,129.9489 C239.617949,128.532095 238.039783,127.507986 234.476497,127.507986 C230.913516,127.507986 229.33535,128.531779 227.151323,129.9489 C224.485103,131.678724 221.166721,133.831597 214.982906,133.831597 C208.798787,133.831597 205.480709,131.678724 202.814185,129.9489 C200.629852,128.532095 199.051687,127.507986 195.488401,127.507986 C191.925115,127.507986 190.34695,128.531779 188.162617,129.9489 C185.496093,131.67904 182.178015,133.831597 175.993896,133.831597 C169.809777,133.831597 166.491699,131.678408 163.825175,129.9489 C161.640842,128.532095 160.062981,127.507986 156.5,127.507986 L156.5,118.022569 C162.683815,118.022569 166.002197,120.175443 168.668417,121.905267 C170.852749,123.322072 172.430915,124.346181 175.993896,124.346181 C179.556877,124.346181 181.135043,123.322388 183.319375,121.905267 C185.9859,120.175127 189.304282,118.022569 195.488401,118.022569 C201.67252,118.022569 204.990902,120.175443 207.657427,121.905267 C209.841759,123.322072 211.419925,124.346181 214.982906,124.346181 C218.545887,124.346181 220.124053,123.322388 222.308081,121.905267 C224.974301,120.175443 228.292683,118.022569 234.476497,118.022569 C240.660616,118.022569 243.978999,120.175443 246.645523,121.905267 C248.829856,123.322072 250.408021,124.346181 253.971002,124.346181 C257.534288,124.346181 259.112758,123.322388 261.297091,121.905267 C263.963615,120.175127 267.281998,118.022569 273.466421,118.022569 C279.650845,118.022569 282.969227,120.175443 285.635752,121.905267 C287.820389,123.322072 289.398859,124.346181 292.962449,124.346181 C296.52604,124.346181 298.10451,123.322388 300.289147,121.905267 C302.955672,120.175127 306.274054,118.022569 312.458478,118.022569 L312.458478,127.507986 C308.894887,127.507986 307.316417,128.531779 305.13178,129.9489 C302.465255,131.678724 299.146873,133.831597 292.962449,133.831597 Z" id="XMLID_330_" fill="#33BBFF"></path>
                            <path d="M292.962449,156.182292 C286.778026,156.182292 283.459643,154.029418 280.793119,152.299594 C278.608482,150.882789 277.030012,149.858681 273.466421,149.858681 C269.903136,149.858681 268.324665,150.882473 266.140333,152.299594 C263.473808,154.029734 260.155426,156.182292 253.971002,156.182292 C247.786883,156.182292 244.468806,154.029418 241.802281,152.299594 C239.617949,150.882789 238.039783,149.858681 234.476497,149.858681 C230.913516,149.858681 229.33535,150.882473 227.151323,152.299594 C224.485103,154.029418 221.166721,156.182292 214.982906,156.182292 C208.798787,156.182292 205.480709,154.029418 202.814185,152.299594 C200.629852,150.882789 199.051687,149.858681 195.488401,149.858681 C191.925115,149.858681 190.34695,150.882473 188.162617,152.299594 C185.496093,154.029734 182.178015,156.182292 175.993896,156.182292 C169.809777,156.182292 166.491699,154.029102 163.825175,152.299594 C161.640842,150.882789 160.062981,149.858681 156.5,149.858681 L156.5,140.373264 C162.683815,140.373264 166.002197,142.526137 168.668417,144.255961 C170.852749,145.672766 172.430915,146.696875 175.993896,146.696875 C179.556877,146.696875 181.135043,145.673082 183.319375,144.255961 C185.9859,142.525821 189.304282,140.373264 195.488401,140.373264 C201.67252,140.373264 204.990902,142.526137 207.657427,144.255961 C209.841759,145.672766 211.419925,146.696875 214.982906,146.696875 C218.545887,146.696875 220.124053,145.673082 222.308081,144.255961 C224.974301,142.526137 228.292683,140.373264 234.476497,140.373264 C240.660616,140.373264 243.978999,142.526137 246.645523,144.255961 C248.829856,145.672766 250.408021,146.696875 253.971002,146.696875 C257.534288,146.696875 259.112758,145.673082 261.297091,144.255961 C263.963615,142.525821 267.281998,140.373264 273.466421,140.373264 C279.650845,140.373264 282.969227,142.526137 285.635752,144.255961 C287.820389,145.672766 289.398859,146.696875 292.962449,146.696875 C296.52604,146.696875 298.10451,145.673082 300.289147,144.255961 C302.955672,142.525821 306.274054,140.373264 312.458478,140.373264 L312.458478,149.858681 C308.894887,149.858681 307.316417,150.882473 305.13178,152.299594 C302.465255,154.029734 299.146873,156.182292 292.962449,156.182292 Z" id="XMLID_186_" fill="#33BBFF"></path>
                            <g id="Group-2" stroke-width="1" transform="translate(232.313149, 98.125000)" fill="#008ADF">
                                <g id="Group">
                                    <path d="M68.1563052,3.88001723 C65.9449538,5.26197075 64.3471814,6.26088783 60.7400146,6.26088783 C57.1328478,6.26088783 55.5350755,5.26227915 53.3237241,3.88001723 C50.6245927,2.19243641 47.2656325,0.0928292812 41.005584,0.0928292812 C34.7455355,0.0928292812 31.3865753,2.19274481 28.6874439,3.88001723 C26.4764008,5.26197075 24.8786285,6.26088783 21.27177,6.26088783 C17.6652199,6.26088783 16.0677559,5.26227915 13.8567128,3.88001723 C11.1575814,2.19243641 7.79862124,0.0928292812 1.53888106,0.0928292812 C1.09920076,0.0928292812 0.677403664,0.105473801 0.26547317,0.125519991 L0.26547317,9.39148595 C0.661678772,9.36095406 1.08409253,9.3449171 1.53888106,9.3449171 C5.14573953,9.3449171 6.74320352,10.3435258 8.95424661,11.7257877 C11.653378,13.4133685 15.0120299,15.5129757 21.27177,15.5129757 C27.5318185,15.5129757 30.8907787,13.4130601 33.5899101,11.7257877 C35.8009532,10.3438342 37.3987255,9.3449171 41.005584,9.3449171 C44.6127508,9.3449171 46.2105231,10.3435258 48.4218745,11.7257877 C51.1210059,13.4133685 54.4799661,15.5129757 60.7400146,15.5129757 C67.0000632,15.5129757 70.3590233,13.4130601 73.0581547,11.7257877 C75.2695061,10.3438342 76.8672785,9.3449171 80.4744453,9.3449171 L80.4744453,0.0928292812 C74.2143968,0.0928292812 70.8554366,2.19243641 68.1563052,3.88001723 Z" id="XMLID_3626_"></path>
                                </g>
                            </g>
                        </g>
                        <g id="denmark" stroke-width="1" transform="translate(79.240506, 0.000000)">
                            <path d="M21.4288441,14.9152542 L1.35280144,14.9152542 C1.15272354,14.9152542 0.990506329,14.7495506 0.990506329,14.5451725 L0.990506329,1.36443199 C0.990506329,1.16005393 1.15272354,0.994350282 1.35280144,0.994350282 L21.4288441,0.994350282 C21.628922,0.994350282 21.7911392,1.16005393 21.7911392,1.36443199 L21.7911392,14.5451725 C21.7911392,14.7495506 21.628965,14.9152542 21.4288441,14.9152542 Z" id="Path" fill="#FF4B55"></path>
                            <polygon id="Path" fill="#F5F5F5" points="21.7911392 6.85578583 9.59767662 6.85578583 9.59767662 0.994350282 7.44588404 0.994350282 7.44588404 6.85578583 0.990506329 6.85578583 0.990506329 9.05381869 7.44588404 9.05381869 7.44588404 14.9152542 9.59767662 14.9152542 9.59767662 9.05381869 21.7911392 9.05381869"></polygon>
                            <path d="M0.495253165,19.8870056 C0.221726929,19.8870056 0,19.5202399 0,19.0678341 L0,0.812445444 C0,0.363723994 0.219913954,0 0.491186919,0 L0.495253165,0 C0.7687794,0 0.990506329,0.366765738 0.990506329,0.819214395 L0.990506329,19.0678769 C0.990506329,19.5202399 0.7687794,19.8870056 0.495253165,19.8870056 Z" id="Path" fill="#2E3033"></path>
                        </g>
                    </g>
                </g>
            </g>
        </g>
    </g>
</svg>