<?xml version="1.0" encoding="UTF-8"?>
<svg width="47px" height="62px" viewBox="0 0 47 62" version="1.1" xmlns="http://www.w3.org/2000/svg" xmlns:xlink="http://www.w3.org/1999/xlink">
    <!-- Generator: Sketch 52.4 (67378) - http://www.bohemiancoding.com/sketch -->
    <title>anchor</title>
    <desc>Created with Sketch.</desc>
    <g id="Page-1" stroke="none" stroke-width="1" fill="none" fill-rule="evenodd">
        <g id="Home-Screen-Boat-Haven" transform="translate(-157.000000, -174.000000)">
            <g id="anchor" transform="translate(157.000000, 174.000000)">
                <path d="M23.5,0 C19.3580082,0 16,3.1339041 16,7 C16,10.865859 19.3577544,14 23.5,14 C27.6422456,14 31,10.8660959 31,7 C30.9998731,3.1339041 27.6419918,0 23.5,0 Z M23.5,9.8940645 C21.7873676,9.8940645 20.3989628,8.59822003 20.3989628,6.99976312 C20.3989628,5.40130622 21.7873676,4.10546174 23.5,4.10546174 C25.2126324,4.10546174 26.6010372,5.40130622 26.6010372,6.99976312 C26.6010372,8.59822003 25.2125055,9.8940645 23.5,9.8940645 Z" id="Shape" fill="#97A6AB" fill-rule="nonzero"></path>
                <path d="M17.664327,7 C17.664327,3.40903861 20.433637,0.451490643 24,0.0485601164 C23.7267559,0.0176474569 23.4493883,0 23.1678972,0 C19.2093143,0 16,3.1339041 16,7 C16,10.865859 19.2090718,14 23.1678972,14 C23.4495096,14 23.7268772,13.9823525 24,13.9514399 C20.433637,13.5485094 17.664327,10.5908429 17.664327,7 Z" id="Path" fill="#738184"></path>
                <path d="M45.4866836,48.1084379 L43.4449587,46.0675471 C43.4449587,46.0675471 39.8331443,53.7711039 29.6941391,57.3172049 C27.1577752,58.2008407 24.6304179,59.9269902 23.5036048,62 C22.3780089,59.9269902 19.8404278,58.2008407 17.302725,57.3172049 C7.17528254,53.7711039 3.55324428,46.0675471 3.55324428,46.0675471 L1.51151936,48.1084379 C-2.70033702,40.2160607 3.22681172,32.5857448 3.22681172,32.5857448 C3.22681172,41.5313555 10.5968605,43.1098066 10.5968605,43.1098066 L6.91177527,44.0255613 C7.60687459,45.8043908 8.88022935,47.2981647 10.3758309,48.5297556 C14.3345256,51.802359 20.3349451,48.8983934 20.3349451,43.7621617 L20.3349451,22 L26.6732382,22 L26.6732382,43.7621617 C26.6732382,48.8982718 32.6736578,51.8022374 36.6323525,48.5297556 C37.9274938,47.4663025 39.0543068,46.1934679 39.7803211,44.7305963 C39.8959478,44.4994373 40.0013508,44.26694 40.0964081,44.035781 L36.4113228,43.1098066 C36.4113228,43.1098066 43.7813717,41.5313555 43.7813717,32.5857448 C43.7813717,32.5857448 43.7813717,32.5857448 43.7827105,32.5870831 C43.889574,32.7257785 49.6599572,40.2893016 45.4866836,48.1084379 Z" id="Path" fill="#97A6AB"></path>
                <path d="M22,22.8460036 L22,52.77151 C22,53.5377482 21.3163231,54.1159857 20.5723539,53.9801392 C17.9897091,53.5091554 12.5718696,52.1504447 10,48.7593127 C13.9377705,52.0602485 19.9064742,49.131142 19.9064742,43.9504436 L19.9064742,22 L20.9686129,22 L22,22.8460036 Z" id="Path" fill="#738184"></path>
                <path d="M35,15.4306157 C27.7989158,13.5231281 20.2010842,13.5231281 13,15.4306157 C13,17.4768719 13,19.5231281 13,21.5693843 C20.2010842,23.4768719 27.7989158,23.4768719 35,21.5693843 C35,19.5231281 35,17.4768719 35,15.4306157 Z" id="Path" fill="#CC7D0A"></path>
                <path d="M13,19 C13,19.8578871 13,20.7155419 13,21.573429 C20.2010842,23.4755237 27.7989158,23.4755237 35,21.573429 C35,20.7155419 35,19.8578871 35,19 C27.7989158,20.9022107 20.200964,20.9022107 13,19 Z" id="Path" fill="#AD6405"></path>
                <g id="Group" transform="translate(0.000000, 32.000000)" fill="#738184">
                    <path d="M4.20804878,13.63575 L3.67231707,13.880375 L1.62658537,15.97725 C-2.59353659,7.868375 3.3452439,0.028625 3.3452439,0.028625 C3.3452439,0.028625 1.36378049,6.524 4.7397561,11.81975 C5.14804878,12.46025 4.8897561,13.324375 4.20804878,13.63575 Z" id="Path"></path>
                    <path d="M40.5491463,11.87925 L40.2879268,11.792875 L36.5956098,10.8415 C36.5956098,10.8415 43.980122,9.21975 43.980122,0.02875 C43.980122,0.02875 43.980122,0.02875 43.9814634,0.030125 C44.0268293,0.15525 46.4678049,6.803125 43.197439,11.06325 C42.5721951,11.877625 41.5114634,12.1975 40.5491463,11.87925 Z" id="Path"></path>
                </g>
            </g>
        </g>
    </g>
</svg>