<?xml version="1.0" encoding="UTF-8"?>
<svg width="31px" height="31px" viewBox="0 0 31 31" version="1.1" xmlns="http://www.w3.org/2000/svg" xmlns:xlink="http://www.w3.org/1999/xlink">
    <!-- Generator: Sketch 52.4 (67378) - http://www.bohemiancoding.com/sketch -->
    <title>Shape</title>
    <desc>Created with Sketch.</desc>
    <g id="Page-1" stroke="none" stroke-width="1" fill="none" fill-rule="evenodd">
        <g id="Backpack-Screen-Items-2" transform="translate(-16.000000, -40.000000)" fill="#FFFFFF" fill-rule="nonzero">
            <path d="M31.5,40 C22.9391373,40 16,46.9391373 16,55.5 C16,64.0598497 22.9391373,71 31.5,71 C40.0608627,71 47,64.0598497 47,55.5 C47,46.9391373 40.0608627,40 31.5,40 Z M38.28125,56.46875 L28.0260752,56.46875 L32.0182369,60.4609624 C32.3970752,60.83975 32.3970752,61.4529624 32.0182369,61.8307369 C31.6394493,62.2095752 31.0262876,62.2095752 30.6484624,61.8307369 L25.16825,56.3505752 C24.9367124,56.1190376 24.8640752,55.8003252 24.9173121,55.5 C24.8640245,55.1996748 24.9367124,54.8809624 25.1692124,54.6484624 L30.6494248,49.16825 C31.0282124,48.7894624 31.6414248,48.7894624 32.01925,49.16825 C32.3980376,49.5470376 32.3980376,50.16025 32.01925,50.5380752 L28.0260752,54.53125 L38.28125,54.53125 C38.816,54.53125 39.25,54.96525 39.25,55.5 C39.25,56.03475 38.816,56.46875 38.28125,56.46875 Z" id="Shape"></path>
        </g>
    </g>
</svg>