<?xml version="1.0" encoding="UTF-8"?>
<svg width="41px" height="58px" viewBox="0 0 41 58" version="1.1" xmlns="http://www.w3.org/2000/svg" xmlns:xlink="http://www.w3.org/1999/xlink">
    <!-- Generator: Sketch 52.4 (67378) - http://www.bohemiancoding.com/sketch -->
    <title>backpack (2)</title>
    <desc>Created with Sketch.</desc>
    <g id="Symbols" stroke="none" stroke-width="1" fill="none" fill-rule="evenodd">
        <g id="backpack-colors" transform="translate(-29.000000, -15.000000)">
            <g id="backpack-(2)" transform="translate(29.000000, 15.000000)">
                <g id="Group">
                    <path d="M15.8435389,6.94323438 C15.8435389,6.94323438 16.8634139,5.82673438 17.3763694,5.19689063 C18.1136861,4.29154688 19.2399333,3.71188672 20.5,3.71188672 C21.7599528,3.71188672 22.8862,4.29154688 23.6236306,5.19689063 L25.3941472,7.11360938 L27.1861889,7.31536328 L28.167,6.57552344 C27.6137278,2.86023828 24.3868,1.42108547e-14 20.5,1.42108547e-14 C16.6132,1.42108547e-14 13.385475,2.860125 12.8322028,6.57552344 L13.6789667,7.44835547 L15.8435389,6.94323438 Z" id="Path" fill="#7ED321"></path>
                    <g transform="translate(12.641667, 5.097656)" fill="#7ED321" id="Path">
                        <path d="M11.8704111,2.37596094 L13.6487861,3.87761719 L15.5452639,3.59158203 C15.5863778,3.27065625 15.6099528,2.94429297 15.6099528,2.61249219 C15.6099528,2.22710937 15.5805694,1.84841016 15.5253333,1.47798047 C14.0959139,0.835449219 12.5720806,0.366917969 10.9816222,0.0995742187 C11.4944639,0.729417969 11.8196167,1.51649609 11.8704111,2.37596094 Z"></path>
                        <path d="M3.84636944,2.37596094 C3.89705,1.51649609 4.22220278,0.729417969 4.73515833,0.0995742188 C3.1447,0.366917969 1.62086667,0.835449219 0.191447222,1.47798047 C0.136325,1.84841016 0.106827778,2.22699609 0.106827778,2.61249219 C0.106827778,2.94440625 0.130402778,3.27065625 0.171516667,3.59158203 L2.16138333,3.84748437 L3.84636944,2.37596094 Z"></path>
                    </g>
                    <path d="M7.52839722,11.3249531 L8.586425,9.22007422 L8.586425,5.09584375 C8.586425,4.07076172 7.75105,3.23984375 6.72046944,3.23984375 L3.84101667,3.23984375 C2.81043611,3.23984375 1.97506111,4.07076172 1.97506111,5.09584375 L1.97506111,21.434625 L1.97506111,22.4870078 C2.52024722,17.5658437 3.92529444,14.3057227 7.52839722,11.3249531 Z" id="Path" fill="#7ED321"></path>
                    <path d="M1.975175,21.4345117 L1.975175,23.5393906 L8.58653889,11.3249531 L8.58653889,9.22007422 C4.98332222,12.2008437 2.52024722,16.5134609 1.975175,21.4345117 Z" id="Path" fill="#7ED321"></path>
                    <path d="M33.4716028,11.3249531 L32.413575,9.22007422 L32.413575,5.09584375 C32.413575,4.07076172 33.24895,3.23984375 34.2795306,3.23984375 L37.1589833,3.23984375 C38.1895639,3.23984375 39.0249389,4.07076172 39.0249389,5.09584375 L39.0249389,21.434625 L39.0249389,22.4870078 C38.4797528,17.5658437 37.0747056,14.3057227 33.4716028,11.3249531 Z" id="Path" fill="#7ED321"></path>
                    <path d="M39.0249389,21.4345117 L39.0249389,23.5393906 L32.413575,11.3249531 L32.413575,9.22007422 C36.0166778,12.2008437 38.4797528,16.5134609 39.0249389,21.4345117 Z" id="Path" fill="#7ED321"></path>
                    <path d="M35.3883528,56.9476172 L5.61164722,56.9476172 C0.129719444,56.9476172 0.129719444,51.2448125 0.129719444,51.2448125 L1.90114722,24.3687227 C2.54359444,14.6213242 10.679475,7.04212891 20.5,7.04212891 C30.320525,7.04212891 38.4564056,14.6214375 39.0988528,24.3686094 L40.8702806,51.2446992 C40.8702806,51.2446992 40.8702806,56.9476172 35.3883528,56.9476172 Z" id="Path" fill="#7ED321"></path>
                    <path d="M40.8702806,51.2446992 C40.4527639,53.863082 38.1728222,55.8951211 35.3883528,55.8951211 L5.61164722,55.8951211 C2.82717778,55.8951211 0.547236111,53.863082 0.129719444,51.2446992 L0.0722055556,52.1170781 C-0.137691667,55.3018672 2.40282778,58 5.61164722,58 L35.3883528,58 C38.5971722,58 41.1376917,55.3018672 40.9277944,52.1170781 L40.8702806,51.2446992 Z" id="Path" fill="#7ED321"></path>
                    <path d="M32.4011611,50.8901289 L8.59883889,50.8901289 C6.33017222,50.8901289 6.33017222,48.1145117 6.33017222,48.1145117 L7.05496111,35.6406602 C7.126825,34.4035156 8.15638056,33.4368867 9.402325,33.4368867 L31.5977889,33.4368867 C32.8436194,33.4368867 33.8732889,34.4035156 33.9451528,35.6406602 L34.6699417,48.1145117 C34.6698278,48.1145117 34.6699417,50.8901289 32.4011611,50.8901289 Z" id="Path" fill="#D0021B"></path>
                    <path d="M34.6698278,48.1145117 C34.3991139,49.1025508 33.49085,49.8376328 32.4011611,49.8376328 L8.59883889,49.8376328 C7.50915,49.8376328 6.60088611,49.1025508 6.33017222,48.1145117 L6.251475,49.4689023 C6.17346111,50.8112852 7.24686389,51.9425117 8.59883889,51.9425117 L32.401275,51.9425117 C33.7531361,51.9425117 34.8266528,50.8112852 34.7486389,49.4689023 L34.6698278,48.1145117 Z" id="Path" fill="#D0021B"></path>
                    <path d="M34.1318167,38.8549023 L34.0298861,37.1008555 L6.97011389,37.1008555 L6.86818333,38.8549023 L29.1779917,38.8549023 L29.1779917,40.8402695 C29.1779917,41.3246602 29.5727306,41.717293 30.0597194,41.717293 C30.5467083,41.717293 30.9414472,41.3246602 30.9414472,40.8402695 L30.9414472,38.8549023 L34.1318167,38.8549023 Z" id="Path" fill="#F8E71C"></path>
                </g>
                <path d="M8.74011229,26.1637048 C9.1635677,19.2216546 14.5488159,13.783742 21.000112,13.783742 C27.4514081,13.783742 32.8366563,19.2216546 33.2601118,26.1637048 C33.2889633,26.6363419 33.6722286,26.9999884 34.1283525,26.9999884 C34.1466514,26.9999884 34.1650625,26.9992986 34.1834736,26.9981489 C34.6635095,26.9674522 35.0282514,26.5440219 34.9982772,26.052415 C34.7655564,22.2367132 33.2052152,18.6936026 30.6046466,16.0757614 C27.9936376,13.4474581 24.5826436,12 20.9999998,12 C17.4173559,12 14.0063619,13.4474581 11.3953529,16.0757614 C8.79478429,18.6936026 7.23444314,22.2367132 7.00172228,26.052415 C6.9717481,26.5440219 7.33660232,26.9674522 7.81652594,26.9981489 C8.29600051,27.0296504 8.71025037,26.6553117 8.74011229,26.1637048 Z" id="Path" fill="#D0021B"></path>
            </g>
        </g>
    </g>
</svg>