<?xml version="1.0" encoding="UTF-8"?>
<svg width="14px" height="18px" viewBox="0 0 14 18" version="1.1" xmlns="http://www.w3.org/2000/svg" xmlns:xlink="http://www.w3.org/1999/xlink">
    <!-- Generator: Sketch 52.4 (67378) - http://www.bohemiancoding.com/sketch -->
    <title>school-book-bag</title>
    <desc>Created with Sketch.</desc>
    <g id="Page-1" stroke="none" stroke-width="1" fill="none" fill-rule="evenodd">
        <g id="Page-of-Recipe" transform="translate(-252.000000, -405.000000)" fill="#F3F5F8" fill-rule="nonzero">
            <g id="Group-5" transform="translate(78.000000, 395.000000)">
                <g id="school-book-bag" transform="translate(174.000000, 10.000000)">
                    <path d="M2.63580344,12.7580348 L11.3642868,12.7580348 L11.3642868,15.2576977 L2.63580344,15.2576977 L2.63580344,12.7580348 Z M13.9864462,1.94830764 L12.9932257,6.05016407 C13.3781727,6.88740055 13.5954004,7.81741358 13.5971045,8.79741089 L13.6101992,16.3681395 C13.6109167,16.7985796 13.4443635,17.2036679 13.141303,17.5086079 C12.8380631,17.8135479 12.4345504,17.9819301 12.0051176,17.9826493 L2.01371772,18 C2.01344865,18 2.01120642,18 2.01093735,18 C1.12597198,18 0.404600087,17.2781948 0.402985677,16.3911539 L0.389980714,8.82042523 C0.388276615,7.83800063 0.599405477,6.88829955 1.00031712,6.02301434 L0.0135542761,1.94830764 C-0.0377480642,1.736324 0.0598340097,1.51615948 0.251231202,1.41223536 L1.90160596,0.516024633 C2.03246281,0.444913921 2.18879144,0.438890637 2.32476058,0.499393177 C2.46072972,0.559985616 2.56100248,0.680361397 2.59616072,0.825369713 L3.21492794,3.38068054 C3.50955764,3.17373129 3.81943453,2.99312267 4.14097106,2.83822538 L4.14097106,2.49966288 C4.14088137,1.12131973 5.25957733,0 6.6346953,0 L7.3653052,0 C8.74042318,0 9.85911914,1.12131973 9.85911914,2.49966288 L9.85911914,2.84946285 C10.1819113,3.00642783 10.4908016,3.18802535 10.7819334,3.39335641 L11.4037501,0.825369713 C11.4389083,0.680361397 11.5390914,0.559985616 11.6751502,0.499393177 C11.8111194,0.438800737 11.9673583,0.444913921 12.0983049,0.516024633 L13.7486796,1.41223536 C13.9401665,1.51624938 14.0377486,1.736324 13.9864462,1.94830764 Z M5.10172397,2.46613026 C5.70416771,2.28597114 6.33567082,2.19094709 6.98206237,2.1898683 L6.99381168,2.1898683 C7.65598857,2.1898683 8.29520497,2.28965703 8.89872498,2.47296265 C8.88428499,1.63716456 8.20255581,0.961477952 7.36539489,0.961477952 L6.63478499,0.961477952 C5.79977662,0.961388052 5.11975154,1.63347867 5.10172397,2.46613026 Z M12.3234253,12.2773408 C12.3234253,12.0118668 12.1087088,11.7966467 11.843856,11.7966467 L2.15623419,11.7966467 C1.89138137,11.7966467 1.67666493,12.0118668 1.67666493,12.2773408 L1.67666493,15.7384816 C1.67666493,16.0039556 1.89138137,16.2191756 2.15623419,16.2191756 L11.843856,16.2191756 C12.1087088,16.2191756 12.3234253,16.0039556 12.3234253,15.7384816 L12.3234253,12.2773408 Z M12.3234253,9.04085944 C12.3234253,6.09862004 9.93535514,3.70494898 7.00000025,3.70494898 C4.06464537,3.70494898 1.67657524,6.09862004 1.67657524,9.04085944 C1.67657524,9.30633344 1.89129168,9.52155347 2.1561445,9.52155347 C2.42099731,9.52155347 2.63571375,9.30633344 2.63571375,9.04085944 C2.63571375,6.62875893 4.59345411,4.66642693 6.99991056,4.66642693 C9.40636702,4.66642693 11.3641074,6.62875893 11.3641074,9.04085944 C11.3641074,9.30633344 11.5788238,9.52155347 11.8436766,9.52155347 C12.1085294,9.52155347 12.3234253,9.30633344 12.3234253,9.04085944 Z" id="Shape"></path>
                </g>
            </g>
        </g>
    </g>
</svg>