<?xml version="1.0" encoding="UTF-8"?>
<svg width="77px" height="93px" viewBox="0 0 77 93" version="1.1" xmlns="http://www.w3.org/2000/svg" xmlns:xlink="http://www.w3.org/1999/xlink">
    <!-- Generator: Sketch 52.4 (67378) - http://www.bohemiancoding.com/sketch -->
    <title>backpack colors</title>
    <desc>Created with Sketch.</desc>
    <g id="Page-1" stroke="none" stroke-width="1" fill="none" fill-rule="evenodd">
        <g id="Added-item" transform="translate(-131.000000, -180.000000)">
            <g id="backpack-colors" transform="translate(131.000000, 180.000000)">
                <g id="backpack-(2)" transform="translate(21.000000, 12.000000)">
                    <g id="Group">
                        <path d="M21.6399556,9.69658594 C21.6399556,9.69658594 23.0329556,8.13733594 23.7335778,7.25772656 C24.7406444,5.99336719 26.2789333,5.1838418 28,5.1838418 C29.7209111,5.1838418 31.2592,5.99336719 32.2664222,7.25772656 L34.6846889,9.93452344 L37.1323556,10.2162832 L38.472,9.18305859 C37.7163111,3.9944707 33.3088,1.42108547e-14 28,1.42108547e-14 C22.6912,1.42108547e-14 18.2826,3.9943125 17.5269111,9.18305859 L18.6834667,10.4020137 L21.6399556,9.69658594 Z" id="Path" fill="#7ED321"></path>
                        <g transform="translate(17.266667, 7.119141)" fill="#7ED321" id="Path">
                            <path d="M16.2132444,3.31815234 L18.6422444,5.41529297 L21.2325556,5.01583008 C21.2887111,4.56764062 21.3209111,4.11185742 21.3209111,3.64848047 C21.3209111,3.11027344 21.2807778,2.58140039 21.2053333,2.06407617 C19.2529556,1.16674805 17.1716222,0.512419922 14.9992889,0.139060547 C15.6997556,1.01866992 16.1438667,2.11786523 16.2132444,3.31815234 Z"></path>
                            <path d="M5.25357778,3.31815234 C5.3228,2.11786523 5.76691111,1.01866992 6.46753333,0.139060547 C4.2952,0.512419922 2.21386667,1.16674805 0.261488889,2.06407617 C0.1862,2.58140039 0.145911111,3.11011523 0.145911111,3.64848047 C0.145911111,4.11201562 0.178111111,4.56764062 0.234266667,5.01583008 L2.95213333,5.37321094 L5.25357778,3.31815234 Z"></path>
                        </g>
                        <path d="M10.2826889,15.8158828 L11.7278,12.8763105 L11.7278,7.11660938 C11.7278,5.6850293 10.5868,4.52460937 9.17917778,4.52460937 L5.24626667,4.52460937 C3.83864444,4.52460937 2.69764444,5.6850293 2.69764444,7.11660938 L2.69764444,29.9345625 L2.69764444,31.4042695 C3.44228889,24.5316094 5.36137778,19.9786816 10.2826889,15.8158828 Z" id="Path" fill="#7ED321"></path>
                        <path d="M2.6978,29.9344043 L2.6978,32.8739766 L11.7279556,15.8158828 L11.7279556,12.8763105 C6.80648889,17.0391094 3.44228889,23.0619023 2.6978,29.9344043 Z" id="Path" fill="#7ED321"></path>
                        <path d="M45.7173111,15.8158828 L44.2722,12.8763105 L44.2722,7.11660938 C44.2722,5.6850293 45.4132,4.52460937 46.8208222,4.52460937 L50.7537333,4.52460937 C52.1613556,4.52460937 53.3023556,5.6850293 53.3023556,7.11660938 L53.3023556,29.9345625 L53.3023556,31.4042695 C52.5577111,24.5316094 50.6386222,19.9786816 45.7173111,15.8158828 Z" id="Path" fill="#7ED321"></path>
                        <path d="M53.3023556,29.9344043 L53.3023556,32.8739766 L44.2722,15.8158828 L44.2722,12.8763105 C49.1935111,17.0391094 52.5577111,23.0619023 53.3023556,29.9344043 Z" id="Path" fill="#7ED321"></path>
                        <path d="M48.3353111,79.530293 L7.66468889,79.530293 C0.177177778,79.530293 0.177177778,71.5660313 0.177177778,71.5660313 L2.59668889,34.0321816 C3.47417778,20.4194355 14.5866,9.83469727 28,9.83469727 C41.4134,9.83469727 52.5258222,20.4195938 53.4033111,34.0320234 L55.8228222,71.565873 C55.8228222,71.565873 55.8228222,79.530293 48.3353111,79.530293 Z" id="Path" fill="#7ED321"></path>
                        <path d="M55.8228222,71.565873 C55.2525556,75.2225801 52.1384889,78.0604277 48.3353111,78.0604277 L7.66468889,78.0604277 C3.86151111,78.0604277 0.747444444,75.2225801 0.177177778,71.565873 L0.0986222222,72.7841953 C-0.188066667,77.231918 3.28191111,81 7.66468889,81 L48.3353111,81 C52.7180889,81 56.1880667,77.231918 55.9013778,72.7841953 L55.8228222,71.565873 Z" id="Path" fill="#7ED321"></path>
                        <path d="M44.2552444,71.0706973 L11.7447556,71.0706973 C8.64608889,71.0706973 8.64608889,67.1944043 8.64608889,67.1944043 L9.63604444,49.7740254 C9.7342,48.0462891 11.1404222,46.6963418 12.8422,46.6963418 L43.1579556,46.6963418 C44.8595778,46.6963418 46.2659556,48.0462891 46.3641111,49.7740254 L47.3540667,67.1944043 C47.3539111,67.1944043 47.3540667,71.0706973 44.2552444,71.0706973 Z" id="Path" fill="#D0021B"></path>
                        <path d="M47.3539111,67.1944043 C46.9841556,68.574252 45.7436,69.600832 44.2552444,69.600832 L11.7447556,69.600832 C10.2564,69.600832 9.01584444,68.574252 8.64608889,67.1944043 L8.5386,69.0858809 C8.43204444,70.9605879 9.89815556,72.5404043 11.7447556,72.5404043 L44.2554,72.5404043 C46.1018444,72.5404043 47.5681111,70.9605879 47.4615556,69.0858809 L47.3539111,67.1944043 Z" id="Path" fill="#D0021B"></path>
                        <path d="M46.6190667,54.2628809 L46.4798444,51.8132637 L9.52015556,51.8132637 L9.38093333,54.2628809 L39.8528667,54.2628809 L39.8528667,57.0355488 C39.8528667,57.7120254 40.3920222,58.2603574 41.0571778,58.2603574 C41.7223333,58.2603574 42.2614889,57.7120254 42.2614889,57.0355488 L42.2614889,54.2628809 L46.6190667,54.2628809 Z" id="Path" fill="#F8E71C"></path>
                    </g>
                    <path d="M12.361581,36.8291868 C12.9362705,27.1103164 20.2448216,19.4972388 29.000152,19.4972388 C37.7554825,19.4972388 45.0640336,27.1103164 45.6387231,36.8291868 C45.6778788,37.4908786 46.1980246,37.9999838 46.8170499,37.9999838 C46.841884,37.9999838 46.8668705,37.999018 46.891857,37.9974085 C47.5433343,37.9544331 48.0383412,37.3616306 47.997662,36.673381 C47.6818265,31.3313984 45.5642207,26.3710436 42.0348776,22.706066 C38.4913653,19.0264413 33.8621592,17 28.9999997,17 C24.1378401,17 19.508634,19.0264413 15.9651218,22.706066 C12.4357787,26.3710436 10.3181728,31.3313984 10.0023374,36.673381 C9.96165814,37.3616306 10.4568174,37.9544331 11.1081423,37.9974085 C11.7588578,38.0415105 12.3210541,37.5174364 12.361581,36.8291868 Z" id="Path" fill="#D0021B"></path>
                </g>
                <g id="vote">
                    <ellipse id="Oval" fill="#0C2A4C" cx="21.5" cy="21" rx="21.5" ry="21"></ellipse>
                    <path d="M15.9232068,32.0785219 L10.6113186,25.8890227 C9.67881066,24.8024233 9.83023279,23.1879632 10.9487376,22.2827088 L10.9489899,22.2824637 C12.0679995,21.3772093 13.7306144,21.5240007 14.6626176,22.6106 L17.8091694,26.2769538 L29.2314451,11.0530452 C30.0889991,9.91008188 31.7384908,9.6584045 32.9155455,10.4911209 C34.0926001,11.3238373 34.3517843,12.9255543 33.4942304,14.0682726 L20.0802489,31.9471694 C19.0690015,33.2950034 17.0225314,33.3594544 15.9232068,32.0785219 Z" id="Path" fill="#FFFFFF"></path>
                </g>
            </g>
        </g>
    </g>
</svg>