<?xml version="1.0" encoding="UTF-8"?>
<svg width="360px" height="319px" viewBox="0 0 360 319" version="1.1" xmlns="http://www.w3.org/2000/svg" xmlns:xlink="http://www.w3.org/1999/xlink">
    <!-- Generator: Sketch 52.4 (67378) - http://www.bohemiancoding.com/sketch -->
    <title>boat</title>
    <desc>Created with Sketch.</desc>
    <g id="Page-1" stroke="none" stroke-width="1" fill="none" fill-rule="evenodd">
        <g id="Home-Screen-Boat" transform="translate(0.000000, -288.000000)">
            <g id="boat" transform="translate(-38.000000, 287.000000)">
                <g id="Group-3" transform="translate(0.000000, 211.000000)">
                    <g id="Group-2" transform="translate(283.000000, 0.000000)">
                        <path d="M110.83232,19.797582 C92.7484797,19.797582 92.7484797,8.5 74.6646395,8.5 C56.5819296,8.5 56.5819296,19.797582 38.4986546,19.797582 C20.4159446,19.797582 20.4159446,8.5 2.33379975,8.5 C1.51612221,8.5 0.747041955,8.53050347 0,8.57456404 L0,70.5 L147,70.5 L147,8.5 C128.91616,8.5 128.91616,19.797582 110.83232,19.797582 Z" id="XMLID_3598_" fill="#33BBFF"></path>
                        <g id="Group" transform="translate(0.000000, 0.500000)" fill="#008ADF">
                            <path d="M125.015824,47.9339709 C120.959648,50.4690194 118.028932,52.3014278 111.41248,52.3014278 C104.796028,52.3014278 101.865311,50.4695851 97.8091355,47.9339709 C92.858249,44.8382812 86.6970703,40.9867726 75.2145652,40.9867726 C63.7320601,40.9867726 57.5708815,44.838847 52.6199949,47.9339709 C48.5643852,50.4690194 45.6336685,52.3014278 39.0177819,52.3014278 C32.4024609,52.3014278 29.4723098,50.4695851 25.4167001,47.9339709 C20.4658135,44.8382812 14.3046349,40.9867726 2.82269531,40.9867726 C2.01621094,40.9867726 1.24252887,41.0099677 0.486944633,41.0467403 L0.486944633,58.044181 C1.21368546,57.9881735 1.98849864,57.9587554 2.82269531,57.9587554 C9.43858186,57.9587554 12.368733,59.7905981 16.4243427,62.3262123 C21.3752293,65.4219019 27.5358424,69.2734106 39.0177819,69.2734106 C50.500287,69.2734106 56.6614657,65.4213362 61.6123522,62.3262123 C65.667962,59.7911638 68.5986787,57.9587554 75.2145652,57.9587554 C81.8310173,57.9587554 84.761734,59.7905981 88.8179093,62.3262123 C93.7687959,65.4219019 99.9299745,69.2734106 111.41248,69.2734106 C122.894985,69.2734106 129.056163,65.4213362 134.00705,62.3262123 C138.063225,59.7911638 140.993942,57.9587554 147.610394,57.9587554 L147.610394,40.9867726 C136.127889,40.9862069 129.96671,44.8382812 125.015824,47.9339709 Z" id="XMLID_3600_"></path>
                            <path d="M125.015824,7.11748384 C120.959648,9.65253233 118.028932,11.4849407 111.41248,11.4849407 C104.796028,11.4849407 101.865311,9.65309806 97.8091355,7.11748384 C92.858249,4.02179418 86.6970703,0.17028556 75.2145652,0.17028556 C63.7320601,0.17028556 57.5708815,4.02235991 52.6199949,7.11748384 C48.5643852,9.65253233 45.6336685,11.4849407 39.0177819,11.4849407 C32.4024609,11.4849407 29.4723098,9.65309806 25.4167001,7.11748384 C20.4658135,4.02179418 14.3046349,0.17028556 2.82269531,0.17028556 C2.01621094,0.17028556 1.24252887,0.193480603 0.486944633,0.230253233 L0.486944633,17.227694 C1.21368546,17.1716864 1.98849864,17.1422683 2.82269531,17.1422683 C9.43858186,17.1422683 12.368733,18.974111 16.4243427,21.5097252 C21.3752293,24.6054149 27.5358424,28.4569235 39.0177819,28.4569235 C50.500287,28.4569235 56.6614657,24.6048491 61.6123522,21.5097252 C65.667962,18.9746767 68.5986787,17.1422683 75.2145652,17.1422683 C81.8310173,17.1422683 84.761734,18.974111 88.8179093,21.5097252 C93.7687959,24.6054149 99.9299745,28.4569235 111.41248,28.4569235 C122.894985,28.4569235 129.056163,24.6048491 134.00705,21.5097252 C138.063225,18.9746767 140.993942,17.1422683 147.610394,17.1422683 L147.610394,0.17028556 C136.127889,0.17028556 129.96671,4.02179418 125.015824,7.11748384 Z" id="XMLID_3626_"></path>
                        </g>
                    </g>
                    <g id="Group-2" transform="translate(138.000000, 0.000000)">
                        <path d="M110.83232,19.797582 C92.7484797,19.797582 92.7484797,8.5 74.6646395,8.5 C56.5819296,8.5 56.5819296,19.797582 38.4986546,19.797582 C20.4159446,19.797582 20.4159446,8.5 2.33379975,8.5 C1.51612221,8.5 0.747041955,8.53050347 0,8.57456404 L0,70.5 L147,70.5 L147,8.5 C128.91616,8.5 128.91616,19.797582 110.83232,19.797582 Z" id="XMLID_3598_" fill="#33BBFF"></path>
                        <g id="Group" transform="translate(0.000000, 0.500000)" fill="#008ADF">
                            <path d="M125.015824,47.9339709 C120.959648,50.4690194 118.028932,52.3014278 111.41248,52.3014278 C104.796028,52.3014278 101.865311,50.4695851 97.8091355,47.9339709 C92.858249,44.8382812 86.6970703,40.9867726 75.2145652,40.9867726 C63.7320601,40.9867726 57.5708815,44.838847 52.6199949,47.9339709 C48.5643852,50.4690194 45.6336685,52.3014278 39.0177819,52.3014278 C32.4024609,52.3014278 29.4723098,50.4695851 25.4167001,47.9339709 C20.4658135,44.8382812 14.3046349,40.9867726 2.82269531,40.9867726 C2.01621094,40.9867726 1.24252887,41.0099677 0.486944633,41.0467403 L0.486944633,58.044181 C1.21368546,57.9881735 1.98849864,57.9587554 2.82269531,57.9587554 C9.43858186,57.9587554 12.368733,59.7905981 16.4243427,62.3262123 C21.3752293,65.4219019 27.5358424,69.2734106 39.0177819,69.2734106 C50.500287,69.2734106 56.6614657,65.4213362 61.6123522,62.3262123 C65.667962,59.7911638 68.5986787,57.9587554 75.2145652,57.9587554 C81.8310173,57.9587554 84.761734,59.7905981 88.8179093,62.3262123 C93.7687959,65.4219019 99.9299745,69.2734106 111.41248,69.2734106 C122.894985,69.2734106 129.056163,65.4213362 134.00705,62.3262123 C138.063225,59.7911638 140.993942,57.9587554 147.610394,57.9587554 L147.610394,40.9867726 C136.127889,40.9862069 129.96671,44.8382812 125.015824,47.9339709 Z" id="XMLID_3600_"></path>
                            <path d="M125.015824,7.11748384 C120.959648,9.65253233 118.028932,11.4849407 111.41248,11.4849407 C104.796028,11.4849407 101.865311,9.65309806 97.8091355,7.11748384 C92.858249,4.02179418 86.6970703,0.17028556 75.2145652,0.17028556 C63.7320601,0.17028556 57.5708815,4.02235991 52.6199949,7.11748384 C48.5643852,9.65253233 45.6336685,11.4849407 39.0177819,11.4849407 C32.4024609,11.4849407 29.4723098,9.65309806 25.4167001,7.11748384 C20.4658135,4.02179418 14.3046349,0.17028556 2.82269531,0.17028556 C2.01621094,0.17028556 1.24252887,0.193480603 0.486944633,0.230253233 L0.486944633,17.227694 C1.21368546,17.1716864 1.98849864,17.1422683 2.82269531,17.1422683 C9.43858186,17.1422683 12.368733,18.974111 16.4243427,21.5097252 C21.3752293,24.6054149 27.5358424,28.4569235 39.0177819,28.4569235 C50.500287,28.4569235 56.6614657,24.6048491 61.6123522,21.5097252 C65.667962,18.9746767 68.5986787,17.1422683 75.2145652,17.1422683 C81.8310173,17.1422683 84.761734,18.974111 88.8179093,21.5097252 C93.7687959,24.6054149 99.9299745,28.4569235 111.41248,28.4569235 C122.894985,28.4569235 129.056163,24.6048491 134.00705,21.5097252 C138.063225,18.9746767 140.993942,17.1422683 147.610394,17.1422683 L147.610394,0.17028556 C136.127889,0.17028556 129.96671,4.02179418 125.015824,7.11748384 Z" id="XMLID_3626_"></path>
                        </g>
                    </g>
                    <g id="Group-2">
                        <path d="M110.83232,19.797582 C92.7484797,19.797582 92.7484797,8.5 74.6646395,8.5 C56.5819296,8.5 56.5819296,19.797582 38.4986546,19.797582 C20.4159446,19.797582 20.4159446,8.5 2.33379975,8.5 C1.51612221,8.5 0.747041955,8.53050347 0,8.57456404 L0,70.5 L147,70.5 L147,8.5 C128.91616,8.5 128.91616,19.797582 110.83232,19.797582 Z" id="XMLID_3598_" fill="#33BBFF"></path>
                        <g id="Group" transform="translate(0.000000, 0.500000)" fill="#008ADF">
                            <path d="M125.015824,47.9339709 C120.959648,50.4690194 118.028932,52.3014278 111.41248,52.3014278 C104.796028,52.3014278 101.865311,50.4695851 97.8091355,47.9339709 C92.858249,44.8382812 86.6970703,40.9867726 75.2145652,40.9867726 C63.7320601,40.9867726 57.5708815,44.838847 52.6199949,47.9339709 C48.5643852,50.4690194 45.6336685,52.3014278 39.0177819,52.3014278 C32.4024609,52.3014278 29.4723098,50.4695851 25.4167001,47.9339709 C20.4658135,44.8382812 14.3046349,40.9867726 2.82269531,40.9867726 C2.01621094,40.9867726 1.24252887,41.0099677 0.486944633,41.0467403 L0.486944633,58.044181 C1.21368546,57.9881735 1.98849864,57.9587554 2.82269531,57.9587554 C9.43858186,57.9587554 12.368733,59.7905981 16.4243427,62.3262123 C21.3752293,65.4219019 27.5358424,69.2734106 39.0177819,69.2734106 C50.500287,69.2734106 56.6614657,65.4213362 61.6123522,62.3262123 C65.667962,59.7911638 68.5986787,57.9587554 75.2145652,57.9587554 C81.8310173,57.9587554 84.761734,59.7905981 88.8179093,62.3262123 C93.7687959,65.4219019 99.9299745,69.2734106 111.41248,69.2734106 C122.894985,69.2734106 129.056163,65.4213362 134.00705,62.3262123 C138.063225,59.7911638 140.993942,57.9587554 147.610394,57.9587554 L147.610394,40.9867726 C136.127889,40.9862069 129.96671,44.8382812 125.015824,47.9339709 Z" id="XMLID_3600_"></path>
                            <path d="M125.015824,7.11748384 C120.959648,9.65253233 118.028932,11.4849407 111.41248,11.4849407 C104.796028,11.4849407 101.865311,9.65309806 97.8091355,7.11748384 C92.858249,4.02179418 86.6970703,0.17028556 75.2145652,0.17028556 C63.7320601,0.17028556 57.5708815,4.02235991 52.6199949,7.11748384 C48.5643852,9.65253233 45.6336685,11.4849407 39.0177819,11.4849407 C32.4024609,11.4849407 29.4723098,9.65309806 25.4167001,7.11748384 C20.4658135,4.02179418 14.3046349,0.17028556 2.82269531,0.17028556 C2.01621094,0.17028556 1.24252887,0.193480603 0.486944633,0.230253233 L0.486944633,17.227694 C1.21368546,17.1716864 1.98849864,17.1422683 2.82269531,17.1422683 C9.43858186,17.1422683 12.368733,18.974111 16.4243427,21.5097252 C21.3752293,24.6054149 27.5358424,28.4569235 39.0177819,28.4569235 C50.500287,28.4569235 56.6614657,24.6048491 61.6123522,21.5097252 C65.667962,18.9746767 68.5986787,17.1422683 75.2145652,17.1422683 C81.8310173,17.1422683 84.761734,18.974111 88.8179093,21.5097252 C93.7687959,24.6054149 99.9299745,28.4569235 111.41248,28.4569235 C122.894985,28.4569235 129.056163,24.6048491 134.00705,21.5097252 C138.063225,18.9746767 140.993942,17.1422683 147.610394,17.1422683 L147.610394,0.17028556 C136.127889,0.17028556 129.96671,4.02179418 125.015824,7.11748384 Z" id="XMLID_3626_"></path>
                        </g>
                    </g>
                </g>
                <g id="sailboat-(2)" transform="translate(145.000000, 160.500000) scale(-1, 1) translate(-145.000000, -160.500000) translate(1.000000, 0.500000)">
                    <g id="denmark" transform="translate(123.500000, 17.000000) scale(-1, 1) translate(-123.500000, -17.000000) translate(105.000000, 0.500000)">
                        <path d="M36.3903874,24 L2.60961265,24 C2.27295334,24 2,23.7262258 2,23.3885541 L2,1.61144587 C2,1.27377416 2.27295334,1 2.60961265,1 L36.3903874,1 C36.7270467,1 37,1.27377416 37,1.61144587 L37,23.3885541 C37,23.7262258 36.7271189,24 36.3903874,24 Z" id="Path" fill="#FF4B55"></path>
                        <polygon id="Path" fill="#F5F5F5" points="37 10.6842143 16.4827785 10.6842143 16.4827785 1 12.8620839 1 12.8620839 10.6842143 2 10.6842143 2 14.3157857 12.8620839 14.3157857 12.8620839 24 16.4827785 24 16.4827785 14.3157857 37 14.3157857"></polygon>
                        <path d="M1,33 C0.447704215,33 0,32.3913981 0,31.6406872 L0,1.34815166 C0,0.603554502 0.44404351,0 0.991789562,0 L1,0 C1.55229578,0 2,0.608601896 2,1.35938389 L2,31.6407583 C2,32.3913981 1.55229578,33 1,33 Z" id="Path" fill="#2E3033"></path>
                    </g>
                    <polygon id="XMLID_551_" fill="#FFC34D" points="139 48.5 139 228.5 224 228.5"></polygon>
                    <path d="M129.255069,50.0185259 C87.9785169,86.9890927 64.523848,137.009549 63.2107868,190.866192 L63,199.5 L145,199.5 L145,36.5 L129.255069,50.0185259 Z" id="XMLID_416_" fill="#FFEA80"></path>
                    <polygon id="XMLID_565_" fill="#B36B24" points="133 32.5 150 32.5 150 224.5 133 224.5"></polygon>
                    <polygon id="XMLID_3602_" fill="#804D19" points="141 32.5 150 32.5 150 224.5 141 224.5"></polygon>
                    <polygon id="XMLID_580_" fill="#FF9933" points="36 216.5 53.3643658 260.5 233.757736 260.5 246 216.5"></polygon>
                    <polygon id="XMLID_3599_" fill="#FF7733" points="142 216.5 142 260.5 234.748638 260.5 247 216.5"></polygon>
                    <path d="M0,257.5 C17.9989102,257.5 17.9989102,268.797582 35.9983828,268.797582 C53.998418,268.797582 53.998418,257.5 71.9978906,257.5 C89.9973633,257.5 89.9973633,268.797582 107.997398,268.797582 C125.996309,268.797582 125.996309,257.5 143.995219,257.5 C161.995254,257.5 161.995254,268.797582 179.994727,268.797582 C197.995324,268.797582 197.995324,257.5 215.995359,257.5 C233.99652,257.5 233.99652,268.797582 251.99768,268.797582 C269.99884,268.797582 269.99884,257.5 288,257.5 L288,319.5 L0,319.5 L0,257.5 Z" id="XMLID_2_" fill="#66E6FF"></path>
                    <path d="M251.83232,267.797582 C233.74848,267.797582 233.74848,256.5 215.66464,256.5 C197.58193,256.5 197.58193,267.797582 179.498655,267.797582 C161.415945,267.797582 161.415945,256.5 143.3338,256.5 C142.516122,256.5 141.747042,256.530503 141,256.574564 L141,318.5 L288,318.5 L288,256.5 C269.91616,256.5 269.91616,267.797582 251.83232,267.797582 Z" id="XMLID_3598_" fill="#66E6FF"></path>
                    <path d="M251.99775,276.5 C240.577313,276.5 234.449438,272.55078 229.525313,269.3776 C225.491062,266.77862 222.576188,264.9 215.9955,264.9 C209.415375,264.9 206.5005,266.77804 202.466813,269.3776 C197.542687,272.55136 191.414813,276.5 179.994375,276.5 C168.5745,276.5 162.447188,272.55078 157.523063,269.3776 C153.489375,266.77862 150.575063,264.9 143.994937,264.9 C137.415375,264.9 134.501062,266.77804 130.467938,269.3776 C125.544375,272.55078 119.4165,276.5 107.997187,276.5 C96.5773125,276.5 90.45,272.55078 85.525875,269.3776 C81.4921875,266.77862 78.577875,264.9 71.99775,264.9 C65.417625,264.9 62.5033125,266.77804 58.469625,269.3776 C53.5455,272.55136 47.4181875,276.5 35.9983125,276.5 C24.5784375,276.5 18.451125,272.5502 13.527,269.3776 C9.4933125,266.77862 6.5795625,264.9 0,264.9 L0,247.5 C11.4193125,247.5 17.5471875,251.44922 22.47075,254.6224 C26.5044375,257.22138 29.41875,259.1 35.9983125,259.1 C42.577875,259.1 45.4921875,257.22196 49.525875,254.6224 C54.45,251.44864 60.577875,247.5 71.99775,247.5 C83.417625,247.5 89.5455,251.44922 94.469625,254.6224 C98.5033125,257.22138 101.417625,259.1 107.997188,259.1 C114.57675,259.1 117.491063,257.22196 121.524188,254.6224 C126.44775,251.44922 132.575625,247.5 143.994938,247.5 C155.414813,247.5 161.542688,251.44922 166.466813,254.6224 C170.5005,257.22138 173.414813,259.1 179.994375,259.1 C186.5745,259.1 189.489375,257.22196 193.523063,254.6224 C198.447188,251.44864 204.575063,247.5 215.9955,247.5 C227.415938,247.5 233.543813,251.44922 238.467938,254.6224 C242.502188,257.22138 245.417063,259.1 251.99775,259.1 C258.578438,259.1 261.493313,257.22196 265.527563,254.6224 C270.451688,251.44864 276.579563,247.5 288,247.5 L288,264.9 C281.419313,264.9 278.504438,266.77804 274.470188,269.3776 C269.546063,272.55078 263.418188,276.5 251.99775,276.5 Z" id="XMLID_330_" fill="#33BBFF"></path>
                    <path d="M251.99775,317.5 C240.577313,317.5 234.449438,313.55078 229.525313,310.3776 C225.491062,307.77862 222.576188,305.9 215.9955,305.9 C209.415375,305.9 206.5005,307.77804 202.466813,310.3776 C197.542687,313.55136 191.414813,317.5 179.994375,317.5 C168.5745,317.5 162.447188,313.55078 157.523063,310.3776 C153.489375,307.77862 150.575063,305.9 143.994937,305.9 C137.415375,305.9 134.501062,307.77804 130.467938,310.3776 C125.544375,313.55078 119.4165,317.5 107.997187,317.5 C96.5773125,317.5 90.45,313.55078 85.525875,310.3776 C81.4921875,307.77862 78.577875,305.9 71.99775,305.9 C65.417625,305.9 62.5033125,307.77804 58.469625,310.3776 C53.5455,313.55136 47.4181875,317.5 35.9983125,317.5 C24.5784375,317.5 18.451125,313.5502 13.527,310.3776 C9.4933125,307.77862 6.5795625,305.9 0,305.9 L0,288.5 C11.4193125,288.5 17.5471875,292.44922 22.47075,295.6224 C26.5044375,298.22138 29.41875,300.1 35.9983125,300.1 C42.577875,300.1 45.4921875,298.22196 49.525875,295.6224 C54.45,292.44864 60.577875,288.5 71.99775,288.5 C83.417625,288.5 89.5455,292.44922 94.469625,295.6224 C98.5033125,298.22138 101.417625,300.1 107.997188,300.1 C114.57675,300.1 117.491063,298.22196 121.524188,295.6224 C126.44775,292.44922 132.575625,288.5 143.994938,288.5 C155.414813,288.5 161.542688,292.44922 166.466813,295.6224 C170.5005,298.22138 173.414813,300.1 179.994375,300.1 C186.5745,300.1 189.489375,298.22196 193.523063,295.6224 C198.447188,292.44864 204.575063,288.5 215.9955,288.5 C227.415938,288.5 233.543813,292.44922 238.467938,295.6224 C242.502188,298.22138 245.417063,300.1 251.99775,300.1 C258.578438,300.1 261.493313,298.22196 265.527563,295.6224 C270.451688,292.44864 276.579563,288.5 288,288.5 L288,305.9 C281.419313,305.9 278.504438,307.77804 274.470188,310.3776 C269.546063,313.55136 263.418188,317.5 251.99775,317.5 Z" id="XMLID_186_" fill="#33BBFF"></path>
                </g>
                <g id="wave" transform="translate(289.000000, 248.000000)">
                    <path d="M0,9.5 C17.9989102,9.5 17.9989102,20.797582 35.9983828,20.797582 C53.998418,20.797582 53.998418,9.5 71.9978906,9.5 C89.9973633,9.5 89.9973633,20.797582 107.997398,20.797582 C125.996309,20.797582 125.996309,9.5 143.995219,9.5 C161.995254,9.5 161.995254,20.797582 179.994727,20.797582 C197.995324,20.797582 197.995324,9.5 215.995359,9.5 C233.99652,9.5 233.99652,20.797582 251.99768,20.797582 C269.99884,20.797582 269.99884,9.5 288,9.5 L288,71.5 L0,71.5 L0,9.5 Z" id="XMLID_2_" fill="#66E6FF"></path>
                    <path d="M251.99775,29.5 C240.577313,29.5 234.449438,25.55078 229.525313,22.3776 C225.491062,19.77862 222.576188,17.9 215.9955,17.9 C209.415375,17.9 206.5005,19.77804 202.466813,22.3776 C197.542687,25.55136 191.414813,29.5 179.994375,29.5 C168.5745,29.5 162.447188,25.55078 157.523063,22.3776 C153.489375,19.77862 150.575063,17.9 143.994937,17.9 C137.415375,17.9 134.501062,19.77804 130.467938,22.3776 C125.544375,25.55078 119.4165,29.5 107.997187,29.5 C96.5773125,29.5 90.45,25.55078 85.525875,22.3776 C81.4921875,19.77862 78.577875,17.9 71.99775,17.9 C65.417625,17.9 62.5033125,19.77804 58.469625,22.3776 C53.5455,25.55136 47.4181875,29.5 35.9983125,29.5 C24.5784375,29.5 18.451125,25.5502 13.527,22.3776 C9.4933125,19.77862 6.5795625,17.9 0,17.9 L0,0.5 C11.4193125,0.5 17.5471875,4.44922 22.47075,7.6224 C26.5044375,10.22138 29.41875,12.1 35.9983125,12.1 C42.577875,12.1 45.4921875,10.22196 49.525875,7.6224 C54.45,4.44864 60.577875,0.5 71.99775,0.5 C83.417625,0.5 89.5455,4.44922 94.469625,7.6224 C98.5033125,10.22138 101.417625,12.1 107.997188,12.1 C114.57675,12.1 117.491063,10.22196 121.524188,7.6224 C126.44775,4.44922 132.575625,0.5 143.994938,0.5 C155.414813,0.5 161.542688,4.44922 166.466813,7.6224 C170.5005,10.22138 173.414813,12.1 179.994375,12.1 C186.5745,12.1 189.489375,10.22196 193.523063,7.6224 C198.447188,4.44864 204.575063,0.5 215.9955,0.5 C227.415938,0.5 233.543813,4.44922 238.467938,7.6224 C242.502188,10.22138 245.417063,12.1 251.99775,12.1 C258.578438,12.1 261.493313,10.22196 265.527563,7.6224 C270.451688,4.44864 276.579563,0.5 288,0.5 L288,17.9 C281.419313,17.9 278.504438,19.77804 274.470188,22.3776 C269.546063,25.55078 263.418188,29.5 251.99775,29.5 Z" id="XMLID_330_" fill="#33BBFF"></path>
                    <path d="M251.99775,29.5 C240.577313,29.5 234.449438,25.55078 229.525313,22.3776 C225.491062,19.77862 222.576188,17.9 215.9955,17.9 C209.415375,17.9 206.5005,19.77804 202.466813,22.3776 C197.542687,25.55136 191.414813,29.5 179.994375,29.5 C168.5745,29.5 162.447188,25.55078 157.523063,22.3776 C153.489375,19.77862 150.575063,17.9 143.994937,17.9 C137.415375,17.9 134.501062,19.77804 130.467938,22.3776 C125.544375,25.55078 119.4165,29.5 107.997187,29.5 C96.5773125,29.5 90.45,25.55078 85.525875,22.3776 C81.4921875,19.77862 78.577875,17.9 71.99775,17.9 C65.417625,17.9 62.5033125,19.77804 58.469625,22.3776 C53.5455,25.55136 47.4181875,29.5 35.9983125,29.5 C24.5784375,29.5 18.451125,25.5502 13.527,22.3776 C9.4933125,19.77862 6.5795625,17.9 0,17.9 L0,0.5 C11.4193125,0.5 17.5471875,4.44922 22.47075,7.6224 C26.5044375,10.22138 29.41875,12.1 35.9983125,12.1 C42.577875,12.1 45.4921875,10.22196 49.525875,7.6224 C54.45,4.44864 60.577875,0.5 71.99775,0.5 C83.417625,0.5 89.5455,4.44922 94.469625,7.6224 C98.5033125,10.22138 101.417625,12.1 107.997188,12.1 C114.57675,12.1 117.491063,10.22196 121.524188,7.6224 C126.44775,4.44922 132.575625,0.5 143.994938,0.5 C155.414813,0.5 161.542688,4.44922 166.466813,7.6224 C170.5005,10.22138 173.414813,12.1 179.994375,12.1 C186.5745,12.1 189.489375,10.22196 193.523063,7.6224 C198.447188,4.44864 204.575063,0.5 215.9955,0.5 C227.415938,0.5 233.543813,4.44922 238.467938,7.6224 C242.502188,10.22138 245.417063,12.1 251.99775,12.1 C258.578438,12.1 261.493313,10.22196 265.527563,7.6224 C270.451688,4.44864 276.579563,0.5 288,0.5 L288,17.9 C281.419313,17.9 278.504438,19.77804 274.470188,22.3776 C269.546063,25.55078 263.418188,29.5 251.99775,29.5 Z" id="XMLID_330_" fill="#33BBFF"></path>
                    <path d="M251.99775,70.5 C240.577313,70.5 234.449438,66.55078 229.525313,63.3776 C225.491062,60.77862 222.576188,58.9 215.9955,58.9 C209.415375,58.9 206.5005,60.77804 202.466813,63.3776 C197.542687,66.55136 191.414813,70.5 179.994375,70.5 C168.5745,70.5 162.447188,66.55078 157.523063,63.3776 C153.489375,60.77862 150.575063,58.9 143.994937,58.9 C137.415375,58.9 134.501062,60.77804 130.467938,63.3776 C125.544375,66.55078 119.4165,70.5 107.997187,70.5 C96.5773125,70.5 90.45,66.55078 85.525875,63.3776 C81.4921875,60.77862 78.577875,58.9 71.99775,58.9 C65.417625,58.9 62.5033125,60.77804 58.469625,63.3776 C53.5455,66.55136 47.4181875,70.5 35.9983125,70.5 C24.5784375,70.5 18.451125,66.5502 13.527,63.3776 C9.4933125,60.77862 6.5795625,58.9 0,58.9 L0,41.5 C11.4193125,41.5 17.5471875,45.44922 22.47075,48.6224 C26.5044375,51.22138 29.41875,53.1 35.9983125,53.1 C42.577875,53.1 45.4921875,51.22196 49.525875,48.6224 C54.45,45.44864 60.577875,41.5 71.99775,41.5 C83.417625,41.5 89.5455,45.44922 94.469625,48.6224 C98.5033125,51.22138 101.417625,53.1 107.997188,53.1 C114.57675,53.1 117.491063,51.22196 121.524188,48.6224 C126.44775,45.44922 132.575625,41.5 143.994938,41.5 C155.414813,41.5 161.542688,45.44922 166.466813,48.6224 C170.5005,51.22138 173.414813,53.1 179.994375,53.1 C186.5745,53.1 189.489375,51.22196 193.523063,48.6224 C198.447188,45.44864 204.575063,41.5 215.9955,41.5 C227.415938,41.5 233.543813,45.44922 238.467938,48.6224 C242.502188,51.22138 245.417063,53.1 251.99775,53.1 C258.578438,53.1 261.493313,51.22196 265.527563,48.6224 C270.451688,45.44864 276.579563,41.5 288,41.5 L288,58.9 C281.419313,58.9 278.504438,60.77804 274.470188,63.3776 C269.546063,66.55136 263.418188,70.5 251.99775,70.5 Z" id="XMLID_186_" fill="#33BBFF"></path>
                </g>
            </g>
        </g>
    </g>
</svg>