<?xml version="1.0" encoding="UTF-8"?>
<svg width="36px" height="44px" viewBox="0 0 36 44" version="1.1" xmlns="http://www.w3.org/2000/svg" xmlns:xlink="http://www.w3.org/1999/xlink">
    <!-- Generator: Sketch 52.4 (67378) - http://www.bohemiancoding.com/sketch -->
    <title>message-in-a-bottle</title>
    <desc>Created with Sketch.</desc>
    <g id="Page-1" stroke="none" stroke-width="1" fill="none" fill-rule="evenodd">
        <g id="Home-Screen-Boat" transform="translate(-299.000000, -171.000000)">
            <g id="message-in-a-bottle" transform="translate(295.000000, 171.000000)">
                <path d="M43.6759412,37 C41.5995,37.00007 40.5138529,37.43092 39.5559706,37.81109 C38.7265588,38.1403 38.0713235,38.40028 36.6197647,38.40028 C35.1675882,38.40028 34.5121765,38.14023 33.6825,37.81102 C32.7242647,37.43085 31.6381765,37 29.5610294,37 C27.4833529,37 26.3970882,37.43085 25.4385882,37.81095 C24.6084706,38.14023 23.9527941,38.40028 22.4999118,38.40028 C21.0470294,38.40028 20.3914412,38.14023 19.5612353,37.81095 C18.6029118,37.43085 17.5166471,37 15.4389706,37 C13.3618235,37 12.2757353,37.43085 11.3175882,37.81102 C10.4879118,38.14023 9.8325,38.40028 8.38032353,38.40028 C6.92876471,38.40028 6.27352941,38.1403 5.44411765,37.81109 C4.48632353,37.43092 3.40058824,37.00007 1.32414706,37 C0.593205882,37 0,37.47019 0,38.05 L0,42.95 C0,43.52988 0.592588235,44 1.32352941,44 L43.6764706,44 C44.4074118,44 45,43.52988 45,42.95 L45,38.05 C45,37.47019 44.4067941,37 43.6759412,37 Z" id="Path" fill="#54C2AA"></path>
                <g id="Group" transform="translate(8.000000, 0.000000)">
                    <ellipse id="Oval" fill="#FFEC00" cx="16.3676786" cy="23.4150367" rx="2.23214286" ry="2.22158264"></ellipse>
                    <path d="M29.2039286,2.40863989 L24.2849107,0.125741577 C23.4952679,-0.240730694 22.5697321,0.228911875 22.4041071,1.0803112 L22.0739286,2.77644511 L28.5849107,5.79824182 L29.6782143,4.45622818 C30.2269643,3.78264432 29.9936607,2.77520103 29.2039286,2.40863989 Z" id="Path" fill="#F5A623"></path>
                    <g transform="translate(0.000000, 4.976345)" id="Path">
                        <path d="M13.0829464,30.706182 L16.5430357,23.3210193 C15.7903571,23.3490112 15.0205357,23.2062079 14.2923214,22.8681719 C13.5641071,22.5302247 12.9592857,22.0350784 12.4970536,21.4432488 L8.87705357,29.1695577 C10.2686607,29.4320599 11.2169643,29.9034798 11.9741964,30.2802602 C12.4567857,30.5204577 12.7141964,30.6478877 13.0829464,30.706182 Z" fill="#F8E71C"></path>
                        <path d="M6.00928571,28.9824116 L11.9170536,16.3731529 C13.0614286,13.9306561 15.9889286,12.8701614 18.4430357,14.0091224 C20.8971429,15.1480834 21.9626786,18.0617334 20.8183036,20.5042302 L16.4416964,29.8455409 C17.468125,29.3978476 18.8390179,28.9695264 20.8951786,28.9695264 C21.2891964,28.9695264 21.6572321,28.9856996 22.0033036,29.0143135 L25.4725,21.6098675 C26.2958929,19.8524179 26.5623214,17.876098 26.1677679,15.977178 C25.8164286,14.2867313 24.9960714,12.7656581 23.7832143,11.5479643 L26.5046429,5.73950317 C27.175,6.0506136 27.971875,5.76198559 28.2844643,5.09479989 C28.5970536,4.42761419 28.3070536,3.63450919 27.6366964,3.32339876 L20.7584821,0.131162239 C20.088125,-0.179948193 19.29125,0.108679823 18.9786607,0.77586552 C18.6660714,1.44305122 18.9560714,2.23615622 19.6264286,2.54726665 L16.905,8.35572775 C15.1757143,8.21274669 13.4654464,8.5711324 11.9299107,9.40262635 C10.2477679,10.313653 8.93071429,11.7082737 8.12133929,13.4356875 L0.0228571429,30.7207556 C0.45125,30.6708144 0.709553571,30.5429401 1.23633929,30.2807045 C2.264375,29.7688519 3.64464286,29.0827383 6.00928571,28.9824116 Z" fill="#FFFFFF"></path>
                    </g>
                </g>
            </g>
        </g>
    </g>
</svg>