<?xml version="1.0" encoding="UTF-8"?>
<svg width="298px" height="213px" viewBox="0 0 298 213" version="1.1" xmlns="http://www.w3.org/2000/svg" xmlns:xlink="http://www.w3.org/1999/xlink">
    <!-- Generator: Sketch 52.4 (67378) - http://www.bohemiancoding.com/sketch -->
    <title>bulding</title>
    <desc>Created with Sketch.</desc>
    <g id="Page-1" stroke="none" stroke-width="1" fill="none" fill-rule="evenodd">
        <g id="Home-Screen-City" transform="translate(0.000000, -379.000000)">
            <g id="bulding" transform="translate(-21.000000, 379.000000)">
                <polygon id="Path" fill="#4689D3" points="89 22 186 22 186 195 89 195"></polygon>
                <polygon id="Path" fill="#FF8AA3" points="26 83 75 83 75 98 26 98"></polygon>
                <polygon id="Path" fill="#FFDF9F" points="199 39 248 39 248 60 199 60"></polygon>
                <polygon id="Path" fill="#EB7288" points="12 97 88 97 88 195 12 195"></polygon>
                <polygon id="Path" fill="#C95D75" points="65 194.975317 65 195 35 195 35 194.975317 35 177 65 177"></polygon>
                <polygon id="Path" fill="#F3CE7D" points="186 60 186 195 262 195 262 194.806278 262 60"></polygon>
                <polygon id="Path" fill="#CEAC67" points="239 194.97571 239 195 209 195 209 194.97571 209 170 239 170"></polygon>
                <polygon id="Path" fill="#C79A83" points="0 195 319 195 319 213 2.50800138e-15 213"></polygon>
                <polygon id="Path" fill="#E87C98" points="26 83 45 83 45 97 26 97"></polygon>
                <polygon id="Path" fill="#CE637A" points="12 97 31 97 31 194 12 194"></polygon>
                <path d="M50,86 C47.790861,86 46,84.3348573 46,82.2807996 L46,69.7192004 C46,67.6651427 47.790861,66 50,66 C52.209139,66 54,67.6651427 54,69.7192004 L54,82.2807996 C54,84.3348573 52.209139,86 50,86 Z" id="Path" fill="#EB7288"></path>
                <path d="M73.3692644,141 L28.6307356,141 C26.6255357,141 25,139.209139 25,137 C25,134.790861 26.6255357,133 28.6307356,133 L73.3692644,133 C75.3744643,133 77,134.790861 77,137 C77,139.209139 75.3744643,141 73.3692644,141 Z" id="Path" fill="#AD5068"></path>
                <path d="M73.3692644,161 L28.6307356,161 C26.6255357,161 25,159.209139 25,157 C25,154.790861 26.6255357,153 28.6307356,153 L73.3692644,153 C75.3744643,153 77,154.790861 77,157 C77,159.209139 75.3744643,161 73.3692644,161 Z" id="Path" fill="#AD5068"></path>
                <path d="M73.3692644,120 L28.6307356,120 C26.6255357,120 25,118.209139 25,116 C25,113.790861 26.6255357,112 28.6307356,112 L73.3692644,112 C75.3744643,112 77,113.790861 77,116 C77,118.209139 75.3744643,120 73.3692644,120 Z" id="Path" fill="#AD5068"></path>
                <g id="Group" transform="translate(103.000000, 39.000000)" fill="#3773AA">
                    <path d="M3.90063717,144.48613 C1.87722224,144.48613 0.236920354,142.856371 0.236920354,140.845962 L0.236920354,3.78516736 C0.236920354,1.77475844 1.87722224,0.145 3.90063717,0.145 C5.92405209,0.145 7.56435398,1.77475844 7.56435398,3.78516736 L7.56435398,140.845962 C7.56435398,142.856371 5.92405209,144.48613 3.90063717,144.48613 Z" id="Path"></path>
                    <path d="M24.5279735,144.48613 C22.5045585,144.48613 20.8642566,142.856371 20.8642566,140.845962 L20.8642566,3.78516736 C20.8642566,1.77475844 22.5045585,0.145 24.5279735,0.145 C26.5513884,0.145 28.1916903,1.77475844 28.1916903,3.78516736 L28.1916903,140.845962 C28.1916903,142.856371 26.5513884,144.48613 24.5279735,144.48613 Z" id="Path"></path>
                    <path d="M44.5141593,144.48613 C42.4907444,144.48613 40.8504425,142.856371 40.8504425,140.845962 L40.8504425,3.78516736 C40.8504425,1.77475844 42.4907444,0.145 44.5141593,0.145 C46.5375742,0.145 48.1778761,1.77475844 48.1778761,3.78516736 L48.1778761,140.845962 C48.1778761,142.856371 46.5375742,144.48613 44.5141593,144.48613 Z" id="Path"></path>
                    <path d="M65.1384425,144.48613 C63.1150276,144.48613 61.4747257,142.856371 61.4747257,140.845962 L61.4747257,3.78516736 C61.4747257,1.77475844 63.1150276,0.145 65.1384425,0.145 C67.1618574,0.145 68.8021593,1.77475844 68.8021593,3.78516736 L68.8021593,140.845962 C68.8021593,142.856371 67.1618574,144.48613 65.1384425,144.48613 Z" id="Path"></path>
                </g>
                <path d="M224,42 C221.790861,42 220,40.3703733 220,38.3601268 L220,23.6398732 C220,21.6296267 221.790861,20 224,20 C226.209139,20 228,21.6296267 228,23.6398732 L228,38.3601268 C228,40.3703733 226.209139,42 224,42 Z" id="Path" fill="#F3CE7D"></path>
                <path d="M245.369264,133 L200.630736,133 C198.625536,133 197,131.209139 197,129 C197,126.790861 198.625536,125 200.630736,125 L245.369264,125 C247.374464,125 249,126.790861 249,129 C249,131.209139 247.374464,133 245.369264,133 Z" id="Path" fill="#B29259"></path>
                <path d="M245.369264,154 L200.630736,154 C198.625536,154 197,152.209139 197,150 C197,147.790861 198.625536,146 200.630736,146 L245.369264,146 C247.374464,146 249,147.790861 249,150 C249,152.209139 247.374464,154 245.369264,154 Z" id="Path" fill="#B29259"></path>
                <path d="M245.369264,112 L200.630736,112 C198.625536,112 197,110.209139 197,108 C197,105.790861 198.625536,104 200.630736,104 L245.369264,104 C247.374464,104 249,105.790861 249,108 C249,110.209139 247.374464,112 245.369264,112 Z" id="Path" fill="#B29259"></path>
                <path d="M245.369264,92 L200.630736,92 C198.625536,92 197,90.209139 197,88 C197,85.790861 198.625536,84 200.630736,84 L245.369264,84 C247.374464,84 249,85.790861 249,88 C249,90.209139 247.374464,92 245.369264,92 Z" id="Path" fill="#B29259"></path>
                <path d="M172,21.9757909 L172,22 L103,22 L103,12.8913343 C103,5.77164694 108.745783,0 115.833566,0 L159.166434,0 C166.254217,0 172,5.77164694 172,12.8913343 L172,21.9757909 Z" id="Path" fill="#68ADEA"></path>
            </g>
        </g>
    </g>
</svg>