<?xml version="1.0" encoding="UTF-8"?>
<svg width="160px" height="75px" viewBox="0 0 160 75" version="1.1" xmlns="http://www.w3.org/2000/svg" xmlns:xlink="http://www.w3.org/1999/xlink">
    <!-- Generator: Sketch 52.4 (67378) - http://www.bohemiancoding.com/sketch -->
    <title>Group 3</title>
    <desc>Created with Sketch.</desc>
    <g id="Page-1" stroke="none" stroke-width="1" fill="none" fill-rule="evenodd">
        <g id="Home-Screen-Land" transform="translate(-30.000000, -264.000000)">
            <g id="fir" transform="translate(0.000000, 264.000000)">
                <g id="Group-3" transform="translate(30.000000, 0.000000)">
                    <path d="M137.190609,47.4039082 C136.751275,47.4039082 136.311236,47.423533 135.850746,47.4438588 C131.81353,34.6091844 119.759001,25.3111946 105.506393,25.3111946 C103.287863,25.3111946 101.088374,25.5298719 98.9897263,25.9672264 C93.2128045,10.7880793 78.4609214,0 61.1689416,0 C41.9785886,0 25.926334,13.2720289 21.7692352,31.0732008 C9.35576427,33.4569234 0,44.324904 0,57.3579299 C0,65.8015363 2.49990083,75 11.9346465,75 L154.182882,75 C156.541745,75 160,74.6621716 160,70.0727522 C159.999295,57.5562814 149.784608,47.4039082 137.190609,47.4039082 Z" id="Path" fill="#D2F6FF"></path>
                    <path d="M12.2497432,74.6575185 L153.909389,74.6575185 C156.258491,74.6575185 159.702436,74.3183333 159.702436,69.7104815 C159.702436,64.983 158.269098,60.5742963 155.799907,56.9438889 C155.14258,57.0438148 154.486657,57.0635185 153.909389,57.0635185 L12.2497432,57.0635185 C6.37804091,57.0635185 3.21219545,53.4725185 1.63980682,48.7056296 C0.804102273,51.2994815 0.365181818,54.0720741 0.365181818,56.9445926 C0.365181818,65.4221111 2.85403636,74.6575185 12.2497432,74.6575185 Z" id="Path" fill="#B8F0FF"></path>
                </g>
            </g>
        </g>
    </g>
</svg>