<?xml version="1.0" encoding="UTF-8"?>
<svg width="84px" height="84px" viewBox="0 0 84 84" version="1.1" xmlns="http://www.w3.org/2000/svg" xmlns:xlink="http://www.w3.org/1999/xlink">
    <!-- Generator: Sketch 52.4 (67378) - http://www.bohemiancoding.com/sketch -->
    <title>compass (1)</title>
    <desc>Created with Sketch.</desc>
    <g id="Page-1" stroke="none" stroke-width="1" fill="none" fill-rule="evenodd">
        <g id="Compass-Screen" transform="translate(-138.000000, -189.000000)">
            <g id="compass-(1)" transform="translate(138.000000, 189.000000)">
                <circle id="Oval" fill="#2C5871" cx="42" cy="42" r="42"></circle>
                <path d="M41.8715397,0 C40.5660511,0 39.2752087,0.06234375 38,0.178171875 C59.4517791,2.12723438 76.2569206,20.1055312 76.2569206,42 C76.2569206,63.8944688 59.4517791,81.8727656 38,83.8218281 C39.2752087,83.9376563 40.5660511,84 41.8715397,84 C65.138463,84 84,65.1959766 84,42 C84,18.8040234 65.138463,0 41.8715397,0 Z" id="Path" fill="#1C4754"></path>
                <circle id="Oval" fill="#E6F1FF" cx="42.5" cy="42.5" r="36.5"></circle>
                <path d="M41.8474653,6 C40.5476415,6 39.2643354,6.07083339 38,6.20589566 C56.1573019,8.14531057 70.3050694,23.6538602 70.3050694,42.5 C70.3050694,61.3461398 56.1573019,76.8546894 38,78.7941043 C39.2643354,78.9291666 40.5476415,79 41.8474653,79 C61.8140212,79 78,62.6584563 78,42.5 C78,22.3415437 61.8140212,6 41.8474653,6 Z" id="Path" fill="#BFCFD6"></path>
                <path d="M26.0668554,26.6312471 L38.23829,45.761242 L57.3689946,57.9331435 C57.7376954,58.167846 58.1678464,57.7376961 57.9331433,57.3689961 L45.7612118,38.2383387 L26.6311698,26.0669341 C26.2623033,25.832066 25.8321523,26.2622159 26.0668554,26.6312471 Z" id="Path" fill="#66C1FF"></path>
                <path d="M26.0676468,26.638864 L38.3861033,46 L46,38.3861341 L26.6389531,26.0677277 C26.2656259,25.8300196 25.8301054,26.2655383 26.0676468,26.638864 Z" id="Path" fill="#FF4C4C"></path>
                <circle id="Oval" fill="#555A66" cx="42.5" cy="42.5" r="5.5"></circle>
                <g id="Group" transform="translate(11.000000, 10.000000)" fill="#2C5871">
                    <path d="M51.0087321,13.6053953 C50.6829443,13.6053953 50.356992,13.4823256 50.1084987,13.236186 C49.611183,12.7440698 49.611183,11.9460698 50.1084987,11.4537907 L52.1490716,9.43388372 C52.6462228,8.94176744 53.4523873,8.94176744 53.9497029,9.43388372 C54.4470186,9.926 54.4470186,10.724 53.9497029,11.2162791 L51.90913,13.236186 C51.6604721,13.4823256 51.3346844,13.6053953 51.0087321,13.6053953 Z" id="Path"></path>
                    <path d="M9.11498674,55.0748605 C8.78919894,55.0748605 8.46324668,54.9517907 8.21475332,54.7056512 C7.71743767,54.2135349 7.71743767,53.4155349 8.21475332,52.9232558 L10.2553263,50.9033488 C10.7524775,50.4112326 11.5586419,50.4112326 12.0559576,50.9033488 C12.5532732,51.3954651 12.5532732,52.1934651 12.0559576,52.6857442 L10.0153846,54.7056512 C9.76672679,54.9516279 9.44093899,55.0748605 9.11498674,55.0748605 Z" id="Path"></path>
                    <path d="M53.0494695,55.0748605 C52.7236817,55.0748605 52.3977294,54.9517907 52.1492361,54.7056512 L50.1086631,52.6857442 C49.6113475,52.1936279 49.6113475,51.3956279 50.1086631,50.9033488 C50.6058143,50.4112326 51.4119788,50.4112326 51.9092944,50.9033488 L53.9498674,52.9232558 C54.447183,53.4153721 54.447183,54.2133721 53.9498674,54.7056512 C53.7010451,54.9516279 53.3752573,55.0748605 53.0494695,55.0748605 Z" id="Path"></path>
                    <path d="M11.1557241,13.6053953 C10.8299363,13.6053953 10.5039841,13.4823256 10.2554907,13.236186 L8.21475332,11.2162791 C7.71743767,10.7241628 7.71743767,9.92616279 8.21475332,9.43388372 C8.71190451,8.94176744 9.51806897,8.94176744 10.0153846,9.43388372 L12.0559576,11.4537907 C12.5532732,11.945907 12.5532732,12.743907 12.0559576,13.236186 C11.8072997,13.4823256 11.4815119,13.6053953 11.1557241,13.6053953 Z" id="Path"></path>
                    <path d="M7.83929973,35.2567209 C7.72270027,35.602814 7.29149602,35.7643023 6.84877984,35.7643023 C6.4175756,35.7643023 5.96301857,35.602814 5.88144828,35.2567209 L5.13563926,32.1420465 L4.37815385,35.2567209 C4.29658355,35.602814 3.84202653,35.7643023 3.41082228,35.7643023 C2.96794164,35.7643023 2.52506101,35.602814 2.42013793,35.2567209 L0.11265252,28.0006512 C0.100976127,27.9659767 0.0892997347,27.9083488 0.0892997347,27.8622791 C0.0892997347,27.5277442 0.625427056,27.2623953 1.0566313,27.2623953 C1.28966578,27.2623953 1.49951194,27.3431395 1.55772944,27.5622558 L3.39914589,33.8147209 L4.38966578,29.8003023 C4.45955968,29.5118372 4.79751724,29.3850233 5.1354748,29.3850233 C5.46175597,29.3850233 5.79971353,29.512 5.86977188,29.8003023 L6.86029178,33.8147209 L8.70170822,27.5622558 C8.75992573,27.3431395 8.96977188,27.2623953 9.20280637,27.2623953 C9.63401061,27.2623953 10.1701379,27.5277442 10.1701379,27.8622791 C10.1701379,27.9083488 10.1584615,27.9661395 10.1467851,28.0006512 L7.83929973,35.2567209 Z" id="Path"></path>
                    <path d="M58.2171777,30.8846512 L59.9885358,30.8846512 C60.2914642,30.8846512 60.4662812,31.1731163 60.4662812,31.4845349 C60.4662812,31.7498837 60.314817,32.0613023 59.9885358,32.0613023 L58.2171777,32.0613023 L58.2171777,34.3799302 L61.515183,34.3799302 C61.8181114,34.3799302 61.9929284,34.6913488 61.9929284,35.049 C61.9929284,35.3604186 61.8414642,35.6949535 61.515183,35.6949535 L57.3662812,35.6949535 C57.0283236,35.6949535 56.7020424,35.5334651 56.7020424,35.2220465 L56.7020424,27.7351395 C56.7020424,27.4237209 57.0283236,27.2622326 57.3662812,27.2622326 L61.515183,27.2622326 C61.8414642,27.2622326 61.9929284,27.5967674 61.9929284,27.908186 C61.9929284,28.2658372 61.8181114,28.5772558 61.515183,28.5772558 L58.2171777,28.5772558 L58.2171777,30.8846512 Z" id="Path"></path>
                    <path d="M32.2765093,8.03893023 L29.7710186,3.40151163 L29.7710186,8.03893023 C29.7710186,8.35034884 29.3863554,8.51183721 29.0135332,8.51183721 C28.6290345,8.51183721 28.2560477,8.35034884 28.2560477,8.03893023 L28.2560477,0.552023256 C28.2560477,0.229046512 28.6290345,0.0791162791 29.0135332,0.0791162791 C29.5613369,0.0791162791 29.782695,0.194534884 30.1440053,0.875162791 L32.3931088,5.17804651 L32.3931088,0.540627907 C32.3931088,0.217651163 32.7660955,0.0791162791 33.1505942,0.0791162791 C33.5235809,0.0791162791 33.9080796,0.217488372 33.9080796,0.540627907 L33.9080796,8.03893023 C33.9080796,8.35034884 33.5234164,8.51183721 33.1505942,8.51183721 C32.7894483,8.51183721 32.474679,8.3965814 32.2765093,8.03893023 Z" id="Path"></path>
                    <path d="M32.2709178,60.6287907 C32.2709178,58.8983256 28.5300318,59.4290233 28.5300318,56.6951163 C28.5300318,54.9762093 30.0218143,54.3878837 31.3619682,54.3878837 C32.0495597,54.3878837 33.5762069,54.5493721 33.5762069,55.3107442 C33.5762069,55.576093 33.3897135,56.1067907 32.9701857,56.1067907 C32.6088753,56.1067907 32.3408117,55.6683953 31.3619682,55.6683953 C30.5229125,55.6683953 30.0450027,56.0029302 30.0450027,56.5567442 C30.0450027,57.987186 33.7858886,57.4911628 33.7858886,60.4788605 C33.7858886,62.1285814 32.6203873,62.9822558 31.0121698,62.9822558 C29.4855225,62.9822558 28.3201857,62.2208837 28.3201857,61.551814 C28.3201857,61.2288372 28.6232785,60.7442093 28.9844244,60.7442093 C29.4621698,60.7442093 29.776939,61.6325581 30.9656286,61.6325581 C31.6648966,61.6323953 32.2709178,61.3209767 32.2709178,60.6287907 Z" id="Path"></path>
                </g>
            </g>
        </g>
    </g>
</svg>