<?xml version="1.0" encoding="UTF-8"?>
<svg width="14px" height="14px" viewBox="0 0 14 14" version="1.1" xmlns="http://www.w3.org/2000/svg" xmlns:xlink="http://www.w3.org/1999/xlink">
    <!-- Generator: Sketch 52.4 (67378) - http://www.bohemiancoding.com/sketch -->
    <title>close</title>
    <desc>Created with Sketch.</desc>
    <g id="Page-1" stroke="none" stroke-width="1" fill="none" fill-rule="evenodd">
        <g id="Page-of-Recipe" transform="translate(-322.000000, -460.000000)" fill="#FFFFFF">
            <g id="Group-8" transform="translate(188.000000, 448.000000)">
                <g id="Group-7">
                    <g id="close" transform="translate(134.000000, 12.000000)">
                        <path d="M13.6410956,11.3313892 L2.6692123,0.358905338 C2.19069805,-0.119635113 1.41490685,-0.119635113 0.937140269,0.358905338 L0.358885691,0.936294292 C-0.119628564,1.41498428 -0.119628564,2.19081802 0.358885691,2.66861072 L11.3307689,13.6410947 C11.8094327,14.1196351 12.5852239,14.1196351 13.0629905,13.6410947 L13.6403479,13.0637057 C14.1197594,12.585913 14.1197594,11.8099297 13.6410956,11.3313892 Z" id="Path"></path>
                        <path d="M11.3306933,0.358796134 L0.358883296,11.3313679 C-0.119627765,11.8099122 -0.119627765,12.5859016 0.358883296,13.0636982 L0.936236789,13.6410918 C1.41489741,14.1196361 2.19068343,14.1196361 2.66844683,13.6410918 L13.6410046,2.66926776 C14.1196651,2.19072348 14.1196651,1.41488353 13.6410046,0.937086999 L13.063651,0.359693385 C12.58514,-0.119748148 11.8093539,-0.119748148 11.3306933,0.358796134 Z" id="Path"></path>
                    </g>
                </g>
            </g>
        </g>
    </g>
</svg>