<?xml version="1.0" encoding="UTF-8"?>
<svg width="32px" height="32px" viewBox="0 0 32 32" version="1.1" xmlns="http://www.w3.org/2000/svg" xmlns:xlink="http://www.w3.org/1999/xlink">
    <!-- Generator: Sketch 52.4 (67378) - http://www.bohemiancoding.com/sketch -->
    <title>facebook</title>
    <desc>Created with Sketch.</desc>
    <g id="Symbols" stroke="none" stroke-width="1" fill="none" fill-rule="evenodd">
        <g id="Social" transform="translate(-71.000000, -24.000000)">
            <g id="facebook">
                <g transform="translate(71.000000, 24.000000)">
                    <circle id="Oval" fill="#3B5998" cx="16" cy="16" r="16"></circle>
                    <path d="M21.5481152,9.00478554 L18.6698609,9 C15.4362408,9 13.3465335,11.2216847 13.3465335,14.660331 L13.3465335,17.2701227 L10.4525775,17.2701227 C10.2025053,17.2701227 10,17.4802077 10,17.7393444 L10,21.520635 C10,21.7797718 10.2027362,21.9896175 10.4525775,21.9896175 L13.3465335,21.9896175 L13.3465335,31.5310176 C13.3465335,31.7901543 13.5490389,32 13.799111,32 L17.5749004,32 C17.8249726,32 18.0274779,31.789915 18.0274779,31.5310176 L18.0274779,21.9896175 L21.4111874,21.9896175 C21.6612596,21.9896175 21.8637649,21.7797718 21.8637649,21.520635 L21.8651504,17.7393444 C21.8651504,17.6149205 21.8173527,17.4957606 21.7326098,17.4077068 C21.647867,17.3196529 21.5324136,17.2701227 21.412342,17.2701227 L18.0274779,17.2701227 L18.0274779,15.0577697 C18.0274779,13.9944238 18.2720083,13.4546154 19.6087283,13.4546154 L21.5476534,13.4538976 C21.7974947,13.4538976 22,13.2438126 22,12.9849152 L22,9.47376798 C22,9.21510981 21.7977256,9.00526409 21.5481152,9.00478554 Z" id="Path" fill="#F3F5F8"></path>
                </g>
            </g>
        </g>
    </g>
</svg>