<?xml version="1.0" encoding="UTF-8"?>
<svg width="18px" height="20px" viewBox="0 0 18 20" version="1.1" xmlns="http://www.w3.org/2000/svg" xmlns:xlink="http://www.w3.org/1999/xlink">
    <!-- Generator: Sketch 52.4 (67378) - http://www.bohemiancoding.com/sketch -->
    <title>old-woman (3)</title>
    <desc>Created with Sketch.</desc>
    <g id="Page-1" stroke="none" stroke-width="1" fill="none" fill-rule="evenodd">
        <g id="Page-of-Recipe" transform="translate(-145.000000, -457.000000)" fill="#FFFFFF">
            <g id="Group-6" transform="translate(16.000000, 448.000000)">
                <g id="old-woman-(3)" transform="translate(138.260648, 18.906145) scale(-1, 1) translate(-138.260648, -18.906145) translate(129.000000, 9.000000)">
                    <g transform="translate(0.970803, 0.000000)">
                        <path d="M11.2335766,2.53600681 C11.0460792,1.10269281 9.90710678,0 8.52926184,0 C7.15102835,0 6.01179688,1.10334612 5.82481752,2.53731343 C6.69469681,2.32760114 7.60403562,2.21863848 8.53189535,2.21863848 C9.4578555,2.21863848 10.3653379,2.32718115 11.2335766,2.53600681 Z" id="Path"></path>
                        <path d="M8.46406518,10.1492537 C8.08658015,10.5243881 7.5979552,10.7300231 7.07967846,10.7300231 L3.46715328,10.7300231 L3.46715328,14.3013837 C3.46715328,17.268874 5.69893853,19.6913132 8.44214109,19.701472 C11.1701487,19.7096362 13.4525547,17.2832541 13.4525547,14.3668826 L13.4525547,10.7300695 L9.8466285,10.7300695 C9.31350416,10.7300231 8.82735381,10.5094514 8.46406518,10.1492537 Z M5.74274329,12.3174439 L7.0451643,12.3174439 L7.0451643,13.7090639 L5.74274329,13.7090639 L5.74274329,12.3174439 Z M9.87984024,12.3174439 L11.1822613,12.3174439 L11.1822613,13.7090639 L9.87984024,13.7090639 L9.87984024,12.3174439 Z M11.1822613,15.2306147 C11.1822613,16.8329722 9.96215324,18.1366418 8.46250227,18.1366418 C6.9628513,18.1366418 5.74274329,16.8329722 5.74274329,15.2306147 L7.0451643,15.2306147 C7.0451643,16.065633 7.68100625,16.7450219 8.46250227,16.7450219 C9.2439983,16.7450219 9.87984024,16.065633 9.87984024,15.2306147 L11.1822613,15.2306147 Z" id="Shape" fill-rule="nonzero"></path>
                        <path d="M2.31997586,15.2238806 C2.27776538,14.9061647 2.25544919,14.5815723 2.25544919,14.2515437 L2.25544919,9.28043819 L7.15164789,9.28043819 C7.54525191,9.28043819 7.88012455,8.92257807 7.88111927,8.4987401 L7.88047054,8.10310534 L9.17792362,8.10064278 L9.17857235,8.49339682 L9.17857235,8.49827547 C9.17948057,8.92973341 9.50656849,9.28043819 9.90804372,9.28043819 L14.7976687,9.28043819 L14.7976687,14.3171034 C14.7976687,14.6220883 14.7785096,14.9238672 14.7416187,15.2210928 C16.1779425,13.9849374 17.0583942,12.3203907 17.0583942,10.4890873 C17.0583942,6.67445264 13.2397302,3.58208955 8.52919708,3.58208955 C3.81866392,3.58208955 0,6.67445264 0,10.4890873 C0,12.3217381 0.881705867,13.9874465 2.31997586,15.2238806 Z" id="Path"></path>
                    </g>
                </g>
            </g>
        </g>
    </g>
</svg>