<?xml version="1.0" encoding="UTF-8"?>
<svg width="25px" height="26px" viewBox="0 0 25 26" version="1.1" xmlns="http://www.w3.org/2000/svg" xmlns:xlink="http://www.w3.org/1999/xlink">
    <!-- Generator: Sketch 52.4 (67378) - http://www.bohemiancoding.com/sketch -->
    <title>info-button</title>
    <desc>Created with Sketch.</desc>
    <g id="Page-1" stroke="none" stroke-width="1" fill="none" fill-rule="evenodd">
        <g id="Home-Screen-City" transform="translate(-323.000000, -32.000000)" fill="#FFFFFF" fill-rule="nonzero">
            <g id="info-button" transform="translate(323.000000, 32.000000)">
                <path d="M21.3394303,4.34431063 C16.4578555,-0.536720686 8.54309558,-0.53726417 3.6609773,4.34431063 C-1.2205975,9.22588543 -1.22005402,17.1406454 3.6609773,22.0227637 C8.54255209,26.9032515 16.457312,26.903795 21.3394303,22.0227637 C26.2204616,17.1406454 26.2199181,9.22642891 21.3394303,4.34431063 Z M14,19.0166667 C14,19.9372222 13.3285,20.6833333 12.5,20.6833333 C11.6715,20.6833333 11,19.9372222 11,19.0166667 L11,12.35 C11,11.4294444 11.6715,10.6833333 12.5,10.6833333 C13.3285,10.6833333 14,11.4294444 14,12.35 L14,19.0166667 Z M12.4722659,9.68333333 C11.5779825,9.68333333 10.9817936,9.01642451 11.0004245,8.19314082 C10.9817936,7.33008233 11.5779825,6.68333333 12.4903793,6.68333333 C13.4032936,6.68333333 13.9808516,7.33062719 14,8.19314082 C13.9994825,9.01642451 13.4038111,9.68333333 12.4722659,9.68333333 Z" id="Shape"></path>
            </g>
        </g>
    </g>
</svg>