<?xml version="1.0" encoding="UTF-8"?>
<svg width="33px" height="34px" viewBox="0 0 33 34" version="1.1" xmlns="http://www.w3.org/2000/svg" xmlns:xlink="http://www.w3.org/1999/xlink">
    <!-- Generator: Sketch 52.4 (67378) - http://www.bohemiancoding.com/sketch -->
    <title>newspaper (1)</title>
    <desc>Created with Sketch.</desc>
    <g id="Page-1" stroke="none" stroke-width="1" fill="none" fill-rule="evenodd">
        <g id="Home-Screen-City" transform="translate(-301.000000, -171.000000)">
            <g id="newspaper-(1)" transform="translate(301.000000, 171.000000)">
                <polygon id="Path" fill="#F7C800" points="13 23.4409197 13 28.6833333 11.4996694 27.3402191 10 28.6833333 10 13.6833333 10.2761426 14.5822316"></polygon>
                <polygon id="Path" fill="#CCA602" points="13 24.2876683 13 26.6183083 12.9174097 26.6833333 10 25.4227181 10 16.184344 10.2761426 14.6833333"></polygon>
                <path d="M32,22.8857614 L22.20251,32.6833333 L0.85025145,11.3309605 C-0.165209013,10.3154915 -0.243420064,8.59630973 0.468050276,6.79602899 C0.9207633,5.65223895 1.69081173,4.47604783 2.74149604,3.42535474 C5.44718778,0.719640384 8.98708796,-0.127278815 10.6477415,1.53338858 L11.4304936,2.31614723 L17.406036,8.29173962 L26.6055548,17.4913353 L32,22.8857614 Z" id="Path" fill="#EAEAF2"></path>
                <path d="M25,30.5976085 L22.8623435,32.6833333 L0.875519964,11.2380068 C-0.170118838,10.2181172 -0.250654234,8.49145127 0.481960202,6.68333333 L25,30.5976085 Z" id="Path" fill="#CBCBD8"></path>
                <path d="M21.6961091,13.4698582 C20.4645266,12.3202752 18.1907525,12.4693249 16,13.6659981 L20.3038909,17.6833333 C22.4946434,16.4867195 24.7684174,16.3376104 26,17.4871934" id="Path" fill="#00AEDA"></path>
                <path d="M32.4683909,27.4073093 C31.9914631,28.5679898 31.2024763,29.7565273 30.1382617,30.8215169 C27.3142624,33.6454401 23.6203152,34.52936 21.8870489,32.7961404 C20.4555289,31.3646589 20.8095751,28.5944405 22.5678195,26.0825678 C22.9380044,25.5534212 23.370802,25.0359932 23.8617256,24.5451498 C26.6849882,21.7212266 30.3796721,20.8373067 32.1129384,22.5705263 C33.192622,23.6502479 33.256641,25.4908771 32.4683909,27.4073093 Z" id="Path" fill="#939AA0"></path>
                <path d="M32,27.6910359 C31.5425508,28.7992444 30.7857878,29.9340504 29.7650377,30.9508939 C27.0563759,33.6471532 23.5132966,34.4911128 21.8508202,32.8362486 C20.4777661,31.4694815 20.8173524,28.8244992 22.5037868,26.4261833 C25.2060897,24.2295226 28.8494328,24.0700015 30.9615865,26.1717806 C31.4091442,26.617353 31.7543186,27.1317847 32,27.6910359 Z" id="Path" fill="#BABFC5"></path>
                <path d="M30,31.1779632 C27.5278035,33.6501598 24.2940337,34.4239853 22.7766909,32.9066425 C21.2593481,31.3892997 22.0331736,28.154885 24.5053701,25.6833333 L26.4595726,27.6375358 C24.8661955,29.2302679 24.3674885,31.3139689 25.345557,32.2919788 C26.3229806,33.2693438 28.4072678,32.7706368 30,31.1779632 Z" id="Path" fill="#939AA0"></path>
                <path d="M20,11.464407 C18.2679065,9.73232095 14.5764587,10.6163989 11.7543702,13.4377391 C10.6577501,14.5343544 9.85457481,15.7618649 9.38312254,16.9541087 C8.64097838,18.8318123 8.72188481,20.6241931 9.78102959,21.6833333 L7.88638708,19.788699 C6.8272423,18.7295588 6.74640279,16.937178 7.48848003,15.0594743 C7.95993229,13.8672306 8.76310761,12.6397201 9.85972766,11.5431047 C12.6818161,8.72176454 16.373264,7.83768662 18.1053575,9.56977268 L20,11.464407 Z" id="Path" fill="#F7C800"></path>
                <g id="Group" transform="translate(2.000000, 2.683333)" fill="#414551">
                    <path d="M4.17282916,3.10493671 C4.39300228,2.9171519 4.41794077,2.58765823 4.22863781,2.36917722 C4.03939863,2.15075949 3.70741686,2.12594937 3.48717995,2.31379747 C3.27529841,2.49455696 3.0625877,2.69075949 2.8549795,2.89670886 C1.31950797,4.42037975 0.292692483,6.27759494 0.0378223235,7.9921519 C-0.0045284738,8.27721519 0.194022779,8.54240506 0.48129385,8.58436709 C0.507316629,8.58816456 0.533084282,8.59 0.558660592,8.59 C0.815061503,8.59 1.03963554,8.40360759 1.07815945,8.1443038 C1.30075626,6.64677215 2.21939863,5.00297468 3.59854214,3.63443038 C3.7875262,3.44696203 3.9807836,3.26879747 4.17282916,3.10493671 Z" id="Path"></path>
                    <path d="M5.61109795,4.5321519 C5.83127107,4.34436709 5.85620957,4.01487342 5.66690661,3.79639241 C5.47766743,3.57797468 5.14562187,3.55316456 4.92544875,3.74101266 C4.7135672,3.92177215 4.50085649,4.11797468 4.29324829,4.32392405 C2.75777677,5.84753165 1.73102506,7.70481013 1.4761549,9.41936709 C1.4338041,9.70443038 1.63235535,9.96962025 1.91962642,10.0115823 C1.9456492,10.0153797 1.97141686,10.0172152 1.99699317,10.0172152 C2.25339408,10.0172152 2.47796811,9.83082278 2.51649203,9.57151899 C2.73908884,8.07405063 3.65773121,6.43025316 5.03687472,5.06170886 C5.22585877,4.87417722 5.41911617,4.69607595 5.61109795,4.5321519 Z" id="Path"></path>
                    <path d="M7.04943052,5.95949367 C7.26960364,5.77170886 7.29454214,5.44221519 7.10523918,5.22373418 C6.916,5.00531646 6.58401822,4.98050633 6.36378132,5.16835443 C6.15177221,5.3493038 5.9390615,5.54537975 5.73158087,5.75132911 C4.19610934,7.27493671 3.16935763,9.1321519 2.91448747,10.8466456 C2.87213667,11.1317089 3.07068793,11.3968987 3.357959,11.4388608 C3.38398178,11.4426582 3.40974943,11.4444937 3.43532574,11.4444937 C3.69172665,11.4444937 3.91630068,11.2581013 3.9548246,10.9987975 C4.17742141,9.50126582 5.09606378,7.85746835 6.47520729,6.48892405 C6.66419134,6.30158228 6.8572574,6.12335443 7.04943052,5.95949367 Z" id="Path"></path>
                    <path d="M15.7724829,6.04955696 C15.5671071,6.25335443 15.2341048,6.25335443 15.0287289,6.04955696 C14.0031891,5.03189873 12.0116173,5.14594937 9.95562642,6.34031646 C9.87220046,6.38829114 9.78035535,6.41196203 9.69067882,6.41196203 C9.50979499,6.41196203 9.3338861,6.31943038 9.23642825,6.15316456 C9.08992255,5.90481013 9.17405011,5.58487342 9.42426424,5.43949367 C10.7393075,4.6756962 12.057221,4.3028481 13.2103235,4.32373418 C12.1174943,3.64481013 10.3432255,3.85278481 8.51716629,4.91291139 C8.43374032,4.96158228 8.34259681,4.98455696 8.25221868,4.98455696 C8.07133485,4.98455696 7.89542597,4.89202532 7.79796811,4.72575949 C7.65146241,4.47740506 7.73558998,4.15816456 7.9858041,4.01208861 C9.30154897,3.24829114 10.6187608,2.87544304 11.7718633,2.89632911 C10.6790342,2.21740506 8.90476538,2.42537975 7.07870615,3.48550633 C6.99528018,3.53417722 6.90413667,3.5571519 6.81375854,3.5571519 C6.63287472,3.5571519 6.45766743,3.46462025 6.35950797,3.29905063 C6.21300228,3.05 6.29712984,2.73075949 6.54804556,2.58537975 C7.86308884,1.82158228 9.18100228,1.44873418 10.3334032,1.46892405 C9.24057403,0.79 7.46630524,0.997974684 5.64024601,2.05810127 C5.55682005,2.10677215 5.46567654,2.12974684 5.37529841,2.12974684 C5.19511617,2.12974684 5.01920729,2.03721519 4.92104784,1.87164557 C4.77454214,1.62259494 4.8586697,1.30335443 5.10958542,1.15797468 C6.79755809,0.177848101 8.4898041,-0.158797468 9.83220957,0.154873418 L15.7724829,6.04955696 Z" id="Path"></path>
                    <path d="M7.80217768,6.59563291 C7.59042369,6.77626582 7.37771298,6.97246835 7.16997722,7.17860759 C5.63450569,8.70221519 4.60775399,10.5594304 4.35288383,12.2739241 C4.31053303,12.5589873 4.50908428,12.8241772 4.79635535,12.8661392 C4.82237813,12.8699367 4.84814579,12.8717722 4.8737221,12.8717722 C5.13012301,12.8717722 5.35469704,12.6853797 5.39322096,12.4260759 C5.61581777,10.9285443 6.53446014,9.28474684 7.91360364,7.91620253 C8.10277904,7.72848101 8.29597267,7.55025316 8.48789066,7.38658228 C8.70806378,7.19879747 8.73300228,6.8693038 8.54369932,6.65082278 C8.35426879,6.43259494 8.0223508,6.40772152 7.80217768,6.59563291 Z" id="Path"></path>
                    <path d="M17.8197358,16.646962 C18.0399089,16.4590506 18.0648474,16.1296835 17.8755444,15.9112025 C17.6862415,15.6927215 17.3543235,15.6679747 17.1340866,15.8558228 C16.9223326,16.036519 16.7095581,16.2326582 16.5018861,16.4387975 C14.9664146,17.9624684 13.9395991,19.8196835 13.6847927,21.5342405 C13.6424419,21.8193038 13.8409932,22.0844937 14.1282642,22.1264557 C14.154287,22.1302532 14.1800547,22.1320886 14.205631,22.1320886 C14.4620319,22.1320886 14.6866059,21.9456962 14.7251298,21.6863924 C14.9477267,20.1888608 15.866369,18.5450633 17.2455125,17.176519 C17.4346879,16.9889241 17.6278178,16.8106962 17.8197358,16.646962 Z" id="Path"></path>
                    <path d="M19.2580683,18.0742405 C19.4782415,17.8863291 19.50318,17.556962 19.313877,17.338481 C19.1244465,17.1199367 18.7925923,17.0952532 18.5724191,17.2831013 C18.3606651,17.4637975 18.1478907,17.6599367 17.9402187,17.8660759 C16.4047472,19.3897468 15.3779317,21.246962 15.1231253,22.961519 C15.0807745,23.2465823 15.2793257,23.5117722 15.5665968,23.5537342 C15.5926196,23.5575316 15.6183872,23.5593671 15.6439636,23.5593671 C15.9003645,23.5593671 16.1249385,23.3729747 16.1634624,23.1136709 C16.3860592,21.6161392 17.3047016,19.9723418 18.6838451,18.6037975 C18.8730205,18.4162025 19.0661503,18.2379747 19.2580683,18.0742405 Z" id="Path"></path>
                    <path d="M27.9810569,18.1643038 C27.7756811,18.3681013 27.4426788,18.3681013 27.237303,18.1643038 C26.2117631,17.1466456 24.2201913,17.2606962 22.1642005,18.4550633 C22.0807745,18.503038 21.9889294,18.5267089 21.8992528,18.5267089 C21.718369,18.5267089 21.5424601,18.4341772 21.4450023,18.2679114 C21.2984966,18.019557 21.3826241,17.6996203 21.6328383,17.5542405 C22.9478815,16.790443 24.265795,16.4175949 25.4188975,16.438481 C24.3260683,15.759557 22.5517995,15.9675316 20.7257403,17.0276582 C20.6423144,17.0763291 20.5511708,17.0993038 20.4607927,17.0993038 C20.2799089,17.0993038 20.1047016,17.0067722 20.0065421,16.8405063 C19.8600364,16.5921519 19.944164,16.2729114 20.1950797,16.1268354 C21.8830524,15.1467089 23.5752984,14.8100633 24.9177039,15.1244304 L27.9810569,18.1643038 Z" id="Path"></path>
                    <path d="M20.0108155,18.710443 C19.7988064,18.8913924 19.5861595,19.0874684 19.3786788,19.2933544 C17.8432073,20.8170253 16.8163918,22.6742405 16.5615216,24.3887975 C16.5191708,24.6738608 16.7177221,24.9390506 17.0049932,24.9810127 C17.0310159,24.9848101 17.0567836,24.9866456 17.0823599,24.9866456 C17.3387608,24.9866456 17.5633349,24.8002532 17.6018588,24.5409494 C17.8244556,23.0434177 18.7430979,21.3996203 20.1222415,20.0310759 C20.3112255,19.8435443 20.5044191,19.6653797 20.6965923,19.5013924 C20.9167016,19.313481 20.9417039,18.9841139 20.7523371,18.7656329 C20.5629066,18.5472785 20.2309248,18.5224684 20.0108155,18.710443 Z" id="Path"></path>
                    <path d="M13.5048656,12.3652532 C13.7250387,12.1773418 13.7499772,11.8479747 13.5606743,11.6294937 C13.3713075,11.4109494 13.0393895,11.3861392 12.8192164,11.5741139 C12.6075262,11.7547468 12.3948155,11.9509494 12.1870159,12.1570886 C10.6514806,13.6806962 9.62472893,15.5379747 9.36985877,17.2525316 C9.32750797,17.5375949 9.52605923,17.8027848 9.8133303,17.8447468 C9.83935308,17.8485443 9.86512073,17.8503797 9.89069704,17.8503797 C10.1470979,17.8503797 10.371672,17.6639873 10.4101959,17.4046835 C10.6327927,15.9071519 11.5514351,14.2633544 12.9305148,12.8948101 C13.1198178,12.7070886 13.3130752,12.5289241 13.5048656,12.3652532 Z" id="Path"></path>
                    <path d="M14.9431344,13.7924684 C15.1633075,13.604557 15.188246,13.2751899 14.9989431,13.0567089 C14.8095763,12.8382278 14.4777221,12.813481 14.2574852,13.0013291 C14.0457312,13.1820253 13.8329567,13.3781646 13.6252847,13.5843038 C12.0898132,15.1079747 11.0629977,16.9651899 10.8081276,18.6797468 C10.7657768,18.9648101 10.964328,19.23 11.2515991,19.271962 C11.2776219,19.2757595 11.3033895,19.2775949 11.3289658,19.2775949 C11.5853667,19.2775949 11.8099408,19.0912025 11.8484647,18.8318987 C12.0710615,17.3343671 12.9897039,15.6905696 14.3688474,14.3220253 C14.5580228,14.1344304 14.7512164,13.9562025 14.9431344,13.7924684 Z" id="Path"></path>
                    <path d="M16.381467,15.2197468 C16.6016401,15.0318354 16.6265786,14.7024684 16.4372756,14.4839873 C16.2479089,14.265443 15.9159909,14.2407595 15.6958178,14.4286076 C15.4840638,14.6093038 15.2712893,14.805443 15.0636173,15.0115823 C13.5281458,16.5352532 12.5013303,18.3924684 12.2464601,20.1070253 C12.2041093,20.3920886 12.4026606,20.6572785 12.6899317,20.6992405 C12.7159544,20.703038 12.7417221,20.7048734 12.7672984,20.7048734 C13.0236993,20.7048734 13.2482733,20.518481 13.2867973,20.2591772 C13.5093941,18.7616456 14.4280364,17.1178481 15.80718,15.7493038 C15.9963554,15.5617089 16.189549,15.383481 16.381467,15.2197468 Z" id="Path"></path>
                </g>
                <path d="M10,21.6833333 L7.95617869,19.6811107 C6.81363984,18.5618264 6.72643526,16.6676638 7.52694157,14.6833333 L9.57076287,16.685556 C8.77018438,18.6699572 8.85746115,20.5641197 10,21.6833333 Z" id="Path" fill="#CCA602"></path>
            </g>
        </g>
    </g>
</svg>