<?xml version="1.0" encoding="UTF-8"?>
<svg width="31px" height="24px" viewBox="0 0 31 24" version="1.1" xmlns="http://www.w3.org/2000/svg" xmlns:xlink="http://www.w3.org/1999/xlink">
    <!-- Generator: Sketch 52.4 (67378) - http://www.bohemiancoding.com/sketch -->
    <title>open-book</title>
    <desc>Created with Sketch.</desc>
    <g id="Page-1" stroke="none" stroke-width="1" fill="none" fill-rule="evenodd">
        <g id="Compass-Screen" transform="translate(-302.000000, -238.000000)">
            <g id="open-book" transform="translate(302.000000, 238.000000)">
                <path d="M4.10597911,0 C4.10514433,0 4.1042052,0 4.10337042,0 C3.81025831,0 3.53457222,0.116730165 3.32639897,0.328869917 C3.11593007,0.543354932 3,0.828944075 3,1.13297552 L3,18.1217451 C3,18.7447324 3.4980506,19.2528018 4.11036171,19.2544008 C6.69171007,19.2606904 11.0164964,19.8103349 14,23 L14,5.22076995 C14,5.00958963 13.9472002,4.81120165 13.8475483,4.6470332 C11.3988256,0.618296764 6.69317093,0.00618296764 4.10597911,0 Z" id="Path" fill="#FFFFFF"></path>
                <path d="M27,18.1218517 L27,1.13297552 C27,0.828944075 26.8840688,0.543354932 26.6735979,0.328869917 C26.4654227,0.116730165 26.1895253,0 25.8967235,0 C25.8957843,0 25.8948452,0 25.8940104,0 C23.3068984,0.00628957053 18.6011991,0.618403367 16.1523488,4.6471398 C16.052696,4.81130825 16,5.00969623 16,5.22087655 L16,23 C18.9835319,19.8103349 23.3083593,19.2606904 25.8897321,19.2544008 C26.5019447,19.2528018 27,18.7447324 27,18.1218517 Z" id="Path" fill="#FFFFFF"></path>
                <path d="M29.8994479,4 L29.1013249,4 L29.1013249,18.0142331 C29.1013249,19.5836177 27.8422046,20.8633377 26.2944302,20.8672293 C24.1211868,20.8724883 20.5378156,21.3040402 18,23.7432599 C22.3891584,22.6519165 27.0161173,23.3613528 29.653051,23.9716048 C29.9823052,24.0477548 30.322538,23.9690805 30.5863349,23.7555659 C30.8491997,23.5425773 31,23.2241987 31,22.8824702 L31,5.11763827 C31.0001036,4.50139108 30.506274,4 29.8994479,4 Z" id="Path" fill="#E2917B"></path>
                <path d="M1.89869021,18.0144024 L1.89869021,4 L1.10056088,4 C0.493833455,4 0,4.50139714 0,5.11765177 L0,22.8823827 C0,23.2242205 0.150801491,23.5424978 0.413668377,23.755489 C0.67726027,23.968901 1.01718506,24.0478918 1.34695975,23.9715305 C3.9839144,23.361166 8.61101374,22.6518263 13,23.7431829 C10.4622678,21.3040388 6.87886803,20.872587 4.70560725,20.8673279 C3.15792409,20.8635414 1.89869021,19.5838059 1.89869021,18.0144024 Z" id="Path" fill="#E2917B"></path>
            </g>
        </g>
    </g>
</svg>