<?xml version="1.0" encoding="UTF-8"?>
<svg width="206px" height="139px" viewBox="0 0 206 139" version="1.1" xmlns="http://www.w3.org/2000/svg" xmlns:xlink="http://www.w3.org/1999/xlink">
    <!-- Generator: Sketch 52.4 (67378) - http://www.bohemiancoding.com/sketch -->
    <title>Postcard</title>
    <desc>Created with Sketch.</desc>
    <g id="Page-1" stroke="none" stroke-width="1" fill="none" fill-rule="evenodd">
        <g id="Backpack-NEW-Screen-Postcards" transform="translate(-77.000000, -397.000000)">
            <g id="Postcard" transform="translate(77.000000, 397.000000)">
                <g id="postcard-(1)">
                    <rect id="Rectangle" fill="#FFFBEB" x="0" y="0" width="206" height="139" rx="6"></rect>
                    <path d="M90.6695671,87.9816627 L20.1737406,95.9214863 C18.7901424,96.0774968 17.5450207,95.0562644 17.3929299,93.6406277 L9.3597361,18.9772337 C9.20725634,17.5615969 10.2057654,16.2876433 11.5889746,16.1320307 L82.0848012,8.19220722 C83.4683994,8.03619665 84.7135211,9.05782707 84.8656119,10.4730658 L92.8988056,85.1364598 C93.0512854,86.5520965 92.0531654,87.8260502 90.6695671,87.9816627 Z" id="Path" fill="#684AE2"></path>
                    <path d="M190.499569,49.6053098 L161.448161,52.8841262 C160.014395,53.0461247 158.724126,51.9852826 158.56652,50.5157248 L154.515938,12.7907396 C154.35793,11.3207686 155.392644,9.99791871 156.826007,9.83633348 L185.877415,6.55751709 C187.311182,6.3955186 188.601451,7.45636076 188.759056,8.92591849 L192.809638,46.6509037 C192.967647,48.1204614 191.933335,49.4433114 190.499569,49.6053098 Z" id="Path" fill="#E15522"></path>
                    <g id="Group" transform="translate(122.312500, 14.717647)" fill="#F5A623">
                        <path d="M54.9512577,10.9268669 C51.0791845,11.3626085 48.75757,9.45967569 47.2209619,8.2003574 C45.9051495,7.1218344 45.4354493,6.78648832 44.3249525,6.91146201 C43.2140484,7.03643571 42.8274521,7.46842812 41.7727654,8.8131451 C40.5408717,10.384481 38.6795879,12.7585647 34.8075146,13.1943063 C30.9358488,13.630048 28.6142343,11.7271151 27.0776262,10.4673803 C25.7622212,9.38927384 25.2933357,9.05392775 24.1828389,9.17890145 C23.0727496,9.30387515 22.6861533,9.7350344 21.6318739,11.0805845 C20.3999802,12.6519205 18.5391038,15.0255876 14.6674379,15.4617458 C10.7953647,15.8974874 8.4737502,13.9945546 6.93714207,12.7348197 C5.62173707,11.6562967 5.15285161,11.3213672 4.04276222,11.4459243 C2.23688103,11.6492149 0.611873121,10.3169952 0.413075463,8.47030059 C0.214277804,6.62360593 1.51705426,4.96187234 3.32293545,4.75858179 C7.19460133,4.32284017 9.51621579,6.225773 11.0528239,7.48550786 C12.3682289,8.56361428 12.8371144,8.89896037 13.9476111,8.77398667 C15.0577005,8.64901298 15.4442968,8.21785372 16.4985762,6.87230359 C17.7304699,5.30096764 19.5913463,2.92730056 23.4630122,2.49114236 C27.3350854,2.05540073 29.6566999,3.95875014 31.193308,5.21806842 C32.508713,6.29659142 32.9775985,6.63152093 34.0876879,6.50696381 C35.198592,6.38199012 35.5855956,5.9499977 36.6402824,4.60444757 C37.8721761,3.0335282 39.7330525,0.659861119 43.6055331,0.223702917 C47.4780138,-0.212038706 49.7996282,1.69089412 51.3362364,2.95062898 C52.6520487,4.02873541 53.1209342,4.36408149 54.2318383,4.2391078 C56.0377195,4.03581725 57.6627274,5.36803686 57.8615251,7.21473152 C58.0599154,9.06184275 56.7571389,10.7235763 54.9512577,10.9268669 Z" id="Path"></path>
                        <path d="M56.9310869,29.3192458 C53.0590136,29.7549875 50.7373991,27.8520546 49.200791,26.5927364 C47.8849786,25.5142134 47.4152784,25.1788673 46.3047817,25.303841 C45.1938776,25.4288147 44.8072813,25.8608071 43.7525945,27.2055241 C42.5207008,28.77686 40.659417,31.1509437 36.7873438,31.5866853 C32.9156779,32.0224269 30.5940634,30.1194941 29.0574553,28.8597592 C27.7420503,27.7816528 27.2731648,27.4463067 26.1626681,27.5712804 C25.0525787,27.6962541 24.6659824,28.1274134 23.6117031,29.4729635 C22.3798094,31.0442994 20.5189329,33.4179665 16.647267,33.8541247 C12.7751938,34.2898663 10.4535793,32.3869335 8.91697121,31.1271987 C7.60156621,30.0486757 7.13268075,29.7137462 6.02259136,29.8383033 C4.21671017,30.0415938 2.59170226,28.7093742 2.3929046,26.8626795 C2.19410695,25.0159849 3.4968834,23.3542513 5.30276459,23.1509608 C9.17443047,22.7152191 11.4960449,24.618152 13.0326531,25.8778868 C14.3480581,26.9559932 14.8169435,27.2913393 15.9274403,27.1663656 C17.0375297,27.0413919 17.4241259,26.6102327 18.4784053,25.2646825 C19.710299,23.6933466 21.5711754,21.3196795 25.4428413,20.8835213 C29.3149146,20.4477797 31.636529,22.3511291 33.1731372,23.6104474 C34.4885422,24.6889704 34.9574276,25.0238999 36.067517,24.8993428 C37.1784211,24.7743691 37.5654248,24.3423767 38.6201115,22.9968265 C39.8520052,21.4259072 41.7128817,19.0522401 45.5853623,18.6160819 C49.4578429,18.1803403 51.7794574,20.0832731 53.3160655,21.3430079 C54.6318779,22.4211144 55.1007633,22.7564604 56.2116675,22.6314868 C58.0175486,22.4281962 59.6425566,23.7604158 59.8413542,25.6071105 C60.0401519,27.4538051 58.7373754,29.1159553 56.9310869,29.3192458 Z" id="Path"></path>
                    </g>
                    <g id="tulip" transform="translate(50.168527, 52.323417) rotate(-7.000000) translate(-50.168527, -52.323417) translate(37.168527, 17.323417)">
                        <path d="M12.7352796,43.62728 L11.4635363,43.62728 C10.9767412,43.62728 10.499131,43.723505 10.0339556,43.6508672 C5.89358337,43.0038273 2.73527959,39.593332 2.73527959,35.4832617 L2.73527959,34.8923754 C2.73527959,34.4297445 2.9824217,34.0219271 3.35829249,33.7810964 C3.58381497,33.6366248 3.85568542,33.6862115 4.14832768,33.6862115 C8.96879992,33.6862115 12.7351383,37.2584668 12.7351383,41.8302298 L12.7351383,43.62728 L12.7352796,43.62728 Z" id="Path" fill="#8AD3A5"></path>
                        <path d="M12.7315527,41.8471097 L12.7315527,43.7389306 L11.3950513,43.7389306 C10.9406409,43.7389306 10.4942494,43.7021707 10.05855,43.6325895 L10.05855,41.8471097 C10.05855,39.6086956 9.13502757,37.5816508 7.64081908,36.1138813 C6.58231002,35.0741019 5.23645317,34.315273 3.73155267,33.9621156 C3.94405638,33.8203275 4.20066464,33.7389306 4.47598391,33.7389306 C6.75605519,33.7389306 8.81961325,34.6461119 10.3138217,36.1138813 C11.8080302,37.5816508 12.7315527,39.6086956 12.7315527,41.8471097 Z" id="Path" fill="#5BBF81"></path>
                        <path d="M12.643291,36.8344508 L14.0563391,36.7015647 C18.8768113,36.7015647 22.6431497,33.1594856 22.6431497,28.6263419 L22.6431497,28.0404471 C22.6431497,27.3065171 22.1518329,26.8444721 21.3714064,26.8444721 C20.6694041,26.8444721 19.9867606,26.7895902 19.3326606,26.9366951 C15.4956699,27.800189 12.6431497,31.0467294 12.6431497,34.9196949 L12.6431497,36.8344508 L12.643291,36.8344508 Z" id="Path" fill="#8AD3A5"></path>
                        <path d="M22.6431497,28.1473036 L22.6431497,28.7262717 C22.6431497,33.2044127 18.7891717,36.8344508 14.0364895,36.8344508 L12.6431497,36.8344508 L12.6431497,36.7281097 C16.7326021,36.1018789 19.85647,32.7580427 19.85647,28.7262717 L19.85647,28.1473036 C19.85647,27.6930565 19.6112422,27.2926364 19.2392205,27.0576358 C19.8843368,26.9119091 20.55732,26.8344508 21.2498099,26.8344508 C22.0189335,26.8344508 22.6431497,27.421296 22.6431497,28.1473036 Z" id="Path" fill="#5BBF81"></path>
                        <path d="M13.3858831,63.3905773 C12.8336165,63.3905773 12.3858831,62.9194052 12.3858831,62.3382274 L12.3858831,21.4429273 C12.3858831,20.8617495 12.8336165,20.3905773 13.3858831,20.3905773 C13.9382831,20.3905773 14.3858831,20.8617495 14.3858831,21.4429273 L14.3858831,62.3382274 C14.3858831,62.9194052 13.9382831,63.3905773 13.3858831,63.3905773 Z" id="Path" fill="#966A5B"></path>
                        <path d="M16.9971486,69.3708236 L7.12858936,69.3708236 C3.69164528,69.3708236 1.25393729,66.2525894 2.31290483,63.2107773 L6.08683258,52.3708236 L18.0390501,52.3708236 L21.8129778,63.2107773 C22.8718007,66.2525894 20.4340927,69.3708236 16.9971486,69.3708236 Z" id="Path" fill="#966A5B"></path>
                        <path d="M19.2813522,69.2922975 L15.1288772,69.2922975 C18.4176374,69.2922975 20.7513284,66.1735005 19.7367403,63.1327407 L16.1254712,52.2922975 L20.2779462,52.2922975 L23.8892153,63.1327407 C24.9038034,66.1735005 22.5701124,69.2922975 19.2813522,69.2922975 Z" id="Path" fill="#785353"></path>
                        <path d="M19.5815657,54.2551042 L3.76026757,54.2551042 C2.33024527,54.2551042 1.17091663,53.1357806 1.17091663,51.7551042 C1.17091663,50.3744278 2.33024527,49.2551042 3.76026757,49.2551042 L19.5815657,49.2551042 C21.011588,49.2551042 22.1709166,50.3744278 22.1709166,51.7551042 C22.1709166,53.1359206 21.011733,54.2551042 19.5815657,54.2551042 Z" id="Path" fill="#FFE07D"></path>
                        <path d="M25.2182475,51.9812515 C25.2182475,52.6713411 24.9257276,53.2970409 24.4533081,53.7491686 C23.9808885,54.2012963 23.3271067,54.4812515 22.6060452,54.4812515 L18.2182475,54.4812515 C18.9393089,54.4812515 19.5930908,54.2012963 20.0655103,53.7491686 C20.5379299,53.2970409 20.8304497,52.6713411 20.8304497,51.9812515 C20.8304497,50.5996725 19.6603704,49.4812515 18.2182475,49.4812515 L22.6060452,49.4812515 C24.0481681,49.4812515 25.2182475,50.5996725 25.2182475,51.9812515 Z" id="Path" fill="#FFD064"></path>
                        <path d="M21.6201909,14.1351905 L5.62019088,14.1602577 L6.34053074,6.92905442 L12.1118152,0.822075922 C12.9457185,-0.0603483209 14.3316888,-0.0603483209 15.1655921,0.822075922 L21.5726656,7.60178672 L21.6201909,14.1351905 Z" id="Path" fill="#DB4655"></path>
                        <path d="M24.8889748,3.92736559 L24.8889748,11.6842979 C24.8889748,18.220487 19.2968335,23.4088145 12.3856019,23.1026483 C11.8472299,23.0788474 11.3180191,23.1568765 10.8004032,23.0685697 C5.16374355,22.1066614 0.888974823,17.4477689 0.888974823,11.8464416 L0.888974823,3.79199792 C0.888974823,3.39928294 1.24182969,3.09230532 1.65666677,3.11691762 C4.6836319,3.29650629 7.40941786,4.530367 9.42477027,6.43308732 C10.8061291,7.73916215 11.9117887,9.36005808 12.5381956,11.1716317 C12.6681721,11.5474427 13.2300201,11.5410867 13.3547003,11.163653 C14.471239,7.78622304 17.234243,5.07413661 20.7353076,3.83094486 C21.8484108,3.43566046 22.8929471,3.32422894 24.1261498,3.25174436 C24.539126,3.22753775 24.8889748,3.53654386 24.8889748,3.92736559 Z" id="Path" fill="#E5646E"></path>
                        <path d="M24.8517056,4.39650223 L24.8517056,12.2357071 C24.8517056,18.7276325 19.2091789,24.0160063 12.4105469,23.7124319 C11.8810759,23.6882534 11.360054,23.6318369 10.8517056,23.5431824 C16.3984769,22.5733562 20.6272035,17.8558635 20.6272035,12.2357071 L20.6272035,4.43545647 C21.7213495,4.04322757 22.8887203,3.79875614 24.1011524,3.72622066 C24.5081127,3.70204217 24.8517056,4.00830308 24.8517056,4.39650223 Z" id="Path" fill="#DB4655"></path>
                    </g>
                    <rect id="Rectangle" fill="#D8E0C9" x="110" y="104" width="81" height="5" rx="2.5"></rect>
                    <rect id="Rectangle" fill="#D8E0C9" x="153" y="91" width="38" height="5" rx="2.5"></rect>
                    <rect id="Rectangle" fill="#D8E0C9" x="110" y="119" width="81" height="5" rx="2.5"></rect>
                    <rect id="Rectangle" fill="#D8E0C9" x="15" y="104" width="81" height="5" rx="2.5"></rect>
                    <rect id="Rectangle" fill="#D8E0C9" x="15" y="119" width="81" height="5" rx="2.5"></rect>
                </g>
            </g>
        </g>
    </g>
</svg>