<?xml version="1.0" encoding="UTF-8"?>
<svg width="263px" height="261px" viewBox="0 0 263 261" version="1.1" xmlns="http://www.w3.org/2000/svg" xmlns:xlink="http://www.w3.org/1999/xlink">
    <!-- Generator: Sketch 52.4 (67378) - http://www.bohemiancoding.com/sketch -->
    <title>Group 2</title>
    <desc>Created with Sketch.</desc>
    <g id="Page-1" stroke="none" stroke-width="1" fill="none" fill-rule="evenodd">
        <g id="Backpack-Screen-Postcards" transform="translate(-49.000000, -261.000000)">
            <g id="Group-2" transform="translate(49.000000, 261.000000)">
                <g id="postcard-(1)">
                    <path d="M263,130.5 C263,140.990977 261.76127,151.186289 259.421445,160.958496 C257.122402,170.598164 253.747754,179.819824 249.435137,188.496035 C249.440234,188.501133 249.440234,188.501133 249.435137,188.50623 C249.027324,189.326953 248.609316,190.132383 248.186211,190.937812 C246.142051,194.847715 243.90418,198.640371 241.482793,202.305586 C218.140625,237.668027 178.042461,261 132.5,261 C97.2395117,261 65.2466211,247.012031 41.7617188,224.291777 C38.7591992,221.386113 35.8943164,218.332617 33.1772656,215.15168 C32.1577344,213.95373 31.1585937,212.735391 30.1798437,211.501758 C24.3940039,204.201914 19.3728125,196.269961 15.2386133,187.828242 C6.76121094,170.521699 2,151.069043 2,130.5 C2,120.009023 3.23873047,109.813711 5.57855469,100.041504 C9.14691406,85.0951758 15.2946875,71.1479883 23.517207,58.6944141 C46.859375,23.3319727 86.9575391,0 132.5,0 C167.760488,0 199.753379,13.9879688 223.238281,36.7082227 C234.055508,47.1788086 243.073262,59.5049414 249.761387,73.1717578 C258.238789,90.4783008 263,109.930957 263,130.5 Z" id="Path" fill="#A279C8"></path>
                    <path d="M258,161.77639 C255.71366,171.399365 252.357658,180.605057 248.068869,189.266244 C248.073938,189.271332 248.073938,189.271332 248.068869,189.276421 C247.66331,190.095723 247.247612,190.899758 246.826844,191.703793 C244.793978,195.606924 242.568472,199.393013 240.160465,203.051881 L53.2990616,223.702349 L53.2939921,223.702349 L41.5429142,225 C38.5569846,222.099368 35.7079312,219.051159 33.005893,215.87573 C31.991995,214.679855 30.9983749,213.463625 30.0250328,212.232128 C24.2711616,204.944925 19.2777139,197.026708 15.1663575,188.599607 L5.55967388,100.964885 L2.04144779,68.8950852 C1.6308191,65.1598848 4.31764882,61.7961689 8.043724,61.3839737 L23.3992093,59.6893937 L35.1553567,58.3866535 C35.1604262,58.3866535 35.1604262,58.3866535 35.1654957,58.3866535 L222.01676,37.7412747 L237.387453,36.0416059 C241.113529,35.6294108 244.464462,38.3264901 244.87509,42.0667793 L248.393316,74.1416678 L258,161.77639 Z" id="Path" fill="#FFFBEB"></path>
                    <path d="M52,223.691549 L40.0871808,225 C37.060153,222.075227 34.1718854,219.001649 31.4326565,215.799792 C30.4048032,214.593965 29.3975071,213.367612 28.4107679,212.125867 C22.5777008,204.778015 17.5155235,196.793898 13.3475786,188.296662 L3.60866905,99.9325922 L0.0420182752,67.5958889 C-0.374262291,63.829602 2.34954882,60.4378913 6.12690951,60.0222657 L21.693747,58.3135824 L33.6117054,57 C29.8446232,57.4207568 27.1259514,60.8124675 27.5422319,64.5736233 L28.3182611,71.6084726 L31.4120994,99.6914267 L32.9949934,114.027947 L35.2151564,134.178095 L35.2151564,134.183226 L39.6606217,174.483522 L41.0071095,186.685471 L41.0071095,186.690602 L41.9116204,194.921016 L41.9116204,194.926148 L43.1861584,206.461043 L43.1861584,206.466174 L44.0906693,214.70172 L44.0958085,214.70172 L44.414443,217.61623 C44.8307236,221.387649 48.2226393,224.107174 52,223.691549 Z" id="Path" fill="#D8E0C9"></path>
                    <path d="M123.045481,164.756482 L30.254334,174.979731 C28.4331529,175.180609 26.7942435,173.865679 26.5940518,172.042917 L16.0202448,75.9069701 C15.8195411,74.0842084 17.133843,72.4438766 18.9545121,72.2435111 L111.745659,62.0202623 C113.566841,61.8193845 115.20575,63.1348271 115.405942,64.9570763 L125.979749,161.093023 C126.180452,162.915785 124.866662,164.556117 123.045481,164.756482 Z" id="Path" fill="#31A7AB"></path>
                    <path d="M18.9469939,72.0829454 C17.1307062,72.2841372 15.8204463,73.9265189 16.0201001,75.7521288 L26.5654962,172.038296 C26.7656606,173.863906 28.3996558,175.180891 30.2159435,174.979699 L40,173.897267 L28.7305398,71 L18.9469939,72.0829454 Z" id="Path" fill="#269999"></path>
                    <path d="M235.086839,101.948515 L198.702066,105.979909 C196.906378,106.17909 195.29041,104.874756 195.09302,103.067895 L190.019961,56.6840067 C189.822067,54.8766377 191.117971,53.250158 192.913155,53.0514846 L229.297928,49.0200912 C231.093616,48.8209097 232.709584,50.1252438 232.906973,51.9321047 L237.980032,98.3159933 C238.177926,100.122854 236.882527,101.749334 235.086839,101.948515 Z" id="Path" fill="#DD544C"></path>
                    <g id="Group" transform="translate(30.000000, 144.000000)" fill="#D8E0C9">
                        <path d="M210.763872,8.55308571 L171.675675,12.9080571 C169.423176,13.1590286 167.396283,11.5143429 167.14832,9.23451429 C166.900357,6.95468571 168.525327,4.9032 170.777826,4.65222857 L209.866023,0.297257143 C212.118522,0.0462857143 214.145415,1.69097143 214.393378,3.9708 C214.641341,6.25114286 213.016879,8.30211429 210.763872,8.55308571 Z" id="Path"></path>
                        <path d="M212.919828,28.3752 L137.523362,36.7755429 C135.270863,37.0265143 133.24397,35.3818286 132.996007,33.102 C132.748044,30.8221714 134.373014,28.7706857 136.625513,28.5197143 L212.021979,20.1193714 C214.274478,19.8684 216.301371,21.5130857 216.549334,23.7929143 C216.797297,26.0727429 215.172835,28.1242286 212.919828,28.3752 Z" id="Path"></path>
                        <path d="M218.691063,44.6245714 C218.696144,44.6297143 218.696144,44.6297143 218.691063,44.6348571 C218.284566,45.4628571 217.867907,46.2754286 217.446167,47.088 C216.821179,47.6897143 216.003104,48.096 215.078325,48.1988571 L139.678302,56.5971429 C137.427327,56.8491429 135.399926,55.2034286 135.150947,52.9251429 C134.901968,50.6417143 136.527954,48.5948571 138.784009,48.3428571 L214.178951,39.9394286 C216.429926,39.6925714 218.457327,41.3331429 218.706306,43.6165714 C218.741875,43.9611429 218.736794,44.2954286 218.691063,44.6245714 Z" id="Path"></path>
                        <path d="M97.1994153,61.3285714 L15.6511323,70.416 L15.646051,70.416 L4.68080742,71.64 C4.14728074,71.7017143 3.62391647,71.6502857 3.13103944,71.5165714 C2.11479814,70.308 1.11888167,69.0788571 0.143290023,67.8342857 C-0.0345522042,65.6074286 1.57110905,63.6274286 3.78143387,63.3805714 L14.7517587,62.1565714 L96.3000418,53.0742857 C98.5510162,52.8222857 100.578418,54.468 100.827397,56.7462857 C101.076376,59.0297143 99.4503898,61.0817143 97.1994153,61.3285714 Z" id="Path"></path>
                    </g>
                    <path d="M44,212.816397 L43.9954168,212.816397 L34.1049123,213.975464 C33.6236783,214.033904 33.1516107,213.985204 32.7070421,213.858583 C31.7904059,212.714126 30.8921025,211.550189 30.0121317,210.371642 C29.8517204,208.26292 31.3000056,206.387958 33.2936893,206.154197 L43.188777,205 L44,212.816397 Z" id="Path" fill="#C7CEB6"></path>
                    <path d="M93.3828772,188.591439 L31.5057808,194.976809 C29.2763244,195.206878 27.2701657,193.699169 27.0247394,191.609214 C26.7793131,189.51926 28.38766,187.638631 30.6171164,187.408561 L92.4942127,181.023191 C94.7236691,180.793122 96.7298278,182.300831 96.9752541,184.390786 C97.2206804,186.48074 95.6128365,188.361369 93.3828772,188.591439 Z" id="Path" fill="#D8E0C9"></path>
                    <path d="M30.2962336,187.157256 C28.2645574,187.394942 26.7988908,189.337827 27.0225447,191.496967 C27.2461987,193.656106 29.0743864,195.213726 31.1060626,194.976041 L41,193.818785 L40.190171,186 L30.2962336,187.157256 Z" id="Path" fill="#C7CEB6"></path>
                    <g id="Group" transform="translate(150.000000, 59.000000)" fill="#C63B38">
                        <path d="M68.822449,13.434878 C63.9729592,13.9706341 61.0653061,11.6309268 59.1408163,10.082561 C57.4928571,8.7564878 56.9045918,8.34417073 55.5137755,8.49782927 C54.122449,8.6514878 53.6382653,9.18263415 52.3173469,10.836 C50.7744898,12.768 48.4433673,15.687 43.5938776,16.2227561 C38.744898,16.7585122 35.8372449,14.4188049 33.9127551,12.8699268 C32.2653061,11.5443659 31.6780612,11.1320488 30.2872449,11.2857073 C28.8969388,11.4393659 28.4127551,11.9694878 27.0923469,13.623878 C25.5494898,15.555878 23.2188776,18.4743659 18.369898,19.0106341 C13.5204082,19.5463902 10.6127551,17.2066829 8.68826531,15.6578049 C7.04081633,14.3317317 6.45357143,13.9199268 5.06326531,14.0730732 C2.80153061,14.3230244 0.766326531,12.6850244 0.517346939,10.4144634 C0.268367347,8.14390244 1.9,6.1007561 4.16173469,5.85080488 C9.01071429,5.31504878 11.9183673,7.6547561 13.8428571,9.20363415 C15.4903061,10.5291951 16.077551,10.9415122 17.4683673,10.7878537 C18.8586735,10.6341951 19.3428571,10.1040732 20.6632653,8.44968293 C22.2061224,6.51768293 24.5367347,3.59919512 29.3857143,3.06292683 C34.2352041,2.52717073 37.1428571,4.86739024 39.0673469,6.4157561 C40.7147959,7.74182927 41.3020408,8.15363415 42.6923469,8.0004878 C44.0836735,7.84682927 44.5683673,7.31568293 45.8892857,5.66129268 C47.4321429,3.72980488 49.7627551,0.811317073 54.6127551,0.27504878 C59.4627551,-0.260707317 62.3704082,2.079 64.294898,3.62787805 C65.9428571,4.95343902 66.530102,5.3657561 67.9214286,5.21209756 C70.1831633,4.96214634 72.2183673,6.60014634 72.4673469,8.87070732 C72.7158163,11.1417805 71.0841837,13.1849268 68.822449,13.434878 Z" id="Path"></path>
                        <path d="M71.3020408,36.0488049 C66.452551,36.584561 63.544898,34.2448537 61.6204082,32.6964878 C59.972449,31.3704146 59.3841837,30.9580976 57.9933673,31.1117561 C56.6020408,31.2654146 56.1178571,31.796561 54.7969388,33.4499268 C53.2540816,35.3819268 50.9229592,38.3009268 46.0734694,38.8366829 C41.2244898,39.372439 38.3168367,37.0327317 36.3923469,35.4838537 C34.744898,34.1582927 34.1576531,33.7459756 32.7668367,33.8996341 C31.3765306,34.0532927 30.8923469,34.5834146 29.5719388,36.2378049 C28.0290816,38.1698049 25.6984694,41.0882927 20.8494898,41.624561 C16,42.1603171 13.0923469,39.8206098 11.1678571,38.2717317 C9.52040816,36.9456585 8.93316327,36.5338537 7.54285714,36.687 C5.28112245,36.9369512 3.24591837,35.2989512 2.99693878,33.0283902 C2.74795918,30.7578293 4.37959184,28.7146829 6.64132653,28.4647317 C11.4903061,27.9289756 14.3979592,30.2686829 16.322449,31.817561 C17.969898,33.143122 18.5571429,33.555439 19.9479592,33.4017805 C21.3382653,33.248122 21.822449,32.718 23.1428571,31.0636098 C24.6857143,29.1316098 27.0163265,26.213122 31.8653061,25.6768537 C36.7147959,25.1410976 39.622449,27.4813171 41.5469388,29.0296829 C43.1943878,30.3557561 43.7816327,30.767561 45.1719388,30.6144146 C46.5632653,30.4607561 47.0479592,29.9296098 48.3688776,28.2752195 C49.9117347,26.3437317 52.2423469,23.4252439 57.0923469,22.8889756 C61.9423469,22.3532195 64.85,24.6929268 66.7744898,26.2418049 C68.422449,27.5673659 69.0096939,27.9796829 70.4010204,27.8260244 C72.6627551,27.5760732 74.6979592,29.2140732 74.9469388,31.4846341 C75.1959184,33.7551951 73.5642857,35.7988537 71.3020408,36.0488049 Z" id="Path"></path>
                    </g>
                </g>
                <g id="bake" transform="translate(72.536974, 117.655491) rotate(-8.000000) translate(-72.536974, -117.655491) translate(33.036974, 78.155491)">
                    <path d="M60,48.1321 L60,61.0351 C59.9997929,64.8816225 56.8732846,67.9997935 53.0164773,68 L6.98352273,68 C3.12671852,67.999786 0.000214615075,64.8816194 0,61.0351 L0,59.3793 C-0.0001669985,39.9652348 4.1676883,20.7761741 12.2232955,3.1025 L13.6363636,0 L46.6107955,0 C49.6857224,-6.15072051e-05 52.3801261,2.05278128 53.1886364,5.0116 L55.1948864,12.3488 C58.3840132,24.0105795 59.9999536,36.04436 60,48.1321 Z" id="Path" fill="#EEDC9A"></path>
                    <path d="M55.2429375,12.3488 L53.25675,5.0116 C52.5631432,2.44848833 50.4514729,0.526935798 47.85,0.09163 L47.85,0 L35.7,0 L35.7,10.88 L41.8792639,10.88 C36.010047,26.3661327 33.0008172,42.8028034 33,59.3793 L33,61.0351 C33.0000522,64.8816863 36.0953849,67.9999474 39.9136875,68 L53.0863125,68 C56.9046151,67.9999474 59.9999478,64.8816863 60,61.0351 L60,48.1321 C59.9999541,36.04436 58.400173,24.0105795 55.2429375,12.3488 Z" id="Path" fill="#E88604"></path>
                    <path d="M39.125,12 C39.125,14.209139 40.9718254,16 43.25,16 L6.125,16 C3.84682541,16 2,14.209139 2,12 L2,6.66666667 C2,2.98476833 5.07804234,5.92118946e-16 8.875,0 L46,0 C42.2030423,0 39.125,2.98476833 39.125,6.66666667 L39.125,12 Z" id="Path" fill="#ECE9C0"></path>
                    <path d="M40,8 L48,8 L48,12 C48,14.209139 46.209139,16 44,16 C41.790861,16 40,14.209139 40,12 L40,8 Z" id="Path" fill="#EEBE33"></path>
                    <path d="M14,44 C13.9999996,46.73802 14.4992998,49.4521647 15.4724362,52.0040121 L20.1216797,64.1956863 C22.1458579,69.5036728 27.1578077,72.9999997 32.7425757,73 L60.2574243,73 C65.8421923,72.9999997 70.8541421,69.5036728 72.8783203,64.1956863 L77.5275621,52.0040155 C78.5006995,49.4521672 79.0000003,46.7380212 79,44 L14,44 Z" id="Path" fill="#379EC3"></path>
                    <path d="M79,43.5 C79,45.9445383 75.8397135,48.1736692 70.6464844,49.8582143 C64.6983073,51.7870536 56.0841146,53 46.5,53 C36.9158854,53 28.3016927,51.7870536 22.3535156,49.8582143 C17.1602865,48.1736692 14,45.9445383 14,43.5 C14,38.2529464 28.5505208,34 46.5,34 C64.4494792,34 79,38.2529464 79,43.5 Z" id="Path" fill="#8ACCE7"></path>
                    <path d="M71,48.875 C70.9972733,49.2027671 70.9186111,49.5253356 70.7703125,49.816875 C64.7916319,51.7710938 56.1332639,53 46.5,53 C36.8667361,53 28.2083681,51.7710938 22.2296875,49.816875 C22.0813889,49.5253356 22.0027267,49.2027671 22,48.875 C22,45.0782658 32.9688542,42 46.5,42 C60.0311458,42 71,45.0782658 71,48.875 Z" id="Path" fill="#EEDC9A"></path>
                    <path d="M63.8246274,30.4451866 L63.3750834,26.5027041 L62.5189662,26.5953827 L62.457429,26.0556092 L61.601384,26.148286 L61.5398571,25.6085142 L59.3757783,25.842796 L58.9555852,24 C50.7064156,25.7701154 43.7227361,31.0838835 39.9598718,38.4535291 L36,46.1714752 L38.4622022,47.3712072 L42.4220757,39.6532611 C45.5346971,33.5572453 51.1076017,28.9965036 57.8069037,27.0626586 C53.1954074,30.2298567 48.9739653,35.103115 46.0249898,40.7229004 L41.9719364,48.3928708 L44.4193539,49.6210952 L48.4741588,41.947768 C51.3000375,36.5626132 55.3459489,31.9341379 59.7256679,29.0295479 C58.8129153,30.7111415 57.7916321,32.5689407 56.717853,34.5220257 C55.2203526,37.2456985 53.6778208,40.0691446 52.0902576,42.992364 L48.9694902,48.7293683 L51.4017857,49.985919 L54.5245696,44.2450667 C56.1033099,41.3200745 57.6432374,38.5013768 59.1443521,35.7889737 C59.8573022,34.4922657 60.5463745,33.2387649 61.1977134,32.0478222 C61.4775425,36.6435246 60.423309,41.2231018 58.1557902,45.2618997 L56.222859,48.7152872 L58.6395268,50 L60.5724598,46.5465336 C63.3321086,41.6338532 64.4678971,36.0106118 63.8246274,30.4451866 Z" id="Path" fill="#C4D4E0"></path>
                    <path d="M57.5893437,23.8833489 L68.5557795,5.92430071 C69.7059194,4.04078606 72.1584901,3.43775615 74.049826,4.57344287 C74.9681785,5.12488234 75.6284603,6.02051553 75.883984,7.06136953 C76.1395078,8.10222353 75.9691125,9.20210107 75.4106529,10.1166546 L64.444224,28.0756993 C63.2940841,29.9592139 60.8415134,30.5622439 58.9501775,29.4265571 C58.0318248,28.8751188 57.3715422,27.9794868 57.1160172,26.9386335 C56.8604922,25.8977803 57.0308858,24.7979029 57.5893437,23.8833489 Z" id="Path" fill="#A6B2BC"></path>
                    <path d="M52,67.944933 L62.925896,67.0143866 C63.971219,66.9253573 65.0082979,67.2524144 65.7833707,67.9155309 C66.5584435,68.5786474 67.0000014,69.5166434 67,70.5000016 C67.0000005,71.4833593 66.5584422,72.4213544 65.7833695,73.0844702 C65.0082967,73.7475859 63.9712185,74.0746427 62.925896,73.9856134 L52,73.0550702 L52,67.944933 Z" id="Path" fill="#966342"></path>
                    <rect id="Rectangle" fill="#723024" x="5" y="63" width="56" height="16" rx="8"></rect>
                    <circle id="Oval" fill="#984E3C" cx="14" cy="71" r="8"></circle>
                    <path d="M12.2839295,73.2863917 L4.07410398,73.9856134 C3.02878095,74.0746427 1.99170212,73.7475856 1.21662929,73.0844691 C0.441556464,72.4213526 -1.42429269e-06,71.4833566 0,70.4999984 C-4.66471531e-07,69.5166407 0.441557838,68.5786456 1.21663055,67.9155298 C1.99170326,67.2524141 3.02878154,66.9253573 4.07410398,67.0143866 L12.2839295,67.7136083 C13.8221881,67.8446192 15.0000002,69.0529251 15,70.4999984 C15.0000019,71.9470729 13.8221894,73.1553807 12.2839295,73.2863917 Z" id="Path" fill="#AD7D4D"></path>
                </g>
            </g>
        </g>
    </g>
</svg>