<?xml version="1.0" encoding="UTF-8"?>
<svg width="15px" height="20px" viewBox="0 0 15 20" version="1.1" xmlns="http://www.w3.org/2000/svg" xmlns:xlink="http://www.w3.org/1999/xlink">
    <!-- Generator: Sketch 52.4 (67378) - http://www.bohemiancoding.com/sketch -->
    <title>delete</title>
    <desc>Created with Sketch.</desc>
    <g id="Page-1" stroke="none" stroke-width="1" fill="none" fill-rule="evenodd">
        <g id="Backpack-Screen-Items" transform="translate(-312.000000, -258.000000)" fill="#F3F5F8">
            <g id="delete" transform="translate(312.000000, 258.000000)">
                <g transform="translate(0.000000, -0.000000)">
                    <path d="M5.87861256,1.2071575 L9.09554158,1.2071575 L9.09554158,1.76954157 L10.2572839,1.76954157 L10.2572838,1.12842984 C10.2574307,0.506237203 9.77047109,0 9.17190436,0 L5.80224977,0 C5.20368305,0 4.71672346,0.506237203 4.71672346,1.12842984 L4.71672346,1.76954157 L5.87861256,1.76954157 L5.87861256,1.2071575 Z" id="Path"></path>
                    <path d="M12.9402608,6.55209452 L2.03389331,6.55209452 C1.73505053,6.55209452 1.4997944,6.81696123 1.52387805,7.12653182 L2.43567902,18.8404758 C2.48648966,19.4944036 3.0114838,19.9980471 3.64221098,19.9980471 L11.3317963,19.9980471 C11.9625235,19.9980471 12.4875176,19.4944036 12.5383282,18.8403232 L13.4501292,7.12653182 C13.4743597,6.81696123 13.2391036,6.55209452 12.9402608,6.55209452 Z M4.67472391,18.7486269 C4.66253526,18.7493897 4.65034658,18.7498474 4.63830474,18.7498474 C4.33373474,18.7498474 4.07806624,18.503442 4.05912241,18.1833439 L3.48772323,8.56682086 C3.46804511,8.23405917 3.71167177,7.94767968 4.03180805,7.92723488 C4.35091635,7.90709524 4.62773143,8.15960355 4.64740955,8.49251784 L5.21866188,18.1090409 C5.23848684,18.4418026 4.99486019,18.7280295 4.67472391,18.7486269 Z M8.07448308,18.1462687 C8.07448308,18.4794881 7.81440906,18.7496948 7.49353853,18.7496948 C7.17266801,18.7496948 6.91259398,18.4794881 6.91259398,18.1462687 L6.91259398,8.52959305 C6.91259398,8.19622107 7.17266801,7.9260143 7.49353853,7.9260143 C7.81426222,7.9260143 8.07448308,8.19622107 8.07448308,8.52959305 L8.07448308,18.1462687 Z M11.4864309,8.56514254 L10.9408776,18.1816656 C10.9228148,18.502374 10.6667058,18.7496948 10.3615484,18.7496948 C10.350094,18.7496948 10.3384927,18.7493897 10.3268914,18.7487794 C10.0066083,18.7290975 9.76224741,18.4434809 9.78119128,18.1107192 L10.3265977,8.49404355 C10.3453947,8.16128187 10.6194196,7.90740041 10.9405839,7.92708232 C11.260867,7.94661166 11.5052279,8.23238086 11.4864309,8.56514254 Z" id="Shape" fill-rule="nonzero"></path>
                    <path d="M14.9491894,4.68948345 L14.5676692,3.501245 C14.4670759,3.18801266 14.1848273,2.97669907 13.8668938,2.97669907 L1.1071135,2.97669907 C0.789326842,2.97669907 0.506931391,3.18801266 0.406484962,3.501245 L0.0249647368,4.68948345 C-0.0486078571,4.9186481 0.0471393233,5.15238988 0.225857594,5.26895569 C0.29869594,5.31640586 0.384897782,5.34493702 0.479616992,5.34493702 L14.4945371,5.34493702 C14.5892564,5.34493702 14.675605,5.31640586 14.7482965,5.26880309 C14.9270148,5.15223732 15.022762,4.9184955 14.9491894,4.68948345 Z" id="Path"></path>
                </g>
            </g>
        </g>
    </g>
</svg>