<?xml version="1.0" encoding="UTF-8"?>
<svg width="49px" height="56px" viewBox="0 0 49 56" version="1.1" xmlns="http://www.w3.org/2000/svg" xmlns:xlink="http://www.w3.org/1999/xlink">
    <!-- Generator: Sketch 52.4 (67378) - http://www.bohemiancoding.com/sketch -->
    <title>exchange</title>
    <desc>Created with Sketch.</desc>
    <g id="Page-1" stroke="none" stroke-width="1" fill="none" fill-rule="evenodd">
        <g id="Notification-backpack-is-full" transform="translate(-156.000000, -174.000000)">
            <g id="exchange" transform="translate(156.000000, 174.000000)">
                <path d="M25.1895173,22.2096232 L25.1895173,25.0188096 C25.1895173,25.911014 25.3640884,26.659562 25.7086367,27.2427133 C26.1839044,28.0475302 26.9640451,28.5087654 27.8498472,28.5087654 C28.7176911,28.5087654 29.5801058,28.0773698 30.4128684,27.2273672 L39.5030946,17.9489529 C41.4989685,15.91176 41.4989685,12.5970054 39.5030946,10.5598124 L30.4128684,1.28139825 C29.5801058,0.430969282 28.7176911,0 27.8498472,0 C26.5255291,0 25.1895173,1.0793414 25.1895173,3.4899558 L25.1895173,6.04124261 C12.283785,6.81920389 1.59986669,16.9284382 0.012021371,30.1640113 C-0.0769346888,30.9031811 0.334852588,31.6108062 1.01350826,31.8849044 C1.20561999,31.9624873 1.40566681,32 1.60320776,32 C2.10353349,32 2.58882449,31.7608569 2.89787381,31.3298876 C7.15690742,25.3900996 13.99525,21.8438749 21.1902522,21.8438749 C22.5233406,21.8438749 23.8639463,21.9666436 25.1895173,22.2096232 Z" id="Path" fill="#4A90E2"></path>
                <path d="M46.1017126,24.670603 C41.8431019,30.6099525 35.0047681,34.1561699 27.8097749,34.1561699 C26.4766882,34.1561699 25.1360842,34.0334015 23.8105148,33.7904223 L23.8105148,30.9812417 C23.8105148,28.5706323 22.474087,27.491293 21.1501883,27.491293 C20.2823455,27.491293 19.4199319,27.9226878 18.5867528,28.7731149 L9.49653806,38.0510839 C7.50108438,40.0882726 7.50108438,43.4030204 9.49695567,45.4406355 L18.5867528,54.7186044 C19.4199319,55.5690316 20.2823455,56 21.1501883,56 C22.474087,56 23.8105148,54.9206608 23.8105148,52.5100514 L23.8105148,49.9587698 C36.7166485,49.1808101 47.4001358,39.0715965 48.987979,25.8364769 C49.0769349,25.0968823 48.6651481,24.3892586 47.9860757,24.115161 C47.307421,23.8406372 46.5331281,24.0691229 46.1017126,24.670603 Z" id="Path" fill="#0C2A4C"></path>
            </g>
        </g>
    </g>
</svg>