<?xml version="1.0" encoding="UTF-8"?>
<svg width="15px" height="17px" viewBox="0 0 15 17" version="1.1" xmlns="http://www.w3.org/2000/svg" xmlns:xlink="http://www.w3.org/1999/xlink">
    <!-- Generator: Sketch 52.4 (67378) - http://www.bohemiancoding.com/sketch -->
    <title>exchange</title>
    <desc>Created with Sketch.</desc>
    <g id="Page-1" stroke="none" stroke-width="1" fill="none" fill-rule="evenodd">
        <g id="Backpack-Swap-it" transform="translate(-310.000000, -214.000000)" fill="#FFFFFF">
            <g id="exchange" transform="translate(310.000000, 214.000000)">
                <path d="M7.98692013,6.94050726 L7.98692013,7.81837801 C7.98692013,8.09719188 8.04227193,8.33111312 8.15151895,8.5133479 C8.30221358,8.7648532 8.54957527,8.9089892 8.83043936,8.9089892 C9.10560939,8.9089892 9.37905792,8.77417806 9.64310462,8.50855225 L12.5253714,5.60904778 C13.1582095,4.97242501 13.1582095,3.93656419 12.5253714,3.29994139 L9.64310462,0.400436954 C9.37905792,0.134677901 9.10560939,0 8.83043936,0 C8.41053362,0 7.98692013,0.337294187 7.98692013,1.09061119 L7.98692013,1.88788831 C3.89485865,2.13100122 0.507274803,5.29013694 0.00381165421,9.42625352 C-0.0243939257,9.65724411 0.106172772,9.87837695 0.321356277,9.96403263 C0.382269754,9.9882773 0.445699231,10 0.508334168,10 C0.666974033,10 0.820846791,9.92526777 0.918838037,9.79058987 C2.26926333,7.93440612 4.4375183,6.82621091 6.71886044,6.82621091 C7.14154701,6.82621091 7.56661712,6.86457613 7.98692013,6.94050726 Z" id="Path"></path>
                <path d="M14.0810308,7.20956342 C12.7307396,9.06561016 10.5624874,10.1738031 8.28114815,10.1738031 C7.85846212,10.1738031 7.43339254,10.135438 7.01309006,10.059507 L7.01309006,9.18163803 C7.01309006,8.4283226 6.58934466,8.09102908 6.1695719,8.09102908 C5.89440222,8.09102908 5.62095403,8.22583994 5.35677528,8.49159841 L2.47451207,11.3909637 C1.84180724,12.0275852 1.84180724,13.0634439 2.47464448,13.7001986 L5.35677528,16.5995639 C5.62095403,16.8653224 5.89440222,17 6.1695719,17 C6.58934466,17 7.01309006,16.6627065 7.01309006,15.909391 L7.01309006,15.1121156 C11.1052788,14.8690032 14.492726,11.7098739 14.9961884,7.57389902 C15.024394,7.3427757 14.8938275,7.12164332 14.6785118,7.03598781 C14.4633286,6.95019914 14.2178211,7.02160092 14.0810308,7.20956342 Z" id="Path"></path>
            </g>
        </g>
    </g>
</svg>