<?xml version="1.0" encoding="UTF-8"?>
<svg width="360px" height="287px" viewBox="0 0 360 287" version="1.1" xmlns="http://www.w3.org/2000/svg" xmlns:xlink="http://www.w3.org/1999/xlink">
    <!-- Generator: Sketch 52.4 (67378) - http://www.bohemiancoding.com/sketch -->
    <title>fir</title>
    <desc>Created with Sketch.</desc>
    <g id="Page-1" stroke="none" stroke-width="1" fill="none" fill-rule="evenodd">
        <g id="Home-Screen-Land" transform="translate(0.000000, -307.000000)">
            <g id="fir" transform="translate(0.000000, 264.000000)">
                <path d="M136,174.218877 C136,171.33221 138.249416,169 141.00967,169 C143.769923,169 146,171.332907 146,174.218877 L146,199.781123 C146,202.66779 143.769256,205 141.00967,205 C138.250083,205 136,202.667093 136,199.781123 L136,174.218877 Z" id="Path" fill="#917D52"></path>
                <path d="M208.724091,330 L0,320.757132 L0,240.022406 C0,235.819442 0.558608755,233.887666 3.45014777,230.779538 C25.5869544,206.875836 61.6439535,191 102.706622,191 C169.695349,191 224,232.870831 224,284.522813 C224.000704,301.036718 218.456125,316.533789 208.724091,330 Z" id="Path" fill="#95D6A4"></path>
                <path d="M208.724091,330 L0,320.738411 L0,286.486797 C37.9516255,258.542894 104.42255,240 180.105593,240 C190.316736,240 200.367473,240.339397 210.199409,240.99777 C219.01403,253.99202 224,268.762117 224,284.430701 C224.000704,300.978054 218.456125,316.506513 208.724091,330 Z" id="Path" fill="#78C2A4"></path>
                <path d="M239,169.239618 C239,166.353364 241.230744,164 243.99033,164 C246.769256,164 249,166.353364 249,169.239618 L249,210.760382 C249,213.647333 246.769256,216 243.99033,216 C241.230077,216 239,213.647333 239,210.760382 L239,169.239618 Z" id="Path" fill="#917D52"></path>
                <path d="M360,236.622389 L360,319.498729 C355.059768,323.356983 349.482154,326.877754 343.385921,330 L201.354593,330 C176.115839,317.092143 160,297.44234 160,275.425243 C160,236.522758 210.299014,205 272.370257,205 C305.417812,205 335.198347,214.00961 355.756179,228.229511 C359.541816,230.854303 360,233.679058 360,236.622389 Z" id="Path" fill="#B3E59F"></path>
                <path d="M360,286.486797 L360,319.461096 C355.059768,323.333177 349.482154,326.866565 343.385921,330 L201.354593,330 C176.115839,317.045887 160,297.325666 160,275.229668 C160,262.415679 165.418093,250.399484 174.900106,240.040136 C176.633052,240.019716 178.366702,240 180.098945,240 C255.697149,240 322.111299,258.542894 360,286.486797 Z" id="Path" fill="#95D6A4"></path>
                <path d="M49,250.218611 C49,247.343234 51.2492665,245 54.0093358,245 C56.7694052,245 59,247.343234 59,250.218611 L59,280.781389 C59,283.656071 56.7687383,286 54.0093358,286 C51.2499333,286 49,283.656766 49,280.781389 L49,250.218611 Z" id="Path" fill="#917D52"></path>
                <path d="M360,304.233142 L360,320.788947 C359.461406,325.632926 355.615313,329.46357 350.751797,330 L9.24820312,330 C4.40507813,329.46357 0.53859375,325.632225 0,320.788947 L0,304.233142 C37.929375,276.422106 104.361328,258 180,258 C255.639375,258 322.090312,276.422106 360,304.233142 Z" id="Path" fill="#D6F6B2"></path>
                <path d="M360,314 L360,320.968285 C359.461406,325.717952 355.615313,329.474014 350.751797,330 L9.24820312,330 C4.40507813,329.474014 0.53859375,325.717265 0,320.968285 L0,314 L360,314 Z" id="Path" fill="#CCF49F"></path>
                <path d="M60.2495971,163.410977 L81.7917995,241.520731 C82.8171456,245.239907 79.9206316,249 76.0590859,249 L32.9548128,249 C29.6552561,249 27,246.339717 27,243.080499 C27,242.340474 27.120629,241.640659 27.3817552,240.98035 L48.7841699,163.351013 C49.6491504,160.191265 52.9075514,158.35143 56.0659012,159.211384 C58.1981953,159.771517 59.7465035,161.431461 60.2495971,163.410977 Z" id="Path" fill="#66B394"></path>
                <path d="M146.598228,104.591444 L163.836135,167.939285 C164.649224,170.959411 162.328912,174 159.254287,174 L124.779872,174 C122.141181,174 120,171.859803 120,169.199553 C120,168.599056 120.118955,168.039486 120.316979,167.519431 L137.434532,104.532171 C138.128667,101.97212 140.727473,100.471936 143.266102,101.171928 C144.951757,101.631298 146.201479,102.991766 146.598228,104.591444 Z" id="Path" fill="#66B394"></path>
                <path d="M251.964645,50.1506849 L281.714144,158.614442 C283.124644,163.797063 279.130096,169 273.804967,169 L214.247782,169 C209.695903,169 206,165.306734 206,160.758806 C206,159.74652 206.198395,158.772765 206.536299,157.859256 L236.107032,50.0308919 C237.299507,45.6623023 241.810725,43.1004146 246.182435,44.2920391 C249.123314,45.0864555 251.24958,47.3905433 251.964645,50.1506849 Z" id="Path" fill="#66B394"></path>
                <g id="Group" transform="translate(30.000000, 43.000000)" fill="#5AA687">
                    <path d="M205.210411,9.29662963 L234.194611,115.237815 C235.608286,120.443815 231.606034,125.670222 226.27157,125.670222 L243.830495,125.670222 C249.165661,125.670222 253.166509,120.443815 251.753536,115.237815 L221.951891,6.28477778 C221.235573,3.51218519 219.10558,1.1977037 216.159545,0.400407407 C211.780173,-0.796592593 207.261048,1.77685185 206.066482,6.16514815 L205.210411,9.29662963 Z" id="Path"></path>
                    <path d="M133.743627,124.533741 L116.443139,61.3594444 C116.045652,59.7634444 114.790691,58.4074074 113.098916,57.9485926 C110.55107,57.2505185 107.94283,58.7465926 107.246175,61.2996296 L103.065545,76.5995556 L116.184702,124.533741 C116.443139,125.530889 116.384148,126.528037 116.045652,127.405556 C115.388325,129.221111 113.657223,130.577148 111.58622,130.577148 L117.100466,130.577148 L129.145145,130.577148 C132.230932,130.577852 134.559668,127.545593 133.743627,124.533741 Z" id="Path"></path>
                    <path d="M38.9649,151.721333 L30.6043432,121.161593 C30.1064318,119.187 28.5733705,117.531185 26.4637432,116.972444 C23.3379273,116.11463 20.1130909,117.949889 19.2570205,121.101778 L16.1522727,132.472222 L22.7016682,156.448815 L34.3664182,199.077074 C35.2421523,202.288074 33.2118818,205.520185 30.1864909,206.337889 C29.7082432,206.457519 29.2103318,206.537741 28.6927568,206.537741 L30.1864909,206.537741 L46.2509795,206.537741 C50.0727477,206.537741 52.939425,202.787704 51.9246409,199.077074 L38.9649,151.721333 Z" id="Path"></path>
                </g>
            </g>
        </g>
    </g>
</svg>