<?xml version="1.0" encoding="UTF-8"?>
<svg width="26px" height="32px" viewBox="0 0 26 32" version="1.1" xmlns="http://www.w3.org/2000/svg" xmlns:xlink="http://www.w3.org/1999/xlink">
    <!-- Generator: Sketch 52.4 (67378) - http://www.bohemiancoding.com/sketch -->
    <title>macro</title>
    <desc>Created with Sketch.</desc>
    <g id="Page-1" stroke="none" stroke-width="1" fill="none" fill-rule="evenodd">
        <g id="Home-Screen-Land" transform="translate(-304.000000, -172.000000)">
            <g id="macro" transform="translate(304.000000, 172.000000)">
                <polygon id="Path" fill="#59C36A" points="13 13 12 13 12 28 13 28 14 28 14 13"></polygon>
                <polygon id="Path" fill="#00A66C" points="13 13 14 13 14 28 13 28"></polygon>
                <path d="M25.7236777,18.2781891 C25.471265,18.0238792 25.096356,17.9341636 24.7564729,18.0497648 C24.5022366,18.1357554 18.4844513,20.1898064 15.0522926,23.6358062 C14.0943946,24.5975496 13.4495286,25.5617553 12.9999774,26.4699598 C12.5504891,25.5617553 11.9055602,24.5974865 10.9476622,23.6358062 C7.51550354,20.1898695 1.49771822,18.1358185 1.24348191,18.0497648 C0.902655602,17.9341636 0.529570268,18.0238792 0.276277208,18.2781891 C0.0229841477,18.532499 -0.0645491045,18.908029 0.0487662119,19.2492765 C0.134412972,19.5045334 2.18025121,25.5464765 5.61247279,28.9924132 C8.22111462,31.6115271 10.8832071,32 12.2317977,32 L13.0000403,32 L13.7682829,32 C15.1168107,32 17.7789031,31.6115903 20.3876078,28.9924132 C23.8197665,25.5464765 25.8656048,19.5045334 25.9513144,19.2492765 C26.064504,18.9079659 25.9769707,18.532499 25.7236777,18.2781891 Z" id="Path" fill="#97DE3D"></path>
                <path d="M20.3875175,28.9924132 C23.8196821,25.5464765 25.8655239,19.5045334 25.9512337,19.2492765 C26.0645492,18.908029 25.9770158,18.532499 25.7237223,18.2781891 C25.4713092,18.0238792 25.0963996,17.9341636 24.7565159,18.0497648 C24.5022792,18.1357554 18.4844834,20.1898064 15.0523188,23.6358062 C14.0944191,24.5975496 13.4495519,25.5617553 13,26.4699598 L13,32 L13.768244,32 C15.116774,32 17.7788711,31.6115271 20.3875175,28.9924132 Z" id="Path" fill="#59C36A"></path>
                <path d="M18.8611515,0.0992257646 C18.4660606,-0.104019451 17.9911515,0.0131652904 17.7274545,0.375719256 L14.9904242,4.13938066 L13,15 L13.4287879,15 C19.3325455,15 23,11.9366971 23,7.00487571 C23,4.06150749 21.4144242,1.41569477 18.8611515,0.0992257646 Z" id="Path" fill="#CD0000"></path>
                <path d="M11.0095758,4.13938066 L8.27254545,0.375719256 C8.00884848,0.0131652904 7.53127273,-0.104019451 7.13884848,0.0992257646 C4.58557576,1.41569477 3,4.06150749 3,7.00487571 C3,11.9366971 6.66745455,15 12.5712121,15 L13,15 L11.0095758,4.13938066 Z" id="Path" fill="#F03800"></path>
                <path d="M14.1003,0.2389375 C13.92978,0.079625 13.71492,0 13.5,0 C13.28508,0 13.07022,0.079625 12.8997,0.2389375 C12.74064,0.38725 9,3.9285 9,8.4375 C9,13.1625625 12.999,14.8645 13.16868,14.9340625 C13.275,14.978 13.3875,15 13.5,15 C13.61244,15 13.725,14.978 13.83132,14.9340625 C14.00094,14.8645 18,13.1625 18,8.4375 C18,3.9285 14.25936,0.38725 14.1003,0.2389375 Z" id="Path" fill="#FF641A"></path>
                <path d="M18,8.4375 C18,3.9285 13.8437333,0.38725 13.667,0.2389375 C13.4775333,0.079625 13.2388,0 13,0 L13,15 C13.1249333,15 13.25,14.978 13.3681333,14.9340625 C13.5566,14.8645 18,13.1625 18,8.4375 Z" id="Path" fill="#F03800"></path>
            </g>
        </g>
    </g>
</svg>