<?xml version="1.0" encoding="UTF-8"?>
<svg width="32px" height="32px" viewBox="0 0 32 32" version="1.1" xmlns="http://www.w3.org/2000/svg" xmlns:xlink="http://www.w3.org/1999/xlink">
    <!-- Generator: Sketch 52.4 (67378) - http://www.bohemiancoding.com/sketch -->
    <title>twitter</title>
    <desc>Created with Sketch.</desc>
    <g id="Symbols" stroke="none" stroke-width="1" fill="none" fill-rule="evenodd">
        <g id="Social" transform="translate(-119.000000, -24.000000)">
            <g id="twitter">
                <g transform="translate(119.000000, 24.000000)">
                    <circle id="Oval" fill="#00ACEE" cx="16" cy="16" r="16"></circle>
                    <path d="M26,10.8941538 C25.2934375,11.2153846 24.5405625,11.4283077 23.755625,11.5316923 C24.563125,11.032 25.1794375,10.2467692 25.4691875,9.30030769 C24.7163125,9.76553846 23.8850625,10.0941538 22.9991875,10.2775385 C22.2843125,9.48861538 21.2654375,9 20.1539375,9 C17.9974375,9 16.2613125,10.8141538 16.2613125,13.0381538 C16.2613125,13.3581538 16.2874375,13.6658462 16.3515625,13.9587692 C13.11325,13.7950769 10.2478125,12.1864615 8.322875,9.736 C7.9868125,10.3403077 7.7896875,11.032 7.7896875,11.7766154 C7.7896875,13.1747692 8.484375,14.4141538 9.519875,15.1316923 C8.8940625,15.1193846 8.280125,14.9310769 7.76,14.6344615 C7.76,14.6467692 7.76,14.6627692 7.76,14.6787692 C7.76,16.6406154 9.1101875,18.2701538 10.88075,18.6455385 C10.5636875,18.7353846 10.218125,18.7784615 9.8595,18.7784615 C9.610125,18.7784615 9.358375,18.7636923 9.1220625,18.7095385 C9.62675,20.3083077 11.058875,21.4836923 12.76175,21.5218462 C11.4365,22.5963077 9.7538125,23.2436923 7.9321875,23.2436923 C7.61275,23.2436923 7.306375,23.2289231 7,23.1883077 C8.7254375,24.3415385 10.7703125,25 12.9755,25 C20.14325,25 24.062,18.8461538 24.062,13.512 C24.062,13.3335385 24.0560625,13.1612308 24.04775,12.9901538 C24.8208125,12.4215385 25.470375,11.7113846 26,10.8941538 Z" id="Path" fill="#F3F5F8"></path>
                </g>
            </g>
        </g>
    </g>
</svg>