<?xml version="1.0" encoding="UTF-8"?>
<svg width="360px" height="71px" viewBox="0 0 360 71" version="1.1" xmlns="http://www.w3.org/2000/svg" xmlns:xlink="http://www.w3.org/1999/xlink">
    <!-- Generator: Sketch 52.4 (67378) - http://www.bohemiancoding.com/sketch -->
    <title>Group 3</title>
    <desc>Created with Sketch.</desc>
    <g id="Page-1" stroke="none" stroke-width="1" fill="none" fill-rule="evenodd">
        <g id="Home-Screen-Boat" transform="translate(0.000000, -498.000000)">
            <g id="boat" transform="translate(-38.000000, 287.000000)">
                <g id="Group-3" transform="translate(0.000000, 211.000000)">
                    <g id="Group-2" transform="translate(283.000000, 0.000000)">
                        <path d="M110.83232,19.797582 C92.7484797,19.797582 92.7484797,8.5 74.6646395,8.5 C56.5819296,8.5 56.5819296,19.797582 38.4986546,19.797582 C20.4159446,19.797582 20.4159446,8.5 2.33379975,8.5 C1.51612221,8.5 0.747041955,8.53050347 0,8.57456404 L0,70.5 L147,70.5 L147,8.5 C128.91616,8.5 128.91616,19.797582 110.83232,19.797582 Z" id="XMLID_3598_" fill="#33BBFF"></path>
                        <g id="Group" transform="translate(0.000000, 0.500000)" fill="#008ADF">
                            <path d="M125.015824,47.9339709 C120.959648,50.4690194 118.028932,52.3014278 111.41248,52.3014278 C104.796028,52.3014278 101.865311,50.4695851 97.8091355,47.9339709 C92.858249,44.8382812 86.6970703,40.9867726 75.2145652,40.9867726 C63.7320601,40.9867726 57.5708815,44.838847 52.6199949,47.9339709 C48.5643852,50.4690194 45.6336685,52.3014278 39.0177819,52.3014278 C32.4024609,52.3014278 29.4723098,50.4695851 25.4167001,47.9339709 C20.4658135,44.8382812 14.3046349,40.9867726 2.82269531,40.9867726 C2.01621094,40.9867726 1.24252887,41.0099677 0.486944633,41.0467403 L0.486944633,58.044181 C1.21368546,57.9881735 1.98849864,57.9587554 2.82269531,57.9587554 C9.43858186,57.9587554 12.368733,59.7905981 16.4243427,62.3262123 C21.3752293,65.4219019 27.5358424,69.2734106 39.0177819,69.2734106 C50.500287,69.2734106 56.6614657,65.4213362 61.6123522,62.3262123 C65.667962,59.7911638 68.5986787,57.9587554 75.2145652,57.9587554 C81.8310173,57.9587554 84.761734,59.7905981 88.8179093,62.3262123 C93.7687959,65.4219019 99.9299745,69.2734106 111.41248,69.2734106 C122.894985,69.2734106 129.056163,65.4213362 134.00705,62.3262123 C138.063225,59.7911638 140.993942,57.9587554 147.610394,57.9587554 L147.610394,40.9867726 C136.127889,40.9862069 129.96671,44.8382812 125.015824,47.9339709 Z" id="XMLID_3600_"></path>
                            <path d="M125.015824,7.11748384 C120.959648,9.65253233 118.028932,11.4849407 111.41248,11.4849407 C104.796028,11.4849407 101.865311,9.65309806 97.8091355,7.11748384 C92.858249,4.02179418 86.6970703,0.17028556 75.2145652,0.17028556 C63.7320601,0.17028556 57.5708815,4.02235991 52.6199949,7.11748384 C48.5643852,9.65253233 45.6336685,11.4849407 39.0177819,11.4849407 C32.4024609,11.4849407 29.4723098,9.65309806 25.4167001,7.11748384 C20.4658135,4.02179418 14.3046349,0.17028556 2.82269531,0.17028556 C2.01621094,0.17028556 1.24252887,0.193480603 0.486944633,0.230253233 L0.486944633,17.227694 C1.21368546,17.1716864 1.98849864,17.1422683 2.82269531,17.1422683 C9.43858186,17.1422683 12.368733,18.974111 16.4243427,21.5097252 C21.3752293,24.6054149 27.5358424,28.4569235 39.0177819,28.4569235 C50.500287,28.4569235 56.6614657,24.6048491 61.6123522,21.5097252 C65.667962,18.9746767 68.5986787,17.1422683 75.2145652,17.1422683 C81.8310173,17.1422683 84.761734,18.974111 88.8179093,21.5097252 C93.7687959,24.6054149 99.9299745,28.4569235 111.41248,28.4569235 C122.894985,28.4569235 129.056163,24.6048491 134.00705,21.5097252 C138.063225,18.9746767 140.993942,17.1422683 147.610394,17.1422683 L147.610394,0.17028556 C136.127889,0.17028556 129.96671,4.02179418 125.015824,7.11748384 Z" id="XMLID_3626_"></path>
                        </g>
                    </g>
                    <g id="Group-2" transform="translate(138.000000, 0.000000)">
                        <path d="M110.83232,19.797582 C92.7484797,19.797582 92.7484797,8.5 74.6646395,8.5 C56.5819296,8.5 56.5819296,19.797582 38.4986546,19.797582 C20.4159446,19.797582 20.4159446,8.5 2.33379975,8.5 C1.51612221,8.5 0.747041955,8.53050347 0,8.57456404 L0,70.5 L147,70.5 L147,8.5 C128.91616,8.5 128.91616,19.797582 110.83232,19.797582 Z" id="XMLID_3598_" fill="#33BBFF"></path>
                        <g id="Group" transform="translate(0.000000, 0.500000)" fill="#008ADF">
                            <path d="M125.015824,47.9339709 C120.959648,50.4690194 118.028932,52.3014278 111.41248,52.3014278 C104.796028,52.3014278 101.865311,50.4695851 97.8091355,47.9339709 C92.858249,44.8382812 86.6970703,40.9867726 75.2145652,40.9867726 C63.7320601,40.9867726 57.5708815,44.838847 52.6199949,47.9339709 C48.5643852,50.4690194 45.6336685,52.3014278 39.0177819,52.3014278 C32.4024609,52.3014278 29.4723098,50.4695851 25.4167001,47.9339709 C20.4658135,44.8382812 14.3046349,40.9867726 2.82269531,40.9867726 C2.01621094,40.9867726 1.24252887,41.0099677 0.486944633,41.0467403 L0.486944633,58.044181 C1.21368546,57.9881735 1.98849864,57.9587554 2.82269531,57.9587554 C9.43858186,57.9587554 12.368733,59.7905981 16.4243427,62.3262123 C21.3752293,65.4219019 27.5358424,69.2734106 39.0177819,69.2734106 C50.500287,69.2734106 56.6614657,65.4213362 61.6123522,62.3262123 C65.667962,59.7911638 68.5986787,57.9587554 75.2145652,57.9587554 C81.8310173,57.9587554 84.761734,59.7905981 88.8179093,62.3262123 C93.7687959,65.4219019 99.9299745,69.2734106 111.41248,69.2734106 C122.894985,69.2734106 129.056163,65.4213362 134.00705,62.3262123 C138.063225,59.7911638 140.993942,57.9587554 147.610394,57.9587554 L147.610394,40.9867726 C136.127889,40.9862069 129.96671,44.8382812 125.015824,47.9339709 Z" id="XMLID_3600_"></path>
                            <path d="M125.015824,7.11748384 C120.959648,9.65253233 118.028932,11.4849407 111.41248,11.4849407 C104.796028,11.4849407 101.865311,9.65309806 97.8091355,7.11748384 C92.858249,4.02179418 86.6970703,0.17028556 75.2145652,0.17028556 C63.7320601,0.17028556 57.5708815,4.02235991 52.6199949,7.11748384 C48.5643852,9.65253233 45.6336685,11.4849407 39.0177819,11.4849407 C32.4024609,11.4849407 29.4723098,9.65309806 25.4167001,7.11748384 C20.4658135,4.02179418 14.3046349,0.17028556 2.82269531,0.17028556 C2.01621094,0.17028556 1.24252887,0.193480603 0.486944633,0.230253233 L0.486944633,17.227694 C1.21368546,17.1716864 1.98849864,17.1422683 2.82269531,17.1422683 C9.43858186,17.1422683 12.368733,18.974111 16.4243427,21.5097252 C21.3752293,24.6054149 27.5358424,28.4569235 39.0177819,28.4569235 C50.500287,28.4569235 56.6614657,24.6048491 61.6123522,21.5097252 C65.667962,18.9746767 68.5986787,17.1422683 75.2145652,17.1422683 C81.8310173,17.1422683 84.761734,18.974111 88.8179093,21.5097252 C93.7687959,24.6054149 99.9299745,28.4569235 111.41248,28.4569235 C122.894985,28.4569235 129.056163,24.6048491 134.00705,21.5097252 C138.063225,18.9746767 140.993942,17.1422683 147.610394,17.1422683 L147.610394,0.17028556 C136.127889,0.17028556 129.96671,4.02179418 125.015824,7.11748384 Z" id="XMLID_3626_"></path>
                        </g>
                    </g>
                    <g id="Group-2">
                        <path d="M110.83232,19.797582 C92.7484797,19.797582 92.7484797,8.5 74.6646395,8.5 C56.5819296,8.5 56.5819296,19.797582 38.4986546,19.797582 C20.4159446,19.797582 20.4159446,8.5 2.33379975,8.5 C1.51612221,8.5 0.747041955,8.53050347 0,8.57456404 L0,70.5 L147,70.5 L147,8.5 C128.91616,8.5 128.91616,19.797582 110.83232,19.797582 Z" id="XMLID_3598_" fill="#33BBFF"></path>
                        <g id="Group" transform="translate(0.000000, 0.500000)" fill="#008ADF">
                            <path d="M125.015824,47.9339709 C120.959648,50.4690194 118.028932,52.3014278 111.41248,52.3014278 C104.796028,52.3014278 101.865311,50.4695851 97.8091355,47.9339709 C92.858249,44.8382812 86.6970703,40.9867726 75.2145652,40.9867726 C63.7320601,40.9867726 57.5708815,44.838847 52.6199949,47.9339709 C48.5643852,50.4690194 45.6336685,52.3014278 39.0177819,52.3014278 C32.4024609,52.3014278 29.4723098,50.4695851 25.4167001,47.9339709 C20.4658135,44.8382812 14.3046349,40.9867726 2.82269531,40.9867726 C2.01621094,40.9867726 1.24252887,41.0099677 0.486944633,41.0467403 L0.486944633,58.044181 C1.21368546,57.9881735 1.98849864,57.9587554 2.82269531,57.9587554 C9.43858186,57.9587554 12.368733,59.7905981 16.4243427,62.3262123 C21.3752293,65.4219019 27.5358424,69.2734106 39.0177819,69.2734106 C50.500287,69.2734106 56.6614657,65.4213362 61.6123522,62.3262123 C65.667962,59.7911638 68.5986787,57.9587554 75.2145652,57.9587554 C81.8310173,57.9587554 84.761734,59.7905981 88.8179093,62.3262123 C93.7687959,65.4219019 99.9299745,69.2734106 111.41248,69.2734106 C122.894985,69.2734106 129.056163,65.4213362 134.00705,62.3262123 C138.063225,59.7911638 140.993942,57.9587554 147.610394,57.9587554 L147.610394,40.9867726 C136.127889,40.9862069 129.96671,44.8382812 125.015824,47.9339709 Z" id="XMLID_3600_"></path>
                            <path d="M125.015824,7.11748384 C120.959648,9.65253233 118.028932,11.4849407 111.41248,11.4849407 C104.796028,11.4849407 101.865311,9.65309806 97.8091355,7.11748384 C92.858249,4.02179418 86.6970703,0.17028556 75.2145652,0.17028556 C63.7320601,0.17028556 57.5708815,4.02235991 52.6199949,7.11748384 C48.5643852,9.65253233 45.6336685,11.4849407 39.0177819,11.4849407 C32.4024609,11.4849407 29.4723098,9.65309806 25.4167001,7.11748384 C20.4658135,4.02179418 14.3046349,0.17028556 2.82269531,0.17028556 C2.01621094,0.17028556 1.24252887,0.193480603 0.486944633,0.230253233 L0.486944633,17.227694 C1.21368546,17.1716864 1.98849864,17.1422683 2.82269531,17.1422683 C9.43858186,17.1422683 12.368733,18.974111 16.4243427,21.5097252 C21.3752293,24.6054149 27.5358424,28.4569235 39.0177819,28.4569235 C50.500287,28.4569235 56.6614657,24.6048491 61.6123522,21.5097252 C65.667962,18.9746767 68.5986787,17.1422683 75.2145652,17.1422683 C81.8310173,17.1422683 84.761734,18.974111 88.8179093,21.5097252 C93.7687959,24.6054149 99.9299745,28.4569235 111.41248,28.4569235 C122.894985,28.4569235 129.056163,24.6048491 134.00705,21.5097252 C138.063225,18.9746767 140.993942,17.1422683 147.610394,17.1422683 L147.610394,0.17028556 C136.127889,0.17028556 129.96671,4.02179418 125.015824,7.11748384 Z" id="XMLID_3626_"></path>
                        </g>
                    </g>
                </g>
            </g>
        </g>
    </g>
</svg>