<?xml version="1.0" encoding="UTF-8"?>
<svg width="251px" height="72px" viewBox="0 0 251 72" version="1.1" xmlns="http://www.w3.org/2000/svg" xmlns:xlink="http://www.w3.org/1999/xlink">
    <!-- Generator: Sketch 52.4 (67378) - http://www.bohemiancoding.com/sketch -->
    <title>sailboat (2)</title>
    <desc>Created with Sketch.</desc>
    <g id="Page-1" stroke="none" stroke-width="1" fill="none" fill-rule="evenodd">
        <g id="Home-Screen-Boat" transform="translate(0.000000, -535.000000)">
            <g id="boat" transform="translate(-38.000000, 287.000000)">
                <g id="sailboat-(2)" transform="translate(145.000000, 160.500000) scale(-1, 1) translate(-145.000000, -160.500000) translate(1.000000, 0.500000)">
                    <path d="M0,257.5 C17.9989102,257.5 17.9989102,268.797582 35.9983828,268.797582 C53.998418,268.797582 53.998418,257.5 71.9978906,257.5 C89.9973633,257.5 89.9973633,268.797582 107.997398,268.797582 C125.996309,268.797582 125.996309,257.5 143.995219,257.5 C161.995254,257.5 161.995254,268.797582 179.994727,268.797582 C197.995324,268.797582 197.995324,257.5 215.995359,257.5 C233.99652,257.5 233.99652,268.797582 251.99768,268.797582 C269.99884,268.797582 269.99884,257.5 288,257.5 L288,319.5 L0,319.5 L0,257.5 Z" id="XMLID_2_" fill="#66E6FF"></path>
                    <path d="M251.83232,267.797582 C233.74848,267.797582 233.74848,256.5 215.66464,256.5 C197.58193,256.5 197.58193,267.797582 179.498655,267.797582 C161.415945,267.797582 161.415945,256.5 143.3338,256.5 C142.516122,256.5 141.747042,256.530503 141,256.574564 L141,318.5 L288,318.5 L288,256.5 C269.91616,256.5 269.91616,267.797582 251.83232,267.797582 Z" id="XMLID_3598_" fill="#66E6FF"></path>
                    <path d="M251.99775,276.5 C240.577313,276.5 234.449438,272.55078 229.525313,269.3776 C225.491062,266.77862 222.576188,264.9 215.9955,264.9 C209.415375,264.9 206.5005,266.77804 202.466813,269.3776 C197.542687,272.55136 191.414813,276.5 179.994375,276.5 C168.5745,276.5 162.447188,272.55078 157.523063,269.3776 C153.489375,266.77862 150.575063,264.9 143.994937,264.9 C137.415375,264.9 134.501062,266.77804 130.467938,269.3776 C125.544375,272.55078 119.4165,276.5 107.997187,276.5 C96.5773125,276.5 90.45,272.55078 85.525875,269.3776 C81.4921875,266.77862 78.577875,264.9 71.99775,264.9 C65.417625,264.9 62.5033125,266.77804 58.469625,269.3776 C53.5455,272.55136 47.4181875,276.5 35.9983125,276.5 C24.5784375,276.5 18.451125,272.5502 13.527,269.3776 C9.4933125,266.77862 6.5795625,264.9 0,264.9 L0,247.5 C11.4193125,247.5 17.5471875,251.44922 22.47075,254.6224 C26.5044375,257.22138 29.41875,259.1 35.9983125,259.1 C42.577875,259.1 45.4921875,257.22196 49.525875,254.6224 C54.45,251.44864 60.577875,247.5 71.99775,247.5 C83.417625,247.5 89.5455,251.44922 94.469625,254.6224 C98.5033125,257.22138 101.417625,259.1 107.997188,259.1 C114.57675,259.1 117.491063,257.22196 121.524188,254.6224 C126.44775,251.44922 132.575625,247.5 143.994938,247.5 C155.414813,247.5 161.542688,251.44922 166.466813,254.6224 C170.5005,257.22138 173.414813,259.1 179.994375,259.1 C186.5745,259.1 189.489375,257.22196 193.523063,254.6224 C198.447188,251.44864 204.575063,247.5 215.9955,247.5 C227.415938,247.5 233.543813,251.44922 238.467938,254.6224 C242.502188,257.22138 245.417063,259.1 251.99775,259.1 C258.578438,259.1 261.493313,257.22196 265.527563,254.6224 C270.451688,251.44864 276.579563,247.5 288,247.5 L288,264.9 C281.419313,264.9 278.504438,266.77804 274.470188,269.3776 C269.546063,272.55078 263.418188,276.5 251.99775,276.5 Z" id="XMLID_330_" fill="#33BBFF"></path>
                    <path d="M251.99775,317.5 C240.577313,317.5 234.449438,313.55078 229.525313,310.3776 C225.491062,307.77862 222.576188,305.9 215.9955,305.9 C209.415375,305.9 206.5005,307.77804 202.466813,310.3776 C197.542687,313.55136 191.414813,317.5 179.994375,317.5 C168.5745,317.5 162.447188,313.55078 157.523063,310.3776 C153.489375,307.77862 150.575063,305.9 143.994937,305.9 C137.415375,305.9 134.501062,307.77804 130.467938,310.3776 C125.544375,313.55078 119.4165,317.5 107.997187,317.5 C96.5773125,317.5 90.45,313.55078 85.525875,310.3776 C81.4921875,307.77862 78.577875,305.9 71.99775,305.9 C65.417625,305.9 62.5033125,307.77804 58.469625,310.3776 C53.5455,313.55136 47.4181875,317.5 35.9983125,317.5 C24.5784375,317.5 18.451125,313.5502 13.527,310.3776 C9.4933125,307.77862 6.5795625,305.9 0,305.9 L0,288.5 C11.4193125,288.5 17.5471875,292.44922 22.47075,295.6224 C26.5044375,298.22138 29.41875,300.1 35.9983125,300.1 C42.577875,300.1 45.4921875,298.22196 49.525875,295.6224 C54.45,292.44864 60.577875,288.5 71.99775,288.5 C83.417625,288.5 89.5455,292.44922 94.469625,295.6224 C98.5033125,298.22138 101.417625,300.1 107.997188,300.1 C114.57675,300.1 117.491063,298.22196 121.524188,295.6224 C126.44775,292.44922 132.575625,288.5 143.994938,288.5 C155.414813,288.5 161.542688,292.44922 166.466813,295.6224 C170.5005,298.22138 173.414813,300.1 179.994375,300.1 C186.5745,300.1 189.489375,298.22196 193.523063,295.6224 C198.447188,292.44864 204.575063,288.5 215.9955,288.5 C227.415938,288.5 233.543813,292.44922 238.467938,295.6224 C242.502188,298.22138 245.417063,300.1 251.99775,300.1 C258.578438,300.1 261.493313,298.22196 265.527563,295.6224 C270.451688,292.44864 276.579563,288.5 288,288.5 L288,305.9 C281.419313,305.9 278.504438,307.77804 274.470188,310.3776 C269.546063,313.55136 263.418188,317.5 251.99775,317.5 Z" id="XMLID_186_" fill="#33BBFF"></path>
                </g>
            </g>
        </g>
    </g>
</svg>